<?xml version="1.0" encoding="utf-8"?>
<!-- Generator: Adobe Illustrator 25.2.3, SVG Export Plug-In . SVG Version: 6.00 Build 0)  -->
<svg version="1.1" id="РЎР»РѕР№_1" xmlns="http://www.w3.org/2000/svg" xmlns:xlink="http://www.w3.org/1999/xlink" x="0px" y="0px"
	 viewBox="0 0 1920 385" style="enable-background:new 0 0 1920 385;" xml:space="preserve">
<style type="text/css">
	.st0{fill-rule:evenodd;clip-rule:evenodd;fill:#00AD61;}
	.st1{display:none;}
	.st2{font-family:'Montserrat-Medium';}
	.st3{font-size:72px;}
	.st4{letter-spacing:1;}
	.st5{font-size:84.7637px;}
</style>
<path d="M90.4,159.2c9.1,4,16,9.8,20.9,17.3c4.8,7.5,7.3,16.5,7.3,26.8c0,10.2-2.4,19.1-7.3,26.7c-4.8,7.6-11.8,13.4-20.9,17.4
	s-19.7,6-31.9,6H26.7v40.7H0.5V153.2h58C70.7,153.2,81.4,155.2,90.4,159.2z M83.3,224.1c5.9-4.8,8.9-11.8,8.9-20.8
	c0-9-3-15.9-8.9-20.8c-5.9-4.8-14.6-7.3-26-7.3H26.7v56h30.6C68.7,231.4,77.4,228.9,83.3,224.1z"/>
<path d="M1878.5,261.6H1808l-13.9,32.6h-27l63.5-141.1h25.8l63.7,141.1h-27.4L1878.5,261.6z M1869.8,241l-26.6-61.7l-26.4,61.7
	H1869.8z"/>
<path d="M257.7,153.2L196.5,267c-5.4,10.1-11.8,17.6-19.2,22.7c-7.5,5-15.6,7.6-24.3,7.6c-7,0-13.9-1.5-20.8-4.4l6.4-20.6
	c5.5,1.7,10.1,2.6,13.7,2.6c8.5,0,15.4-4.4,21-13.1l2.2-3.4l-56.2-105.2h28L189,236l42.9-82.8H257.7z"/>
<path d="M291.2,286.9c-11.5-6.2-20.5-14.9-27-25.9c-6.5-11-9.8-23.4-9.8-37.3c0-13.8,3.3-26.3,9.9-37.3c6.6-11,15.6-19.6,27.1-25.9
	c11.5-6.2,24.3-9.4,38.6-9.4c11.6,0,22.1,2,31.6,6c9.5,4,17.6,9.9,24.2,17.5l-16.9,15.9c-10.2-11-22.8-16.5-37.7-16.5
	c-9.7,0-18.3,2.1-26,6.3c-7.7,4.2-13.6,10.1-17.9,17.6c-4.3,7.5-6.4,16.1-6.4,25.6c0,9.5,2.1,18.1,6.4,25.6
	c4.3,7.5,10.3,13.4,17.9,17.6c7.7,4.2,16.3,6.3,26,6.3c14.9,0,27.5-5.6,37.7-16.7l16.9,16.1c-6.6,7.7-14.7,13.5-24.3,17.5
	c-9.6,4-20.2,6-31.7,6C315.6,296.2,302.7,293.1,291.2,286.9z"/>
<path d="M729.6,233.3c4.7,5.8,7.1,13.1,7.1,21.9c0,12.4-4.6,22-13.7,28.8c-9.1,6.9-22.4,10.3-39.7,10.3h-66.9V153.2h63.1
	c15.9,0,28.2,3.2,37.1,9.5c8.9,6.3,13.3,15.2,13.3,26.8c0,7.4-1.8,13.8-5.3,19.1c-3.6,5.4-8.7,9.5-15.4,12.3
	C718.1,223.3,724.9,227.4,729.6,233.3z M642.2,213.4h35.1c8.5,0,14.9-1.7,19.3-5c4.4-3.4,6.7-8.3,6.7-14.9c0-6.6-2.2-11.6-6.7-15
	c-4.4-3.4-10.9-5.1-19.3-5.1h-35.1V213.4z M710.3,253.1c0-13.7-9.3-20.6-27.8-20.6h-40.3v41.5h40.3
	C701,274.1,710.3,267.1,710.3,253.1z"/>
<path d="M862.9,175.3h-46.8v118.9h-26V175.3h-46.5v-22.2h119.3V175.3z"/>
<path d="M902.3,286.9c-11.6-6.2-20.6-14.9-27.2-26c-6.6-11.1-9.9-23.5-9.9-37.2c0-13.7,3.3-26.1,9.9-37.2
	c6.6-11.1,15.6-19.7,27.2-26c11.6-6.2,24.5-9.4,38.9-9.4c14.4,0,27.3,3.1,38.9,9.4c11.6,6.2,20.6,14.9,27.2,25.9
	c6.6,11,9.9,23.4,9.9,37.3c0,13.8-3.3,26.3-9.9,37.3c-6.6,11-15.7,19.6-27.2,25.9c-11.6,6.2-24.5,9.4-38.9,9.4
	C926.8,296.2,913.8,293.1,902.3,286.9z M966.5,266.9c7.5-4.2,13.4-10.1,17.7-17.7c4.3-7.6,6.4-16.1,6.4-25.5
	c0-9.4-2.2-17.9-6.4-25.5c-4.3-7.6-10.2-13.5-17.7-17.7c-7.5-4.2-16-6.3-25.4-6.3c-9.4,0-17.9,2.1-25.4,6.3
	c-7.5,4.2-13.4,10.1-17.7,17.7c-4.3,7.6-6.4,16.1-6.4,25.5c0,9.4,2.1,17.9,6.4,25.5c4.3,7.6,10.2,13.5,17.7,17.7
	c7.5,4.2,16,6.3,25.4,6.3C950.6,273.3,959,271.2,966.5,266.9z"/>
<path d="M1168,294.2l-0.2-93.5l-46.3,77.4h-11.7l-46.3-76.2v92.3h-24.8V153.2h21.6l55.8,93.3l55.2-93.3h21.4l0.4,141.1H1168z"/>
<path d="M1317.3,261.6h-70.5l-13.9,32.6h-27l63.5-141.1h25.8l63.7,141.1h-27.4L1317.3,261.6z M1308.7,241l-26.6-61.7l-26.4,61.7
	H1308.7z"/>
<path d="M1463.4,175.3h-46.8v118.9h-26V175.3h-46.5v-22.2h119.3V175.3z"/>
<path d="M1482.3,153.2h25.8v100.2l75.8-100.2h24.4v141.1h-25.8v-100l-75.8,100h-24.4V153.2z"/>
<path d="M1691,234.8h-26.2v59.4H1639V153.2h25.8v59h27l40.5-59h27.8l-48.2,68.3l50,72.7h-29.6L1691,234.8z"/>
<path id="РњРЅРѕРіРѕСѓРіРѕР»СЊРЅРёРє_1_5_" class="st0" d="M595.8,334.2l1323.5,0.1v34l-1358.1,0.4l-21.3-82.3l-88.8,0l-23.9,81.8
	L0,367.8v-34l394.8,0.9L500.1,16.3L595.8,334.2z M525,243.5l-57.1,0.6l29.6-104.3L525,243.5z"/>
<text transform="matrix(1 0 0 1 612.8613 101.7524)" class="st1 st2 st3 st4">РћР¤РР¦РРђР›Р¬РќР«Р™ Р”РРЎРўР РР‘Р¬Р®РўРћР </text>
<text transform="matrix(1 0 0 1 616.1475 97.0195)" class="st1 st2 st5 st4">РѕС„РёС†РёР°Р»СЊРЅС‹Р№ РґРёСЃС‚СЂРёР±СЊСЋС‚РѕСЂ</text>
<g>
	<path d="M631.2,94.6c-3.6-2-6.3-4.7-8.3-8.2c-2-3.5-3-7.4-3-11.8s1-8.3,3-11.8c2-3.5,4.8-6.2,8.3-8.1s7.6-2.9,12-2.9
		c4.5,0,8.5,1,12,2.9c3.5,1.9,6.3,4.7,8.3,8.1c2,3.5,3,7.4,3,11.8s-1,8.3-3,11.8c-2,3.5-4.8,6.2-8.3,8.2c-3.5,2-7.5,3-12,3
		C638.8,97.5,634.8,96.5,631.2,94.6z M651,88.4c2.3-1.3,4.1-3.2,5.4-5.6c1.3-2.4,1.9-5.2,1.9-8.3c0-3.1-0.7-5.9-1.9-8.3
		c-1.3-2.4-3.1-4.3-5.4-5.6c-2.3-1.3-4.9-1.9-7.8-1.9c-2.9,0-5.5,0.7-7.8,1.9c-2.3,1.3-4.1,3.2-5.4,5.6c-1.3,2.4-2,5.2-2,8.3
		c0,3.1,0.7,5.9,2,8.3c1.3,2.4,3.1,4.3,5.4,5.6c2.3,1.3,4.9,2,7.8,2C646.2,90.4,648.7,89.7,651,88.4z"/>
	<path d="M728.1,90.9c-4.6,4-11.2,6.2-19.6,6.7v15.9h-8V97.6c-8.4-0.5-14.9-2.7-19.5-6.7c-4.6-4-6.9-9.5-6.9-16.5
		c0-7,2.3-12.4,6.9-16.3s11.1-6.1,19.6-6.5V34.1h8v17.5c8.4,0.5,14.9,2.6,19.6,6.6c4.6,3.9,7,9.3,7,16.2
		C735.1,81.4,732.7,86.9,728.1,90.9z M686.8,85.7c3.1,2.7,7.7,4.3,13.8,4.7V58.9c-6.2,0.4-10.8,1.9-13.8,4.6
		c-3.1,2.7-4.6,6.3-4.6,11C682.2,79.3,683.7,83,686.8,85.7z M727,74.5c0-4.7-1.6-8.4-4.7-11.1c-3.1-2.6-7.7-4.1-13.8-4.5v31.6
		C720.8,89.5,727,84.2,727,74.5z"/>
	<path d="M745.8,52.1h8.1v32.7l27.5-32.7h7.4V97h-8.1V64.3L753.3,97h-7.5V52.1z"/>
	<path d="M851,89.9v17.9h-7.7V97H803V52.1h8.1v37.8h24.6V52.1h8.1v37.8H851z"/>
	<path d="M860.6,52.1h8.1v32.7l27.5-32.7h7.4V97h-8.1V64.3L868,97h-7.5V52.1z"/>
	<path d="M948.8,56.2c3.3,3.1,5,7.6,5,13.6V97h-7.7v-5.9c-1.4,2.1-3.3,3.7-5.8,4.8c-2.5,1.1-5.5,1.7-8.9,1.7c-5,0-9.1-1.2-12.1-3.6
		c-3-2.4-4.5-5.6-4.5-9.6c0-4,1.4-7.1,4.3-9.5c2.9-2.4,7.5-3.6,13.7-3.6h12.9v-1.6c0-3.5-1-6.2-3.1-8.1c-2-1.9-5-2.8-9-2.8
		c-2.7,0-5.3,0.4-7.8,1.3c-2.5,0.9-4.7,2-6.4,3.5l-3.4-6.1c2.3-1.9,5.1-3.3,8.3-4.3c3.2-1,6.6-1.5,10.3-1.5
		C940.7,51.7,945.5,53.2,948.8,56.2z M940.7,89.2c2.3-1.4,3.9-3.3,4.9-5.9V77h-12.5c-6.9,0-10.3,2.3-10.3,7c0,2.3,0.9,4,2.6,5.3
		c1.8,1.3,4.2,1.9,7.3,1.9C935.8,91.3,938.5,90.6,940.7,89.2z"/>
	<path d="M1007.2,52.1V97H999V59.2h-19.3l-0.5,10c-0.3,6-0.8,11.1-1.6,15.1c-0.8,4-2.1,7.3-3.9,9.7c-1.8,2.4-4.3,3.6-7.5,3.6
		c-1.5,0-3.1-0.3-5-0.8l0.5-6.9c0.7,0.2,1.4,0.3,2,0.3c2.3,0,4-1,5.1-3c1.1-2,1.9-4.3,2.2-7c0.3-2.7,0.6-6.6,0.9-11.6l0.8-16.6
		H1007.2z"/>
	<path d="M1055.2,71.3c3,2.5,4.5,6.1,4.5,10.8c0,4.9-1.6,8.6-4.9,11.2c-3.2,2.6-7.9,3.9-13.9,3.9l-19.5-0.1V52.1h8.1v15.2l12.6,0.1
		C1047.9,67.4,1052.2,68.7,1055.2,71.3z M1048.5,88.7c1.9-1.5,2.8-3.8,2.8-6.8c0-2.9-0.9-5.1-2.8-6.4c-1.8-1.4-4.6-2.1-8.4-2.1
		l-10.7-0.2v17.6l10.7,0.1C1043.9,91,1046.7,90.2,1048.5,88.7z"/>
	<path d="M1069,52.1h8.1v19.1h25.6V52.1h8.1V97h-8.1V78.2h-25.6V97h-8.1V52.1z"/>
	<path d="M1158.3,71.3c3,2.5,4.5,6.1,4.5,10.8c0,4.9-1.6,8.6-4.9,11.2c-3.2,2.6-7.9,3.9-13.9,3.9L1125,97V52.1h8.1v15.2l12.1,0.1
		C1150.9,67.4,1155.3,68.7,1158.3,71.3z M1151.7,88.7c1.9-1.5,2.8-3.8,2.8-6.8c0-2.9-0.9-5.1-2.8-6.4c-1.9-1.4-4.7-2.1-8.4-2.1
		l-10.2-0.2v17.6l10.2,0.1C1147,91,1149.8,90.2,1151.7,88.7z M1169.5,52.1h8.1V97h-8.1V52.1z"/>
	<path d="M1191.8,52.1h8.1v32.7l27.5-32.7h7.4V97h-8.1V64.3L1199.3,97h-7.5V52.1z M1203.1,43.2c-2.3-2-3.5-4.9-3.6-8.7h5.5
		c0.1,2.1,0.8,3.8,2.2,5c1.4,1.3,3.2,1.9,5.6,1.9c2.3,0,4.2-0.6,5.6-1.9c1.4-1.3,2.1-3,2.2-5h5.7c-0.1,3.8-1.3,6.7-3.6,8.7
		c-2.4,2-5.6,3-9.7,3C1208.7,46.2,1205.4,45.2,1203.1,43.2z"/>
	<path d="M1321.8,89.9v17.5h-7.6V97h-37.6v10.4h-7.7V89.9h2.4c2.9-0.2,4.9-2.2,5.9-6.1c1.1-3.9,1.8-9.4,2.2-16.5l0.7-15.2h34.8v37.8
		H1321.8z M1285.5,81.9c-0.7,3.7-2,6.4-3.9,8h25.2V59.2h-19.5l-0.4,8.6C1286.7,73.5,1286.2,78.2,1285.5,81.9z"/>
	<path d="M1331.4,52.1h8.1v32.7l27.5-32.7h7.4V97h-8.1V64.3L1338.9,97h-7.5V52.1z"/>
	<path d="M1396.7,94.6c-3.6-2-6.4-4.7-8.4-8.2c-2-3.5-3.1-7.4-3.1-11.8s1-8.3,3.1-11.8c2-3.5,4.8-6.2,8.4-8.1
		c3.6-1.9,7.7-2.9,12.2-2.9c4.1,0,7.7,0.8,10.9,2.5c3.2,1.6,5.7,4,7.4,7.1l-6.2,4c-1.4-2.1-3.2-3.8-5.3-4.8c-2.1-1.1-4.4-1.6-7-1.6
		c-2.9,0-5.6,0.7-7.9,1.9c-2.3,1.3-4.2,3.2-5.5,5.6c-1.3,2.4-2,5.2-2,8.3c0,3.2,0.7,5.9,2,8.3c1.3,2.4,3.2,4.3,5.5,5.6
		c2.3,1.3,5,1.9,7.9,1.9c2.5,0,4.9-0.5,7-1.6c2.1-1.1,3.8-2.7,5.3-4.8l6.2,3.9c-1.8,3.1-4.2,5.5-7.4,7.2c-3.2,1.7-6.8,2.5-10.9,2.5
		C1404.4,97.5,1400.3,96.5,1396.7,94.6z"/>
	<path d="M1473.6,59.2h-16.4V97h-8.1V59.2h-16.4v-7.1h41V59.2z"/>
	<path d="M1517,54.6c3.4,1.9,6.1,4.6,8.1,8.1c1.9,3.4,2.9,7.4,2.9,12c0,4.5-1,8.5-2.9,12c-2,3.5-4.6,6.2-8.1,8.1
		c-3.4,1.9-7.3,2.9-11.7,2.9c-3.2,0-6.2-0.6-8.9-1.9c-2.7-1.2-5-3.1-6.8-5.4v23.2h-8.1V52.1h7.8v7.1c1.8-2.5,4.1-4.4,6.9-5.6
		c2.8-1.3,5.8-1.9,9.2-1.9C1509.7,51.7,1513.6,52.6,1517,54.6z M1512.4,88.4c2.3-1.3,4.1-3.2,5.4-5.6c1.3-2.4,2-5.2,2-8.3
		c0-3.1-0.7-5.9-2-8.3c-1.3-2.4-3.1-4.3-5.4-5.6c-2.3-1.3-4.9-1.9-7.8-1.9c-2.8,0-5.4,0.7-7.7,2c-2.3,1.3-4.1,3.2-5.4,5.6
		c-1.3,2.4-2,5.1-2,8.2c0,3.1,0.6,5.9,1.9,8.3c1.3,2.4,3.1,4.3,5.4,5.6c2.3,1.3,4.9,2,7.7,2C1507.6,90.4,1510.1,89.7,1512.4,88.4z"
		/>
	<path d="M1539.1,52.1h8.1v32.7l27.5-32.7h7.4V97h-8.1V64.3L1546.5,97h-7.5V52.1z"/>
	<path d="M1631,56.4c3.3,1.9,5.8,4.5,7.7,7.8c1.8,3.3,2.8,7.1,2.8,11.3c0,4.4-1,8.2-2.9,11.6c-2,3.4-4.7,6-8.2,7.8
		c-3.5,1.9-7.6,2.8-12.1,2.8c-7.6,0-13.5-2.6-17.7-7.8c-4.2-5.2-6.2-12.6-6.2-22.1c0-9.2,1.9-16.4,5.7-21.7
		c3.8-5.2,9.6-8.7,17.4-10.4l20.5-4.6l1.2,7.5l-18.9,4.1c-5.9,1.3-10.3,3.5-13.1,6.6c-2.9,3.1-4.5,7.6-4.9,13.4
		c1.9-2.9,4.4-5.1,7.5-6.7c3.1-1.6,6.5-2.4,10.3-2.4C1624,53.6,1627.7,54.6,1631,56.4z M1626.1,89c2.2-1.3,4-3.1,5.2-5.4
		s1.9-4.9,1.9-7.8c0-4.5-1.4-8.1-4.1-10.8c-2.7-2.7-6.3-4.1-10.7-4.1c-4.4,0-8,1.4-10.7,4.1c-2.7,2.7-4.1,6.3-4.1,10.8
		c0,2.9,0.6,5.6,1.9,7.8s3,4.1,5.3,5.4c2.3,1.3,4.8,1.9,7.6,1.9C1621.3,90.9,1623.8,90.3,1626.1,89z"/>
	<path d="M1686,71.3c3,2.5,4.5,6.1,4.5,10.8c0,4.9-1.6,8.6-4.9,11.2c-3.2,2.6-7.9,3.9-13.9,3.9l-19.5-0.1V52.1h8.1v15.2l12.6,0.1
		C1678.7,67.4,1683,68.7,1686,71.3z M1679.4,88.7c1.9-1.5,2.8-3.8,2.8-6.8c0-2.9-0.9-5.1-2.8-6.4c-1.8-1.4-4.6-2.1-8.4-2.1
		l-10.7-0.2v17.6l10.7,0.1C1674.7,91,1677.5,90.2,1679.4,88.7z"/>
	<path d="M1751.3,54.6c3.4,1.9,6.2,4.7,8.1,8.1c2,3.5,3,7.4,3,11.8s-1,8.3-3,11.8c-2,3.5-4.7,6.2-8.1,8.2c-3.4,2-7.3,3-11.7,3
		c-4,0-7.5-0.8-10.8-2.5c-3.2-1.6-5.9-3.9-7.9-6.9c-2.1-3-3.3-6.3-3.9-10.1h-9.1v19h-8.1V52.1h8.1v18.4h9.2c0.6-3.7,1.9-7,3.9-9.9
		c2.1-2.9,4.7-5.1,7.9-6.6c3.2-1.6,6.7-2.3,10.6-2.3C1743.9,51.7,1747.8,52.6,1751.3,54.6z M1747.1,88.5c2.2-1.3,4-3.1,5.3-5.6
		c1.3-2.4,1.9-5.2,1.9-8.3c0-3.1-0.7-5.9-1.9-8.3c-1.3-2.4-3.1-4.3-5.3-5.6c-2.2-1.3-4.7-1.9-7.5-1.9c-2.8,0-5.3,0.7-7.5,1.9
		c-2.3,1.3-4,3.2-5.3,5.6c-1.3,2.4-1.9,5.2-1.9,8.3c0,3.2,0.6,5.9,1.9,8.3c1.3,2.4,3,4.3,5.3,5.6c2.3,1.3,4.8,1.9,7.5,1.9
		C1742.3,90.4,1744.8,89.8,1747.1,88.5z"/>
	<path d="M1807,59.2h-16.4V97h-8.1V59.2H1766v-7.1h41V59.2z"/>
	<path d="M1822,94.6c-3.6-2-6.3-4.7-8.3-8.2c-2-3.5-3-7.4-3-11.8s1-8.3,3-11.8c2-3.5,4.8-6.2,8.3-8.1c3.6-1.9,7.6-2.9,12-2.9
		s8.5,1,12,2.9c3.5,1.9,6.3,4.7,8.3,8.1c2,3.5,3,7.4,3,11.8s-1,8.3-3,11.8c-2,3.5-4.8,6.2-8.3,8.2c-3.5,2-7.5,3-12,3
		S1825.6,96.5,1822,94.6z M1841.8,88.4c2.3-1.3,4.1-3.2,5.4-5.6c1.3-2.4,1.9-5.2,1.9-8.3c0-3.1-0.6-5.9-1.9-8.3
		c-1.3-2.4-3.1-4.3-5.4-5.6c-2.3-1.3-4.9-1.9-7.8-1.9c-2.9,0-5.5,0.7-7.8,1.9c-2.3,1.3-4.1,3.2-5.4,5.6c-1.3,2.4-2,5.2-2,8.3
		c0,3.1,0.7,5.9,2,8.3c1.3,2.4,3.1,4.3,5.4,5.6c2.3,1.3,4.9,2,7.8,2C1836.9,90.4,1839.5,89.7,1841.8,88.4z"/>
	<path d="M1903.7,54.6c3.4,1.9,6.1,4.6,8.1,8.1c1.9,3.4,2.9,7.4,2.9,12c0,4.5-1,8.5-2.9,12c-2,3.5-4.6,6.2-8.1,8.1
		c-3.4,1.9-7.3,2.9-11.7,2.9c-3.2,0-6.2-0.6-8.9-1.9c-2.7-1.2-5-3.1-6.8-5.4v23.2h-8.1V52.1h7.8v7.1c1.8-2.5,4.1-4.4,6.9-5.6
		c2.8-1.3,5.8-1.9,9.2-1.9C1896.4,51.7,1900.3,52.6,1903.7,54.6z M1899.1,88.4c2.3-1.3,4.1-3.2,5.4-5.6c1.3-2.4,2-5.2,2-8.3
		c0-3.1-0.7-5.9-2-8.3c-1.3-2.4-3.1-4.3-5.4-5.6c-2.3-1.3-4.9-1.9-7.8-1.9c-2.8,0-5.4,0.7-7.7,2c-2.3,1.3-4.1,3.2-5.4,5.6
		c-1.3,2.4-2,5.1-2,8.2c0,3.1,0.6,5.9,1.9,8.3c1.3,2.4,3.1,4.3,5.4,5.6c2.3,1.3,4.9,2,7.7,2C1894.2,90.4,1896.8,89.7,1899.1,88.4z"
		/>
</g>
</svg>
