<?xml version="1.0" encoding="UTF-8"?>
<!-- Generator: Adobe Illustrator 25.2.3, SVG Export Plug-In . SVG Version: 6.00 Build 0)  -->
<svg version="1.1" id="РЎР»РѕР№_1" xmlns="http://www.w3.org/2000/svg" xmlns:xlink="http://www.w3.org/1999/xlink" x="0px" y="0px" viewBox="0 0 1920 385" style="enable-background:new 0 0 1920 385;" xml:space="preserve">
<style type="text/css">
	.st0{fill-rule:evenodd;clip-rule:evenodd;fill:#00AD61;}
</style>
<path d="M90.4,159.2c9.1,4,16,9.8,20.9,17.3c4.8,7.5,7.3,16.5,7.3,26.8c0,10.2-2.4,19.1-7.3,26.7c-4.8,7.6-11.8,13.4-20.9,17.4  s-19.7,6-31.9,6H26.7v40.7H0.5V153.2h58C70.7,153.2,81.4,155.2,90.4,159.2z M83.3,224.1c5.9-4.8,8.9-11.8,8.9-20.8  c0-9-3-15.9-8.9-20.8c-5.9-4.8-14.6-7.3-26-7.3H26.7v56h30.6C68.7,231.4,77.4,228.9,83.3,224.1z"/>
<path d="M1878.5,261.6H1808l-13.9,32.6h-27l63.5-141.1h25.8l63.7,141.1h-27.4L1878.5,261.6z M1869.8,241l-26.6-61.7l-26.4,61.7  H1869.8z"/>
<path d="M257.7,153.2L196.5,267c-5.4,10.1-11.8,17.6-19.2,22.7c-7.5,5-15.6,7.6-24.3,7.6c-7,0-13.9-1.5-20.8-4.4l6.4-20.6  c5.5,1.7,10.1,2.6,13.7,2.6c8.5,0,15.4-4.4,21-13.1l2.2-3.4l-56.2-105.2h28L189,236l42.9-82.8H257.7z"/>
<path d="M291.2,286.9c-11.5-6.2-20.5-14.9-27-25.9c-6.5-11-9.8-23.4-9.8-37.3c0-13.8,3.3-26.3,9.9-37.3c6.6-11,15.6-19.6,27.1-25.9  c11.5-6.2,24.3-9.4,38.6-9.4c11.6,0,22.1,2,31.6,6c9.5,4,17.6,9.9,24.2,17.5l-16.9,15.9c-10.2-11-22.8-16.5-37.7-16.5  c-9.7,0-18.3,2.1-26,6.3c-7.7,4.2-13.6,10.1-17.9,17.6c-4.3,7.5-6.4,16.1-6.4,25.6c0,9.5,2.1,18.1,6.4,25.6  c4.3,7.5,10.3,13.4,17.9,17.6c7.7,4.2,16.3,6.3,26,6.3c14.9,0,27.5-5.6,37.7-16.7l16.9,16.1c-6.6,7.7-14.7,13.5-24.3,17.5  c-9.6,4-20.2,6-31.7,6C315.6,296.2,302.7,293.1,291.2,286.9z"/>
<path d="M729.6,233.3c4.7,5.8,7.1,13.1,7.1,21.9c0,12.4-4.6,22-13.7,28.8c-9.1,6.9-22.4,10.3-39.7,10.3h-66.9V153.2h63.1  c15.9,0,28.2,3.2,37.1,9.5c8.9,6.3,13.3,15.2,13.3,26.8c0,7.4-1.8,13.8-5.3,19.1c-3.6,5.4-8.7,9.5-15.4,12.3  C718.1,223.3,724.9,227.4,729.6,233.3z M642.2,213.4h35.1c8.5,0,14.9-1.7,19.3-5c4.4-3.4,6.7-8.3,6.7-14.9c0-6.6-2.2-11.6-6.7-15  c-4.4-3.4-10.9-5.1-19.3-5.1h-35.1V213.4z M710.3,253.1c0-13.7-9.3-20.6-27.8-20.6h-40.3v41.5h40.3  C701,274.1,710.3,267.1,710.3,253.1z"/>
<path d="M862.9,175.3h-46.8v118.9h-26V175.3h-46.5v-22.2h119.3V175.3z"/>
<path d="M902.3,286.9c-11.6-6.2-20.6-14.9-27.2-26c-6.6-11.1-9.9-23.5-9.9-37.2c0-13.7,3.3-26.1,9.9-37.2  c6.6-11.1,15.6-19.7,27.2-26c11.6-6.2,24.5-9.4,38.9-9.4c14.4,0,27.3,3.1,38.9,9.4c11.6,6.2,20.6,14.9,27.2,25.9  c6.6,11,9.9,23.4,9.9,37.3c0,13.8-3.3,26.3-9.9,37.3c-6.6,11-15.7,19.6-27.2,25.9c-11.6,6.2-24.5,9.4-38.9,9.4  C926.8,296.2,913.8,293.1,902.3,286.9z M966.5,266.9c7.5-4.2,13.4-10.1,17.7-17.7c4.3-7.6,6.4-16.1,6.4-25.5  c0-9.4-2.2-17.9-6.4-25.5c-4.3-7.6-10.2-13.5-17.7-17.7c-7.5-4.2-16-6.3-25.4-6.3c-9.4,0-17.9,2.1-25.4,6.3  c-7.5,4.2-13.4,10.1-17.7,17.7c-4.3,7.6-6.4,16.1-6.4,25.5c0,9.4,2.1,17.9,6.4,25.5c4.3,7.6,10.2,13.5,17.7,17.7  c7.5,4.2,16,6.3,25.4,6.3C950.6,273.3,959,271.2,966.5,266.9z"/>
<path d="M1168,294.2l-0.2-93.5l-46.3,77.4h-11.7l-46.3-76.2v92.3h-24.8V153.2h21.6l55.8,93.3l55.2-93.3h21.4l0.4,141.1H1168z"/>
<path d="M1317.3,261.6h-70.5l-13.9,32.6h-27l63.5-141.1h25.8l63.7,141.1h-27.4L1317.3,261.6z M1308.7,241l-26.6-61.7l-26.4,61.7  H1308.7z"/>
<path d="M1463.4,175.3h-46.8v118.9h-26V175.3h-46.5v-22.2h119.3V175.3z"/>
<path d="M1482.3,153.2h25.8v100.2l75.8-100.2h24.4v141.1h-25.8v-100l-75.8,100h-24.4V153.2z"/>
<path d="M1691,234.8h-26.2v59.4H1639V153.2h25.8v59h27l40.5-59h27.8l-48.2,68.3l50,72.7h-29.6L1691,234.8z"/>
<path id="РњРЅРѕРіРѕСѓРіРѕР»СЊРЅРёРє_1_5_" class="st0" d="M595.8,334.2l1323.5,0.1v34l-1358.1,0.4l-21.3-82.3l-88.8,0l-23.9,81.8  L0,367.8v-34l394.8,0.9L500.1,16.3L595.8,334.2z M525,243.5l-57.1,0.6l29.6-104.3L525,243.5z"/>
</svg>