<?xml version="1.0" encoding="utf-8"?>
<!-- Generator: Adobe Illustrator 25.2.3, SVG Export Plug-In . SVG Version: 6.00 Build 0)  -->
<svg version="1.1" id="Слой_1" xmlns="http://www.w3.org/2000/svg" xmlns:xlink="http://www.w3.org/1999/xlink" x="0px" y="0px"
	 viewBox="0 0 100 100" style="enable-background:new 0 0 100 100;" xml:space="preserve">
<style type="text/css">
	.st0{fill:none;}
	.st1{display:none;}
	.st2{display:inline;fill:#00AD61;}
	.st3{display:inline;}
	.st4{fill:#00AD61;}
</style>
<image style="display:none;overflow:visible;" width="64" height="64" xlink:href="../../../../../download/icons8-support-64.png"  transform="matrix(1.5625 0 0 1.5625 0 0)">
</image>
<polygon class="st0" points="100,0 100,80 3,80 3,100 0,100 0,0 "/>
<g class="st1">
	<path class="st2" d="M99.7,51c-0.1-0.3-0.3-0.7-0.5-1L88.1,32.4c-0.9-1.5-2.6-2.4-4.4-2.4H73h-4h-7v-9.1c0-2.7-2.2-4.9-4.9-4.9H4.9
		C2.2,16,0,18.2,0,20.9v54.1C0,77.8,2.2,80,4.9,80h9.2c1,5.7,5.9,10,11.8,10s10.9-4.3,11.8-10H55h1h12.2c1,5.7,5.9,10,11.8,10
		s10.9-4.3,11.8-10h3.2c2.7,0,4.9-2.2,4.9-4.9V68V56v-1v-3C100,51.7,99.9,51.3,99.7,51z M80.9,34c1.6,0,3.2,0.8,4,2.1L95.3,51H76.4
		c-1.9,0-3.4-1.5-3.4-3.4V34H80.9z M26,86c-3.7,0-6.9-2.5-7.8-6c-0.2-0.6-0.2-1.3-0.2-2s0.1-1.4,0.2-2c0.5-2.2,2-4,3.9-5
		c1.2-0.6,2.5-1,3.9-1s2.7,0.4,3.9,1c1.9,1,3.3,2.8,3.9,5c0.2,0.6,0.2,1.3,0.2,2s-0.1,1.4-0.2,2C32.9,83.5,29.7,86,26,86z M55,76
		H37.8c-0.3-1.9-1-3.5-2.1-5c-0.8-1.2-1.9-2.2-3.1-3c-1.9-1.3-4.2-2-6.6-2s-4.7,0.7-6.6,2c-1.2,0.8-2.3,1.8-3.1,3
		c-1,1.5-1.8,3.1-2.1,5H7.4C5.5,76,4,74.5,4,72.6V23.4C4,21.5,5.5,20,7.4,20h47.2c1.9,0,3.4,1.5,3.4,3.4V34v2v40h-2H55z M80,86
		c-3.7,0-6.9-2.5-7.8-6c-0.2-0.6-0.2-1.3-0.2-2s0.1-1.4,0.2-2c0.2-0.7,0.5-1.4,0.8-2c0.7-1.2,1.8-2.3,3-3c1.2-0.6,2.5-1,3.9-1
		s2.7,0.4,3.9,1c1.3,0.7,2.3,1.8,3,3c0.4,0.6,0.6,1.3,0.8,2c0.2,0.6,0.2,1.3,0.2,2s-0.1,1.4-0.2,2C86.9,83.5,83.7,86,80,86z M96,56
		v12v4.6c0,1.9-1.5,3.4-3.4,3.4h-0.8c-0.1-0.7-0.3-1.4-0.5-2c-0.4-1.1-0.9-2.1-1.6-3c-0.8-1.2-1.9-2.2-3.1-3c-1.9-1.3-4.2-2-6.6-2
		s-4.7,0.7-6.6,2c-0.1,0.1-0.2,0.2-0.4,0.2c-1.1,0.8-2,1.7-2.7,2.8c-1,1.5-1.8,3.1-2.1,5H62V36v-2h7v16.1c0,2.7,2.2,4.9,4.9,4.9H96
		V56z"/>
	<path class="st2" d="M52,40H24c-1.1,0-2-0.9-2-2v0c0-1.1,0.9-2,2-2h28c1.1,0,2,0.9,2,2v0C54,39.1,53.1,40,52,40z"/>
	<path class="st2" d="M45,47H17c-1.1,0-2-0.9-2-2v0c0-1.1,0.9-2,2-2h28c1.1,0,2,0.9,2,2v0C47,46.1,46.1,47,45,47z"/>
	<path class="st2" d="M38,54H10c-1.1,0-2-0.9-2-2v0c0-1.1,0.9-2,2-2h28c1.1,0,2,0.9,2,2v0C40,53.1,39.1,54,38,54z"/>
</g>
<g class="st1">
	<path class="st2" d="M93.2,3H6.8C4.7,3,3,4.7,3,6.8v66.4C3,75.3,4.7,77,6.8,77h86.4c2.1,0,3.8-1.7,3.8-3.8V6.8
		C97,4.7,95.3,3,93.2,3z M93,69.9c0,1.7-1.4,3.1-3.1,3.1H10.1C8.4,73,7,71.6,7,69.9V10.1C7,8.4,8.4,7,10.1,7h79.9
		c1.7,0,3.1,1.4,3.1,3.1V69.9z"/>
	<g class="st3">
		<rect x="42" y="74" class="st4" width="4" height="22"/>
		<rect x="54" y="74" class="st4" width="4" height="22"/>
	</g>
	<path class="st2" d="M62,97H38c-1.1,0-2-0.9-2-2l0,0c0-1.1,0.9-2,2-2h24c1.1,0,2,0.9,2,2l0,0C64,96.1,63.1,97,62,97z"/>
	<g class="st3">
		<rect x="32" y="64" class="st4" width="4" height="4"/>
		<rect x="40" y="64" class="st4" width="4" height="4"/>
		<rect x="48" y="64" class="st4" width="4" height="4"/>
		<rect x="56" y="64" class="st4" width="4" height="4"/>
		<rect x="64" y="64" class="st4" width="4" height="4"/>
	</g>
	<path class="st2" d="M50,29c-6.1,0-11,4.9-11,11c0,3.4,1.5,6.4,3.9,8.4l2.5-3.1C43.9,44,43,42.1,43,40c0-3.9,3.1-7,7-7s7,3.1,7,7
		c0,2.1-0.9,4-2.4,5.3l2.5,3.1c2.4-2,3.9-5,3.9-8.4C61,33.9,56.1,29,50,29z"/>
	<path class="st2" d="M50,21c-10.5,0-19,8.5-19,19c0,5.9,2.7,11.2,6.9,14.7l2.5-3.1C37.1,48.8,35,44.6,35,40c0-8.3,6.7-15,15-15
		s15,6.7,15,15c0,4.6-2.1,8.8-5.4,11.5l2.5,3.1C66.3,51.2,69,45.9,69,40C69,29.5,60.5,21,50,21z"/>
	<path class="st2" d="M50,13c-14.9,0-27,12.1-27,27c0,8.5,3.9,16,10,20.9l2.5-3.1C30.3,53.6,27,47.2,27,40c0-12.7,10.3-23,23-23
		s23,10.3,23,23c0,7.2-3.3,13.6-8.5,17.8l2.5,3.1C73.1,56,77,48.5,77,40C77,25.1,64.9,13,50,13z"/>
	<path class="st2" d="M50,29c-6.1,0-11,4.9-11,11c0,3.4,1.5,6.4,3.9,8.4l2.5-3.1C43.9,44,43,42.1,43,40c0-3.9,3.1-7,7-7s7,3.1,7,7
		c0,2.1-0.9,4-2.4,5.3l2.5,3.1c2.4-2,3.9-5,3.9-8.4C61,33.9,56.1,29,50,29z"/>
	<path class="st2" d="M50,21c-10.5,0-19,8.5-19,19c0,5.9,2.7,11.2,6.9,14.7l2.5-3.1C37.1,48.8,35,44.6,35,40c0-8.3,6.7-15,15-15
		s15,6.7,15,15c0,4.6-2.1,8.8-5.4,11.5l2.5,3.1C66.3,51.2,69,45.9,69,40C69,29.5,60.5,21,50,21z"/>
	<path class="st2" d="M50,29c-6.1,0-11,4.9-11,11c0,3.4,1.5,6.4,3.9,8.4l2.5-3.1C43.9,44,43,42.1,43,40c0-3.9,3.1-7,7-7s7,3.1,7,7
		c0,2.1-0.9,4-2.4,5.3l2.5,3.1c2.4-2,3.9-5,3.9-8.4C61,33.9,56.1,29,50,29z"/>
</g>
<g>
	<path class="st4" d="M69.8,14.2C64.7,9.1,57.7,6,50,6C34.5,6,22,18.5,22,34v7h4v-7c0-13.2,10.8-24,24-24c6.6,0,12.6,2.7,17,7
		c4.3,4.4,7,10.4,7,17v7h4v-7C78,26.3,74.9,19.3,69.8,14.2z"/>
	<path class="st4" d="M27,44v21h-5.8c-2.9,0-5.2-2.3-5.2-5.2V49.2c0-2.9,2.3-5.2,5.2-5.2H27z"/>
	<path class="st4" d="M73,44v21h5.8c2.9,0,5.2-2.3,5.2-5.2V49.2c0-2.9-2.3-5.2-5.2-5.2H73z"/>
	<circle class="st4" cx="49" cy="83" r="6"/>
	<path class="st4" d="M73.6,73C71,77.4,65,80.6,58,81v4c9.5-0.5,17.3-5.4,20-12H73.6z"/>
</g>
<g class="st1">
	<path class="st2" d="M92.3,27.1L51.6,4.2c-1-0.6-2.2-0.6-3.3,0L7.7,27.1C6.7,27.7,6,28.8,6,30v40h4V32.8c0-1.2,0.7-2.3,1.7-2.9
		l36.7-20c1-0.5,2.2-0.5,3.2,0l36.7,20c1.1,0.6,1.7,1.7,1.7,2.9V70h4V30C94,28.8,93.3,27.7,92.3,27.1z"/>
	<path class="st2" d="M75.8,36H24.2c-2.3,0-4.2,1.9-4.2,4.2V80h4V44.2c0-2.3,1.9-4.2,4.2-4.2h43.7c2.3,0,4.2,1.9,4.2,4.2V80h4V40.2
		C80,37.9,78.1,36,75.8,36z"/>
	<path class="st2" d="M55.5,84h-11c-1.1,0-2-0.9-2-2l0,0c0-1.1,0.9-2,2-2h11c1.1,0,2,0.9,2,2l0,0C57.5,83.1,56.6,84,55.5,84z"/>
	<rect x="76" y="73" class="st2" width="4" height="15"/>
	<rect x="20" y="74" class="st2" width="4" height="15"/>
	<path class="st2" d="M90,55v30.8c0,0.6-0.5,1.2-1.2,1.2H11.2c-0.6,0-1.2-0.5-1.2-1.2V55H6v31.9c0,2.2,1.8,4.1,4.1,4.1h79.9
		c2.2,0,4.1-1.8,4.1-4.1V55H90z"/>
</g>
</svg>
