<?xml version="1.0" encoding="utf-8"?>
<!-- Generator: Adobe Illustrator 25.2.3, SVG Export Plug-In . SVG Version: 6.00 Build 0)  -->
<svg version="1.1" id="РЎР»РѕР№_1" xmlns="http://www.w3.org/2000/svg" xmlns:xlink="http://www.w3.org/1999/xlink" x="0px" y="0px"
	 viewBox="0 0 11.8 10" style="enable-background:new 0 0 11.8 10;" xml:space="preserve">
<style type="text/css">
	.st0{fill:none;}
	.st1{display:none;fill:#99DEC0;}
	.st2{display:none;}
	.st3{display:inline;fill:#99DEC0;}
	.st4{fill:#99DEC0;}
</style>
<path class="st0" d="M-5.7-6.8h24v24h-24V-6.8z"/>
<path class="st1" d="M8.2,6.3H7.8L7.6,6.1c0.6-0.7,0.9-1.5,0.9-2.4C8.5,1.6,6.9,0,4.8,0S1.1,1.6,1.1,3.7s1.7,3.7,3.7,3.7
	c0.9,0,1.8-0.3,2.4-0.9l0.2,0.2v0.5l2.9,2.9l0.9-0.9L8.2,6.3z M4.8,6.3c-1.4,0-2.6-1.1-2.6-2.6s1.1-2.6,2.6-2.6s2.6,1.1,2.6,2.6
	S6.2,6.3,4.8,6.3z"/>
<g class="st2">
	<path class="st3" d="M3.2,2.5V10H1V2.5c0-0.3,0.2-0.6,0.5-0.6h1.2C3,1.9,3.2,2.1,3.2,2.5z"/>
	<path class="st3" d="M10.7,0.6V10H8.5V0.6C8.5,0.3,8.7,0,9,0h1.2C10.5,0,10.7,0.3,10.7,0.6z"/>
	<path class="st3" d="M7,4.3V10H4.7V4.3c0-0.3,0.2-0.6,0.5-0.6h1.2C6.7,3.7,7,3.9,7,4.3z"/>
</g>
<path class="st1" d="M8.1,7.2c0.4,0,0.7,0.1,1,0.4c0.3,0.3,0.4,0.6,0.4,1c0,0.4-0.1,0.7-0.4,1S8.5,10,8.1,10c-0.4,0-0.7-0.1-1-0.4
	c-0.3-0.3-0.4-0.6-0.4-1c0-0.4,0.1-0.7,0.4-1C7.4,7.3,7.7,7.2,8.1,7.2z M8.1,8.1C8,8.1,7.8,8.1,7.7,8.2C7.6,8.3,7.6,8.4,7.6,8.6
	c0,0.1,0.1,0.3,0.2,0.4C7.8,9,8,9.1,8.1,9.1S8.4,9,8.5,8.9c0.1-0.1,0.2-0.2,0.2-0.4c0-0.1-0.1-0.3-0.2-0.4C8.4,8.1,8.2,8.1,8.1,8.1z
	 M2.8,7.2c0.4,0,0.7,0.1,1,0.4c0.3,0.3,0.4,0.6,0.4,1c0,0.4-0.1,0.7-0.4,1S3.2,10,2.8,10s-0.7-0.1-1-0.4s-0.4-0.6-0.4-1
	c0-0.4,0.1-0.7,0.4-1C2.1,7.3,2.5,7.2,2.8,7.2z M2.8,8.1c-0.1,0-0.3,0.1-0.4,0.2C2.4,8.3,2.3,8.4,2.3,8.6c0,0.1,0.1,0.3,0.2,0.4
	C2.6,9,2.7,9.1,2.8,9.1C3,9.1,3.1,9,3.2,8.9c0.1-0.1,0.2-0.2,0.2-0.4c0-0.1-0.1-0.3-0.2-0.4S3,8.1,2.8,8.1z M3,2L4,5.7l4.2-0.8
	c0.3-0.1,0.6-0.2,0.9-0.5c0.2-0.3,0.3-0.6,0.3-0.9V2H3z M2.7,1.1h7.6v2.4c0,0.5-0.2,1.1-0.5,1.5C9.4,5.4,8.9,5.7,8.4,5.8l-5,0.9
	L1.5,0.2L2.4,0L2.7,1.1z"/>
<path class="st1" d="M11.1,3.8L7.4,3.5L5.9,0L4.4,3.5L0.6,3.8l2.9,2.5L2.6,10l3.2-2l3.2,2L8.3,6.3L11.1,3.8z M5.9,7l-2,1.2L4.4,6
	L2.7,4.5L5,4.3l0.9-2.1l0.9,2.1l2.3,0.2L7.3,6l0.5,2.2L5.9,7z"/>
<path class="st1" d="M5.9,3.4c1.8,0,3.4,1,4.2,2.6C9.3,7.6,7.7,8.6,5.9,8.6S2.5,7.6,1.7,6C2.5,4.4,4.1,3.4,5.9,3.4 M5.9,2.4
	C3.5,2.4,1.5,3.9,0.6,6c0.8,2.1,2.9,3.6,5.2,3.6s4.4-1.5,5.2-3.6C10.3,3.9,8.3,2.4,5.9,2.4z M5.9,4.8c0.7,0,1.2,0.5,1.2,1.2
	S6.5,7.2,5.9,7.2S4.7,6.6,4.7,6S5.2,4.8,5.9,4.8 M5.9,3.8c-1.2,0-2.1,1-2.1,2.1s1,2.1,2.1,2.1S8,7.2,8,6S7.1,3.8,5.9,3.8z"/>
<path class="st1" d="M5.9,8l3.2,2L8.3,6.3l2.9-2.5L7.4,3.5L5.9,0L4.4,3.5L0.7,3.8l2.9,2.5L2.6,9.9L5.9,8z"/>
<g class="st2">
	<polygon class="st3" points="5.9,0 1.8,2.1 5.9,4.3 9.9,2.1 	"/>
	<polygon class="st3" points="1.4,2.5 5.7,4.6 5.7,9.9 1.4,7.7 	"/>
	<polygon class="st3" points="10.3,2.5 6,4.6 6,9.9 10.3,7.7 	"/>
</g>
<path class="st1" d="M5.9,2.3c-2.4,0-4.4,1.5-5.2,3.6c0.8,2.1,2.9,3.6,5.2,3.6s4.4-1.5,5.2-3.6C10.3,3.7,8.3,2.3,5.9,2.3z M5.9,8.2
	c-1.3,0-2.4-1.1-2.4-2.4s1.1-2.4,2.4-2.4s2.4,1.1,2.4,2.4S7.2,8.2,5.9,8.2z M5.9,4.4C5.1,4.4,4.4,5,4.4,5.8s0.6,1.4,1.4,1.4
	s1.4-0.6,1.4-1.4S6.7,4.4,5.9,4.4z"/>
<path class="st1" d="M9.2,0.9C9.2,0.3,8.9,0,8.3,0C6.7,0,5.1,0,3.5,0C2.9,0,2.6,0.3,2.6,0.9v9C3.7,9,4.8,8,5.9,7C7,8,8.1,9,9.2,9.9
	V9.8C9.2,6.8,9.2,3.9,9.2,0.9z"/>
<g>
	<path class="st4" d="M3.2,2.4v7.2H1V2.4C1,2,1.2,1.8,1.5,1.8h1.2C3,1.8,3.2,2,3.2,2.4z"/>
	<path class="st4" d="M10.7,0.6v8.9H8.5V0.6C8.5,0.3,8.7,0,9,0h1.2C10.5,0,10.7,0.3,10.7,0.6z"/>
	<path class="st4" d="M7,4.1v5.4H4.7V4.1c0-0.3,0.2-0.6,0.5-0.6h1.2C6.7,3.5,7,3.8,7,4.1z"/>
</g>
</svg>
