<?xml version="1.0" encoding="utf-8"?>
<!-- Generator: Adobe Illustrator 25.2.3, SVG Export Plug-In . SVG Version: 6.00 Build 0)  -->
<svg version="1.1" id="РЎР»РѕР№_1" xmlns="http://www.w3.org/2000/svg" xmlns:xlink="http://www.w3.org/1999/xlink" x="0px" y="0px"
	 viewBox="0 0 1920 385" style="enable-background:new 0 0 1920 385;" xml:space="preserve">
<style type="text/css">
	.st0{fill-rule:evenodd;clip-rule:evenodd;fill:#00AD61;}
	.st1{display:none;}
	.st2{font-family:'Montserrat-Medium';}
	.st3{font-size:72px;}
	.st4{letter-spacing:1;}
	.st5{font-size:84.7637px;}
	.st6{display:inline;}
	.st7{font-family:'Montserrat-Light';}
</style>
<path d="M90.4,159.2c9.1,4,16,9.8,20.9,17.3c4.8,7.5,7.3,16.5,7.3,26.8c0,10.2-2.4,19.1-7.3,26.7c-4.8,7.6-11.8,13.4-20.9,17.4
	s-19.7,6-31.9,6H26.7v40.7H0.5V153.2h58C70.7,153.2,81.4,155.2,90.4,159.2z M83.3,224.1c5.9-4.8,8.9-11.8,8.9-20.8
	c0-9-3-15.9-8.9-20.8c-5.9-4.8-14.6-7.3-26-7.3H26.7v56h30.6C68.7,231.4,77.4,228.9,83.3,224.1z"/>
<path d="M1878.5,261.6H1808l-13.9,32.6h-27l63.5-141.1h25.8l63.7,141.1h-27.4L1878.5,261.6z M1869.8,241l-26.6-61.7l-26.4,61.7
	H1869.8z"/>
<path d="M257.7,153.2L196.5,267c-5.4,10.1-11.8,17.6-19.2,22.7c-7.5,5-15.6,7.6-24.3,7.6c-7,0-13.9-1.5-20.8-4.4l6.4-20.6
	c5.5,1.7,10.1,2.6,13.7,2.6c8.5,0,15.4-4.4,21-13.1l2.2-3.4l-56.2-105.2h28L189,236l42.9-82.8H257.7z"/>
<path d="M291.2,286.9c-11.5-6.2-20.5-14.9-27-25.9c-6.5-11-9.8-23.4-9.8-37.3c0-13.8,3.3-26.3,9.9-37.3c6.6-11,15.6-19.6,27.1-25.9
	c11.5-6.2,24.3-9.4,38.6-9.4c11.6,0,22.1,2,31.6,6c9.5,4,17.6,9.9,24.2,17.5l-16.9,15.9c-10.2-11-22.8-16.5-37.7-16.5
	c-9.7,0-18.3,2.1-26,6.3c-7.7,4.2-13.6,10.1-17.9,17.6c-4.3,7.5-6.4,16.1-6.4,25.6c0,9.5,2.1,18.1,6.4,25.6
	c4.3,7.5,10.3,13.4,17.9,17.6c7.7,4.2,16.3,6.3,26,6.3c14.9,0,27.5-5.6,37.7-16.7l16.9,16.1c-6.6,7.7-14.7,13.5-24.3,17.5
	c-9.6,4-20.2,6-31.7,6C315.6,296.2,302.7,293.1,291.2,286.9z"/>
<path d="M729.6,233.3c4.7,5.8,7.1,13.1,7.1,21.9c0,12.4-4.6,22-13.7,28.8c-9.1,6.9-22.4,10.3-39.7,10.3h-66.9V153.2h63.1
	c15.9,0,28.2,3.2,37.1,9.5c8.9,6.3,13.3,15.2,13.3,26.8c0,7.4-1.8,13.8-5.3,19.1c-3.6,5.4-8.7,9.5-15.4,12.3
	C718.1,223.3,724.9,227.4,729.6,233.3z M642.2,213.4h35.1c8.5,0,14.9-1.7,19.3-5c4.4-3.4,6.7-8.3,6.7-14.9c0-6.6-2.2-11.6-6.7-15
	c-4.4-3.4-10.9-5.1-19.3-5.1h-35.1V213.4z M710.3,253.1c0-13.7-9.3-20.6-27.8-20.6h-40.3v41.5h40.3
	C701,274.1,710.3,267.1,710.3,253.1z"/>
<path d="M862.9,175.3h-46.8v118.9h-26V175.3h-46.5v-22.2h119.3V175.3z"/>
<path d="M902.3,286.9c-11.6-6.2-20.6-14.9-27.2-26c-6.6-11.1-9.9-23.5-9.9-37.2c0-13.7,3.3-26.1,9.9-37.2
	c6.6-11.1,15.6-19.7,27.2-26c11.6-6.2,24.5-9.4,38.9-9.4c14.4,0,27.3,3.1,38.9,9.4c11.6,6.2,20.6,14.9,27.2,25.9
	c6.6,11,9.9,23.4,9.9,37.3c0,13.8-3.3,26.3-9.9,37.3c-6.6,11-15.7,19.6-27.2,25.9c-11.6,6.2-24.5,9.4-38.9,9.4
	C926.8,296.2,913.8,293.1,902.3,286.9z M966.5,266.9c7.5-4.2,13.4-10.1,17.7-17.7c4.3-7.6,6.4-16.1,6.4-25.5
	c0-9.4-2.2-17.9-6.4-25.5c-4.3-7.6-10.2-13.5-17.7-17.7c-7.5-4.2-16-6.3-25.4-6.3c-9.4,0-17.9,2.1-25.4,6.3
	c-7.5,4.2-13.4,10.1-17.7,17.7c-4.3,7.6-6.4,16.1-6.4,25.5c0,9.4,2.1,17.9,6.4,25.5c4.3,7.6,10.2,13.5,17.7,17.7
	c7.5,4.2,16,6.3,25.4,6.3C950.6,273.3,959,271.2,966.5,266.9z"/>
<path d="M1168,294.2l-0.2-93.5l-46.3,77.4h-11.7l-46.3-76.2v92.3h-24.8V153.2h21.6l55.8,93.3l55.2-93.3h21.4l0.4,141.1H1168z"/>
<path d="M1317.3,261.6h-70.5l-13.9,32.6h-27l63.5-141.1h25.8l63.7,141.1h-27.4L1317.3,261.6z M1308.7,241l-26.6-61.7l-26.4,61.7
	H1308.7z"/>
<path d="M1463.4,175.3h-46.8v118.9h-26V175.3h-46.5v-22.2h119.3V175.3z"/>
<path d="M1482.3,153.2h25.8v100.2l75.8-100.2h24.4v141.1h-25.8v-100l-75.8,100h-24.4V153.2z"/>
<path d="M1691,234.8h-26.2v59.4H1639V153.2h25.8v59h27l40.5-59h27.8l-48.2,68.3l50,72.7h-29.6L1691,234.8z"/>
<path id="РњРЅРѕРіРѕСѓРіРѕР»СЊРЅРёРє_1_5_" class="st0" d="M595.8,334.2l1323.5,0.1v34l-1358.1,0.4l-21.3-82.3l-88.8,0l-23.9,81.8
	L0,367.8v-34l394.8,0.9L500.1,16.3L595.8,334.2z M525,243.5l-57.1,0.6l29.6-104.3L525,243.5z"/>
<text transform="matrix(1 0 0 1 612.8613 101.7524)" class="st1 st2 st3 st4">РћР¤РР¦РРђР›Р¬РќР«Р™ Р”РРЎРўР РР‘Р¬Р®РўРћР </text>
<text transform="matrix(1 0 0 1 616.1475 97.0195)" class="st1 st2 st5 st4">РѕС„РёС†РёР°Р»СЊРЅС‹Р№ РґРёСЃС‚СЂРёР±СЊСЋС‚РѕСЂ</text>
<g class="st1">
	<path class="st6" d="M631.2,94.6c-3.6-2-6.3-4.7-8.3-8.2c-2-3.5-3-7.4-3-11.8s1-8.3,3-11.8c2-3.5,4.8-6.2,8.3-8.1s7.6-2.9,12-2.9
		c4.5,0,8.5,1,12,2.9c3.5,1.9,6.3,4.7,8.3,8.1c2,3.5,3,7.4,3,11.8s-1,8.3-3,11.8c-2,3.5-4.8,6.2-8.3,8.2c-3.5,2-7.5,3-12,3
		C638.8,97.5,634.8,96.5,631.2,94.6z M651,88.4c2.3-1.3,4.1-3.2,5.4-5.6c1.3-2.4,1.9-5.2,1.9-8.3c0-3.1-0.7-5.9-1.9-8.3
		c-1.3-2.4-3.1-4.3-5.4-5.6c-2.3-1.3-4.9-1.9-7.8-1.9c-2.9,0-5.5,0.7-7.8,1.9c-2.3,1.3-4.1,3.2-5.4,5.6c-1.3,2.4-2,5.2-2,8.3
		c0,3.1,0.7,5.9,2,8.3c1.3,2.4,3.1,4.3,5.4,5.6c2.3,1.3,4.9,2,7.8,2C646.2,90.4,648.7,89.7,651,88.4z"/>
	<path class="st6" d="M728.1,90.9c-4.6,4-11.2,6.2-19.6,6.7v15.9h-8V97.6c-8.4-0.5-14.9-2.7-19.5-6.7c-4.6-4-6.9-9.5-6.9-16.5
		c0-7,2.3-12.4,6.9-16.3s11.1-6.1,19.6-6.5V34.1h8v17.5c8.4,0.5,14.9,2.6,19.6,6.6c4.6,3.9,7,9.3,7,16.2
		C735.1,81.4,732.7,86.9,728.1,90.9z M686.8,85.7c3.1,2.7,7.7,4.3,13.8,4.7V58.9c-6.2,0.4-10.8,1.9-13.8,4.6
		c-3.1,2.7-4.6,6.3-4.6,11C682.2,79.3,683.7,83,686.8,85.7z M727,74.5c0-4.7-1.6-8.4-4.7-11.1c-3.1-2.6-7.7-4.1-13.8-4.5v31.6
		C720.8,89.5,727,84.2,727,74.5z"/>
	<path class="st6" d="M745.8,52.1h8.1v32.7l27.5-32.7h7.4V97h-8.1V64.3L753.3,97h-7.5V52.1z"/>
	<path class="st6" d="M851,89.9v17.9h-7.7V97H803V52.1h8.1v37.8h24.6V52.1h8.1v37.8H851z"/>
	<path class="st6" d="M860.6,52.1h8.1v32.7l27.5-32.7h7.4V97h-8.1V64.3L868,97h-7.5V52.1z"/>
	<path class="st6" d="M948.8,56.2c3.3,3.1,5,7.6,5,13.6V97h-7.7v-5.9c-1.4,2.1-3.3,3.7-5.8,4.8c-2.5,1.1-5.5,1.7-8.9,1.7
		c-5,0-9.1-1.2-12.1-3.6c-3-2.4-4.5-5.6-4.5-9.6c0-4,1.4-7.1,4.3-9.5c2.9-2.4,7.5-3.6,13.7-3.6h12.9v-1.6c0-3.5-1-6.2-3.1-8.1
		c-2-1.9-5-2.8-9-2.8c-2.7,0-5.3,0.4-7.8,1.3c-2.5,0.9-4.7,2-6.4,3.5l-3.4-6.1c2.3-1.9,5.1-3.3,8.3-4.3c3.2-1,6.6-1.5,10.3-1.5
		C940.7,51.7,945.5,53.2,948.8,56.2z M940.7,89.2c2.3-1.4,3.9-3.3,4.9-5.9V77h-12.5c-6.9,0-10.3,2.3-10.3,7c0,2.3,0.9,4,2.6,5.3
		c1.8,1.3,4.2,1.9,7.3,1.9C935.8,91.3,938.5,90.6,940.7,89.2z"/>
	<path class="st6" d="M1007.2,52.1V97H999V59.2h-19.3l-0.5,10c-0.3,6-0.8,11.1-1.6,15.1c-0.8,4-2.1,7.3-3.9,9.7
		c-1.8,2.4-4.3,3.6-7.5,3.6c-1.5,0-3.1-0.3-5-0.8l0.5-6.9c0.7,0.2,1.4,0.3,2,0.3c2.3,0,4-1,5.1-3c1.1-2,1.9-4.3,2.2-7
		c0.3-2.7,0.6-6.6,0.9-11.6l0.8-16.6H1007.2z"/>
	<path class="st6" d="M1055.2,71.3c3,2.5,4.5,6.1,4.5,10.8c0,4.9-1.6,8.6-4.9,11.2c-3.2,2.6-7.9,3.9-13.9,3.9l-19.5-0.1V52.1h8.1
		v15.2l12.6,0.1C1047.9,67.4,1052.2,68.7,1055.2,71.3z M1048.5,88.7c1.9-1.5,2.8-3.8,2.8-6.8c0-2.9-0.9-5.1-2.8-6.4
		c-1.8-1.4-4.6-2.1-8.4-2.1l-10.7-0.2v17.6l10.7,0.1C1043.9,91,1046.7,90.2,1048.5,88.7z"/>
	<path class="st6" d="M1069,52.1h8.1v19.1h25.6V52.1h8.1V97h-8.1V78.2h-25.6V97h-8.1V52.1z"/>
	<path class="st6" d="M1158.3,71.3c3,2.5,4.5,6.1,4.5,10.8c0,4.9-1.6,8.6-4.9,11.2c-3.2,2.6-7.9,3.9-13.9,3.9L1125,97V52.1h8.1v15.2
		l12.1,0.1C1150.9,67.4,1155.3,68.7,1158.3,71.3z M1151.7,88.7c1.9-1.5,2.8-3.8,2.8-6.8c0-2.9-0.9-5.1-2.8-6.4
		c-1.9-1.4-4.7-2.1-8.4-2.1l-10.2-0.2v17.6l10.2,0.1C1147,91,1149.8,90.2,1151.7,88.7z M1169.5,52.1h8.1V97h-8.1V52.1z"/>
	<path class="st6" d="M1191.8,52.1h8.1v32.7l27.5-32.7h7.4V97h-8.1V64.3L1199.3,97h-7.5V52.1z M1203.1,43.2c-2.3-2-3.5-4.9-3.6-8.7
		h5.5c0.1,2.1,0.8,3.8,2.2,5c1.4,1.3,3.2,1.9,5.6,1.9c2.3,0,4.2-0.6,5.6-1.9c1.4-1.3,2.1-3,2.2-5h5.7c-0.1,3.8-1.3,6.7-3.6,8.7
		c-2.4,2-5.6,3-9.7,3C1208.7,46.2,1205.4,45.2,1203.1,43.2z"/>
	<path class="st6" d="M1321.8,89.9v17.5h-7.6V97h-37.6v10.4h-7.7V89.9h2.4c2.9-0.2,4.9-2.2,5.9-6.1c1.1-3.9,1.8-9.4,2.2-16.5
		l0.7-15.2h34.8v37.8H1321.8z M1285.5,81.9c-0.7,3.7-2,6.4-3.9,8h25.2V59.2h-19.5l-0.4,8.6C1286.7,73.5,1286.2,78.2,1285.5,81.9z"/>
	<path class="st6" d="M1331.4,52.1h8.1v32.7l27.5-32.7h7.4V97h-8.1V64.3L1338.9,97h-7.5V52.1z"/>
	<path class="st6" d="M1396.7,94.6c-3.6-2-6.4-4.7-8.4-8.2c-2-3.5-3.1-7.4-3.1-11.8s1-8.3,3.1-11.8c2-3.5,4.8-6.2,8.4-8.1
		c3.6-1.9,7.7-2.9,12.2-2.9c4.1,0,7.7,0.8,10.9,2.5c3.2,1.6,5.7,4,7.4,7.1l-6.2,4c-1.4-2.1-3.2-3.8-5.3-4.8c-2.1-1.1-4.4-1.6-7-1.6
		c-2.9,0-5.6,0.7-7.9,1.9c-2.3,1.3-4.2,3.2-5.5,5.6c-1.3,2.4-2,5.2-2,8.3c0,3.2,0.7,5.9,2,8.3c1.3,2.4,3.2,4.3,5.5,5.6
		c2.3,1.3,5,1.9,7.9,1.9c2.5,0,4.9-0.5,7-1.6c2.1-1.1,3.8-2.7,5.3-4.8l6.2,3.9c-1.8,3.1-4.2,5.5-7.4,7.2c-3.2,1.7-6.8,2.5-10.9,2.5
		C1404.4,97.5,1400.3,96.5,1396.7,94.6z"/>
	<path class="st6" d="M1473.6,59.2h-16.4V97h-8.1V59.2h-16.4v-7.1h41V59.2z"/>
	<path class="st6" d="M1517,54.6c3.4,1.9,6.1,4.6,8.1,8.1c1.9,3.4,2.9,7.4,2.9,12c0,4.5-1,8.5-2.9,12c-2,3.5-4.6,6.2-8.1,8.1
		c-3.4,1.9-7.3,2.9-11.7,2.9c-3.2,0-6.2-0.6-8.9-1.9c-2.7-1.2-5-3.1-6.8-5.4v23.2h-8.1V52.1h7.8v7.1c1.8-2.5,4.1-4.4,6.9-5.6
		c2.8-1.3,5.8-1.9,9.2-1.9C1509.7,51.7,1513.6,52.6,1517,54.6z M1512.4,88.4c2.3-1.3,4.1-3.2,5.4-5.6c1.3-2.4,2-5.2,2-8.3
		c0-3.1-0.7-5.9-2-8.3c-1.3-2.4-3.1-4.3-5.4-5.6c-2.3-1.3-4.9-1.9-7.8-1.9c-2.8,0-5.4,0.7-7.7,2c-2.3,1.3-4.1,3.2-5.4,5.6
		c-1.3,2.4-2,5.1-2,8.2c0,3.1,0.6,5.9,1.9,8.3c1.3,2.4,3.1,4.3,5.4,5.6c2.3,1.3,4.9,2,7.7,2C1507.6,90.4,1510.1,89.7,1512.4,88.4z"
		/>
	<path class="st6" d="M1539.1,52.1h8.1v32.7l27.5-32.7h7.4V97h-8.1V64.3L1546.5,97h-7.5V52.1z"/>
	<path class="st6" d="M1631,56.4c3.3,1.9,5.8,4.5,7.7,7.8c1.8,3.3,2.8,7.1,2.8,11.3c0,4.4-1,8.2-2.9,11.6c-2,3.4-4.7,6-8.2,7.8
		c-3.5,1.9-7.6,2.8-12.1,2.8c-7.6,0-13.5-2.6-17.7-7.8c-4.2-5.2-6.2-12.6-6.2-22.1c0-9.2,1.9-16.4,5.7-21.7
		c3.8-5.2,9.6-8.7,17.4-10.4l20.5-4.6l1.2,7.5l-18.9,4.1c-5.9,1.3-10.3,3.5-13.1,6.6c-2.9,3.1-4.5,7.6-4.9,13.4
		c1.9-2.9,4.4-5.1,7.5-6.7c3.1-1.6,6.5-2.4,10.3-2.4C1624,53.6,1627.7,54.6,1631,56.4z M1626.1,89c2.2-1.3,4-3.1,5.2-5.4
		s1.9-4.9,1.9-7.8c0-4.5-1.4-8.1-4.1-10.8c-2.7-2.7-6.3-4.1-10.7-4.1c-4.4,0-8,1.4-10.7,4.1c-2.7,2.7-4.1,6.3-4.1,10.8
		c0,2.9,0.6,5.6,1.9,7.8s3,4.1,5.3,5.4c2.3,1.3,4.8,1.9,7.6,1.9C1621.3,90.9,1623.8,90.3,1626.1,89z"/>
	<path class="st6" d="M1686,71.3c3,2.5,4.5,6.1,4.5,10.8c0,4.9-1.6,8.6-4.9,11.2c-3.2,2.6-7.9,3.9-13.9,3.9l-19.5-0.1V52.1h8.1v15.2
		l12.6,0.1C1678.7,67.4,1683,68.7,1686,71.3z M1679.4,88.7c1.9-1.5,2.8-3.8,2.8-6.8c0-2.9-0.9-5.1-2.8-6.4c-1.8-1.4-4.6-2.1-8.4-2.1
		l-10.7-0.2v17.6l10.7,0.1C1674.7,91,1677.5,90.2,1679.4,88.7z"/>
	<path class="st6" d="M1751.3,54.6c3.4,1.9,6.2,4.7,8.1,8.1c2,3.5,3,7.4,3,11.8s-1,8.3-3,11.8c-2,3.5-4.7,6.2-8.1,8.2
		c-3.4,2-7.3,3-11.7,3c-4,0-7.5-0.8-10.8-2.5c-3.2-1.6-5.9-3.9-7.9-6.9c-2.1-3-3.3-6.3-3.9-10.1h-9.1v19h-8.1V52.1h8.1v18.4h9.2
		c0.6-3.7,1.9-7,3.9-9.9c2.1-2.9,4.7-5.1,7.9-6.6c3.2-1.6,6.7-2.3,10.6-2.3C1743.9,51.7,1747.8,52.6,1751.3,54.6z M1747.1,88.5
		c2.2-1.3,4-3.1,5.3-5.6c1.3-2.4,1.9-5.2,1.9-8.3c0-3.1-0.7-5.9-1.9-8.3c-1.3-2.4-3.1-4.3-5.3-5.6c-2.2-1.3-4.7-1.9-7.5-1.9
		c-2.8,0-5.3,0.7-7.5,1.9c-2.3,1.3-4,3.2-5.3,5.6c-1.3,2.4-1.9,5.2-1.9,8.3c0,3.2,0.6,5.9,1.9,8.3c1.3,2.4,3,4.3,5.3,5.6
		c2.3,1.3,4.8,1.9,7.5,1.9C1742.3,90.4,1744.8,89.8,1747.1,88.5z"/>
	<path class="st6" d="M1807,59.2h-16.4V97h-8.1V59.2H1766v-7.1h41V59.2z"/>
	<path class="st6" d="M1822,94.6c-3.6-2-6.3-4.7-8.3-8.2c-2-3.5-3-7.4-3-11.8s1-8.3,3-11.8c2-3.5,4.8-6.2,8.3-8.1
		c3.6-1.9,7.6-2.9,12-2.9s8.5,1,12,2.9c3.5,1.9,6.3,4.7,8.3,8.1c2,3.5,3,7.4,3,11.8s-1,8.3-3,11.8c-2,3.5-4.8,6.2-8.3,8.2
		c-3.5,2-7.5,3-12,3S1825.6,96.5,1822,94.6z M1841.8,88.4c2.3-1.3,4.1-3.2,5.4-5.6c1.3-2.4,1.9-5.2,1.9-8.3c0-3.1-0.6-5.9-1.9-8.3
		c-1.3-2.4-3.1-4.3-5.4-5.6c-2.3-1.3-4.9-1.9-7.8-1.9c-2.9,0-5.5,0.7-7.8,1.9c-2.3,1.3-4.1,3.2-5.4,5.6c-1.3,2.4-2,5.2-2,8.3
		c0,3.1,0.7,5.9,2,8.3c1.3,2.4,3.1,4.3,5.4,5.6c2.3,1.3,4.9,2,7.8,2C1836.9,90.4,1839.5,89.7,1841.8,88.4z"/>
	<path class="st6" d="M1903.7,54.6c3.4,1.9,6.1,4.6,8.1,8.1c1.9,3.4,2.9,7.4,2.9,12c0,4.5-1,8.5-2.9,12c-2,3.5-4.6,6.2-8.1,8.1
		c-3.4,1.9-7.3,2.9-11.7,2.9c-3.2,0-6.2-0.6-8.9-1.9c-2.7-1.2-5-3.1-6.8-5.4v23.2h-8.1V52.1h7.8v7.1c1.8-2.5,4.1-4.4,6.9-5.6
		c2.8-1.3,5.8-1.9,9.2-1.9C1896.4,51.7,1900.3,52.6,1903.7,54.6z M1899.1,88.4c2.3-1.3,4.1-3.2,5.4-5.6c1.3-2.4,2-5.2,2-8.3
		c0-3.1-0.7-5.9-2-8.3c-1.3-2.4-3.1-4.3-5.4-5.6c-2.3-1.3-4.9-1.9-7.8-1.9c-2.8,0-5.4,0.7-7.7,2c-2.3,1.3-4.1,3.2-5.4,5.6
		c-1.3,2.4-2,5.1-2,8.2c0,3.1,0.6,5.9,1.9,8.3c1.3,2.4,3.1,4.3,5.4,5.6c2.3,1.3,4.9,2,7.7,2C1894.2,90.4,1896.8,89.7,1899.1,88.4z"
		/>
</g>
<text transform="matrix(1 0 0 1 616.1475 97.0195)" class="st1 st7 st5 st4">РѕС„РёС†РёР°Р»СЊРЅС‹Р№ РґРёСЃС‚СЂРёР±СЊСЋС‚РѕСЂ</text>
<g class="st1">
	<path class="st6" d="M570.3,98.2c-3.5-2-6.3-4.8-8.3-8.4c-2-3.6-3-7.6-3-12.1c0-4.5,1-8.5,3-12.1c2-3.6,4.8-6.4,8.3-8.4
		c3.5-2,7.5-3,11.9-3c4.4,0,8.3,1,11.9,3c3.5,2,6.3,4.8,8.3,8.4c2,3.6,3,7.6,3,12.1c0,4.5-1,8.6-3,12.1c-2,3.6-4.8,6.4-8.3,8.4
		c-3.5,2-7.5,3-11.9,3C577.8,101.2,573.9,100.2,570.3,98.2z M591.8,94.7c2.8-1.7,5-4,6.7-6.9c1.6-3,2.4-6.3,2.4-10.1
		c0-3.8-0.8-7.2-2.4-10.1c-1.6-3-3.9-5.3-6.7-6.9c-2.8-1.7-6-2.5-9.6-2.5c-3.6,0-6.7,0.8-9.6,2.5c-2.8,1.7-5,4-6.7,6.9
		c-1.6,3-2.4,6.3-2.4,10.1c0,3.8,0.8,7.2,2.4,10.1c1.6,3,3.9,5.3,6.7,6.9c2.8,1.7,6,2.5,9.6,2.5C585.8,97.2,588.9,96.3,591.8,94.7z"
		/>
	<path class="st6" d="M666.3,94.6c-4.7,4.1-11.4,6.3-20.1,6.6v16.8h-4.4v-16.8c-8.7-0.3-15.4-2.5-20.1-6.6
		c-4.7-4.1-7.1-9.8-7.1-17.1c0-7.2,2.4-12.8,7.2-16.9c4.8-4.1,11.5-6.3,20.1-6.6V34.8h4.4v19.2c8.7,0.3,15.4,2.5,20.1,6.6
		c4.7,4.1,7.1,9.7,7.1,16.9C673.4,84.8,671,90.5,666.3,94.6z M624.9,91.7c3.9,3.4,9.5,5.3,16.9,5.6V58.1c-7.4,0.3-13,2.1-16.9,5.5
		c-3.9,3.4-5.9,8-5.9,14C619.1,83.5,621,88.2,624.9,91.7z M663.1,91.7c3.9-3.4,5.9-8.1,5.9-14.2c0-5.9-2-10.6-5.9-14
		c-3.9-3.4-9.6-5.2-16.9-5.5v39.2C653.5,97,659.2,95.1,663.1,91.7z"/>
	<path class="st6" d="M686.3,54.4h4.4V94l33.1-39.6h3.9v46.4h-4.4V61.3l-33.1,39.6h-3.9V54.4z"/>
	<path class="st6" d="M791.7,96.9v16h-4.3v-12.1h-43.1V54.4h4.4v42.5h30.8V54.4h4.4v42.5H791.7z"/>
	<path class="st6" d="M802.7,54.4h4.4V94l33.1-39.6h3.9v46.4h-4.4V61.3l-33.1,39.6h-3.9V54.4z"/>
	<path class="st6" d="M890.1,58.5c3.1,2.9,4.6,7.2,4.6,12.9v29.4h-4.3v-8.3c-1.5,2.7-3.6,4.8-6.5,6.4s-6.3,2.3-10.2,2.3
		c-5.2,0-9.2-1.2-12.2-3.6c-3-2.4-4.5-5.6-4.5-9.6c0-3.9,1.4-7,4.1-9.4c2.8-2.4,7.2-3.6,13.2-3.6h15.9v-3.7c0-4.3-1.2-7.6-3.5-9.9
		c-2.3-2.3-5.8-3.4-10.3-3.4c-3.1,0-6,0.5-8.8,1.6c-2.8,1.1-5.2,2.5-7.2,4.3l-2.2-3.2c2.3-2.1,5.1-3.7,8.4-4.8
		c3.3-1.2,6.7-1.7,10.2-1.7C882.6,54.1,887,55.5,890.1,58.5z M884.2,94.9c2.7-1.8,4.7-4.4,6.1-7.7v-8.7h-15.8
		c-4.6,0-7.9,0.8-9.9,2.5c-2,1.7-3.1,3.9-3.1,6.8c0,3,1.1,5.4,3.4,7.2c2.3,1.7,5.4,2.6,9.5,2.6C878.2,97.5,881.5,96.6,884.2,94.9z"
		/>
	<path class="st6" d="M949.1,54.4v46.4h-4.4V58.4h-24.2l-0.6,12.4c-0.4,6.4-0.9,11.8-1.6,16.1c-0.7,4.3-1.9,7.8-3.6,10.5
		c-1.7,2.7-4.1,4-7.1,4c-0.9,0-2.2-0.2-3.8-0.6l0.4-3.8c0.9,0.2,1.7,0.4,2.1,0.4c2.5,0,4.4-1.2,5.7-3.6c1.3-2.4,2.2-5.5,2.7-9.1
		c0.5-3.6,0.9-8.3,1.2-14.1l0.8-16H949.1z"/>
	<path class="st6" d="M997.5,75.1c3,2.5,4.5,6.1,4.5,10.8c0,4.9-1.6,8.7-4.8,11.3c-3.2,2.6-7.9,3.9-14,3.8l-17.5-0.2V54.4h4.4v16.7
		l14.1,0.2C990,71.4,994.4,72.6,997.5,75.1z M993.8,94.6c2.4-2,3.6-4.9,3.6-8.7c0-3.7-1.2-6.5-3.6-8.3c-2.4-1.8-6-2.8-10.8-2.9
		l-13-0.1v22.7l13,0.2C987.8,97.5,991.4,96.6,993.8,94.6z"/>
	<path class="st6" d="M1013,54.4h4.4v21.2h31.5V54.4h4.4v46.4h-4.4V79.5h-31.5v21.3h-4.4V54.4z"/>
	<path class="st6" d="M1101.5,75.1c3,2.5,4.5,6.1,4.5,10.8c0,4.9-1.6,8.7-4.8,11.3c-3.2,2.6-7.8,3.9-13.9,3.8l-17.3-0.2V54.4h4.4
		v16.7l13.9,0.2C1094,71.4,1098.4,72.6,1101.5,75.1z M1097.9,94.6c2.4-2,3.6-4.9,3.6-8.7c0-3.7-1.2-6.5-3.6-8.3
		c-2.4-1.8-6-2.8-10.8-2.9l-12.7-0.1v22.7l12.7,0.2C1091.9,97.5,1095.5,96.6,1097.9,94.6z M1114.5,54.4h4.4v46.4h-4.4V54.4z"/>
	<path class="st6" d="M1135.6,54.4h4.4V94l33.1-39.6h3.9v46.4h-4.4V61.3l-33.1,39.6h-3.9V54.4z M1147,44.4c-2.3-1.9-3.5-4.6-3.6-8
		h3.3c0.1,2.4,1,4.4,2.7,5.8c1.7,1.4,4,2.1,6.6,2.1c2.7,0,4.9-0.7,6.6-2.1c1.7-1.4,2.6-3.3,2.7-5.8h3.4c-0.1,3.4-1.2,6.1-3.6,8
		c-2.3,1.9-5.3,2.9-9.1,2.9C1152.4,47.3,1149.4,46.3,1147,44.4z"/>
	<path class="st6" d="M1265.6,96.9v15.5h-4.2v-11.6h-43.9v11.6h-4.3V96.9h2.8c3.1-0.2,5.3-2.6,6.4-7.3c1.2-4.7,2-11.3,2.4-19.9
		l0.6-15.3h32.6v42.5H1265.6z M1227.2,87.6c-0.9,4.7-2.5,7.8-4.8,9.3h31.3V58.4h-24.2l-0.5,11.6C1228.6,77,1228,82.9,1227.2,87.6z"
		/>
	<path class="st6" d="M1276.7,54.4h4.4V94l33.1-39.6h3.9v46.4h-4.4V61.3l-33.1,39.6h-3.9V54.4z"/>
	<path class="st6" d="M1342.5,98.2c-3.6-2-6.3-4.8-8.4-8.4c-2-3.6-3-7.6-3-12.1c0-4.6,1-8.6,3-12.2c2-3.6,4.8-6.4,8.4-8.4
		c3.6-2,7.6-3,12.1-3c3.7,0,7.1,0.7,10.2,2.2c3.1,1.5,5.5,3.6,7.4,6.4l-3.3,2.4c-1.7-2.3-3.7-4-6.2-5.2c-2.5-1.2-5.2-1.7-8.1-1.7
		c-3.6,0-6.9,0.8-9.7,2.4c-2.9,1.6-5.1,3.9-6.8,6.9c-1.6,3-2.4,6.4-2.4,10.2c0,3.9,0.8,7.3,2.4,10.2c1.6,3,3.9,5.3,6.8,6.9
		c2.9,1.6,6.1,2.4,9.7,2.4c3,0,5.7-0.6,8.1-1.7c2.5-1.2,4.5-2.9,6.2-5.2l3.3,2.4c-1.9,2.8-4.4,4.9-7.4,6.4
		c-3.1,1.5-6.4,2.2-10.2,2.2C1350.1,101.2,1346.1,100.2,1342.5,98.2z"/>
	<path class="st6" d="M1418.2,58.4h-18.1v42.4h-4.4V58.4h-18.1v-4h40.7V58.4z"/>
	<path class="st6" d="M1462.5,57.1c3.5,2,6.2,4.8,8.2,8.4c2,3.6,3,7.6,3,12.2c0,4.6-1,8.6-3,12.2c-2,3.6-4.7,6.4-8.2,8.4
		c-3.5,2-7.4,3-11.7,3c-4.1,0-7.8-1-11.1-2.9c-3.3-1.9-5.9-4.6-7.7-8v27.8h-4.4V54.4h4.3v10.9c1.8-3.6,4.4-6.3,7.8-8.3
		c3.3-2,7.1-3,11.2-3C1455.1,54.1,1459,55.1,1462.5,57.1z M1460.1,94.7c2.8-1.7,5.1-4,6.7-6.9c1.6-3,2.4-6.3,2.4-10.1
		c0-3.8-0.8-7.2-2.4-10.1c-1.6-3-3.9-5.3-6.7-6.9c-2.8-1.7-6-2.5-9.6-2.5s-6.7,0.8-9.6,2.5c-2.8,1.7-5,4-6.7,6.9
		c-1.6,3-2.4,6.3-2.4,10.1c0,3.8,0.8,7.2,2.4,10.1c1.6,3,3.9,5.3,6.7,6.9c2.8,1.7,6,2.5,9.6,2.5S1457.3,96.3,1460.1,94.7z"/>
	<path class="st6" d="M1486.8,54.4h4.4V94l33.1-39.6h3.9v46.4h-4.4V61.3l-33.1,39.6h-3.9V54.4z"/>
	<path class="st6" d="M1578.7,58c3.3,1.9,6,4.6,7.9,8c1.9,3.4,2.8,7.4,2.8,11.9c0,4.5-1,8.5-2.9,12c-1.9,3.5-4.6,6.3-8.1,8.3
		c-3.5,2-7.4,3-11.9,3c-5.1,0-9.4-1.2-13-3.7c-3.6-2.5-6.3-6-8.2-10.6c-1.9-4.6-2.8-9.9-2.8-16c0-6.9,0.8-12.7,2.5-17.2
		c1.7-4.6,4.2-8.2,7.6-10.8c3.4-2.6,7.8-4.6,13.1-5.9l20.5-5l0.7,4.2l-19.6,4.6c-4.8,1.1-8.7,2.8-11.7,4.9c-3,2.2-5.2,5.1-6.7,8.8
		c-1.5,3.7-2.3,8.5-2.3,14.3c1.5-4.3,4.1-7.6,7.7-10.1c3.6-2.5,7.8-3.7,12.6-3.7C1571.6,55.1,1575.4,56.1,1578.7,58z M1576.1,95
		c2.8-1.7,4.9-4,6.5-6.9c1.5-2.9,2.3-6.3,2.3-10s-0.8-7-2.3-9.9c-1.5-2.9-3.7-5.1-6.4-6.7c-2.8-1.6-5.9-2.4-9.5-2.4
		c-3.6,0-6.7,0.8-9.5,2.4c-2.8,1.6-4.9,3.8-6.5,6.7c-1.5,2.9-2.3,6.2-2.3,9.9s0.8,7.1,2.3,10c1.5,2.9,3.7,5.2,6.5,6.9
		c2.8,1.7,6,2.5,9.5,2.5C1570.2,97.4,1573.3,96.6,1576.1,95z"/>
	<path class="st6" d="M1634.1,75.1c3,2.5,4.5,6.1,4.5,10.8c0,4.9-1.6,8.7-4.8,11.3c-3.2,2.6-7.9,3.9-14,3.8l-17.5-0.2V54.4h4.4v16.7
		l14.1,0.2C1626.7,71.4,1631.1,72.6,1634.1,75.1z M1630.5,94.6c2.4-2,3.6-4.9,3.6-8.7c0-3.7-1.2-6.5-3.6-8.3
		c-2.4-1.8-6-2.8-10.8-2.9l-13-0.1v22.7l13,0.2C1624.5,97.5,1628.1,96.6,1630.5,94.6z"/>
	<path class="st6" d="M1700.1,57c3.4,2,6.1,4.8,8.1,8.4c2,3.6,2.9,7.7,2.9,12.2c0,4.5-1,8.6-2.9,12.1c-2,3.6-4.7,6.4-8.1,8.4
		c-3.4,2-7.3,3-11.6,3c-4.1,0-7.9-0.9-11.2-2.8c-3.3-1.8-6-4.4-8-7.7c-2-3.3-3.1-7.1-3.3-11.4h-11.8v21.5h-4.4V54.4h4.4v20.8h11.8
		c0.4-4.1,1.5-7.8,3.6-11c2-3.2,4.7-5.7,8-7.5c3.3-1.8,7-2.7,11-2.7C1692.8,54.1,1696.7,55,1700.1,57z M1697.8,94.8
		c2.8-1.7,5-4,6.5-7c1.6-3,2.4-6.4,2.4-10.2c0-3.9-0.8-7.3-2.4-10.2c-1.6-3-3.7-5.3-6.5-6.9c-2.8-1.6-5.9-2.4-9.3-2.4
		c-3.4,0-6.6,0.8-9.3,2.4c-2.8,1.6-5,3.9-6.5,6.9c-1.6,3-2.4,6.4-2.4,10.2c0,3.8,0.8,7.2,2.4,10.2c1.6,3,3.7,5.3,6.5,7
		c2.8,1.7,5.9,2.5,9.3,2.5C1691.9,97.3,1695,96.4,1697.8,94.8z"/>
	<path class="st6" d="M1755.1,58.4H1737v42.4h-4.4V58.4h-18.1v-4h40.7V58.4z"/>
	<path class="st6" d="M1769.6,98.2c-3.5-2-6.3-4.8-8.3-8.4c-2-3.6-3-7.6-3-12.1c0-4.5,1-8.5,3-12.1c2-3.6,4.8-6.4,8.3-8.4
		c3.5-2,7.5-3,11.9-3c4.4,0,8.3,1,11.9,3c3.5,2,6.3,4.8,8.3,8.4c2,3.6,3,7.6,3,12.1c0,4.5-1,8.6-3,12.1c-2,3.6-4.8,6.4-8.3,8.4
		c-3.5,2-7.5,3-11.9,3C1777.1,101.2,1773.1,100.2,1769.6,98.2z M1791,94.7c2.8-1.7,5-4,6.7-6.9c1.6-3,2.4-6.3,2.4-10.1
		c0-3.8-0.8-7.2-2.4-10.1c-1.6-3-3.9-5.3-6.7-6.9c-2.8-1.7-6-2.5-9.6-2.5s-6.7,0.8-9.6,2.5c-2.8,1.7-5,4-6.7,6.9
		c-1.6,3-2.4,6.3-2.4,10.1c0,3.8,0.8,7.2,2.4,10.1c1.6,3,3.9,5.3,6.7,6.9c2.8,1.7,6,2.5,9.6,2.5S1788.2,96.3,1791,94.7z"/>
	<path class="st6" d="M1852.7,57.1c3.5,2,6.2,4.8,8.2,8.4c2,3.6,3,7.6,3,12.2c0,4.6-1,8.6-3,12.2c-2,3.6-4.7,6.4-8.2,8.4
		c-3.5,2-7.4,3-11.7,3c-4.1,0-7.8-1-11.1-2.9c-3.3-1.9-5.9-4.6-7.7-8v27.8h-4.4V54.4h4.3v10.9c1.8-3.6,4.4-6.3,7.8-8.3
		c3.3-2,7.1-3,11.2-3C1845.2,54.1,1849.2,55.1,1852.7,57.1z M1850.3,94.7c2.8-1.7,5.1-4,6.7-6.9c1.6-3,2.4-6.3,2.4-10.1
		c0-3.8-0.8-7.2-2.4-10.1c-1.6-3-3.9-5.3-6.7-6.9c-2.8-1.7-6-2.5-9.6-2.5s-6.7,0.8-9.6,2.5c-2.8,1.7-5,4-6.7,6.9
		c-1.6,3-2.4,6.3-2.4,10.1c0,3.8,0.8,7.2,2.4,10.1c1.6,3,3.9,5.3,6.7,6.9c2.8,1.7,6,2.5,9.6,2.5S1847.4,96.3,1850.3,94.7z"/>
</g>
<g class="st1">
	<path class="st6" d="M631.6,94.5c-3.4-1.9-6-4.6-7.9-8c-1.9-3.4-2.9-7.3-2.9-11.6c0-4.3,1-8.2,2.9-11.6c1.9-3.4,4.6-6.1,7.9-8
		c3.4-1.9,7.1-2.9,11.3-2.9c4.2,0,8,1,11.3,2.9c3.4,1.9,6,4.6,7.9,8c1.9,3.4,2.9,7.3,2.9,11.6c0,4.3-1,8.2-2.9,11.6
		c-1.9,3.4-4.6,6.1-7.9,8c-3.4,1.9-7.1,2.9-11.3,2.9C638.8,97.4,635,96.4,631.6,94.5z M652,91.2c2.7-1.6,4.8-3.8,6.4-6.6
		c1.6-2.8,2.3-6,2.3-9.7c0-3.6-0.8-6.8-2.3-9.7c-1.6-2.8-3.7-5-6.4-6.6c-2.7-1.6-5.7-2.4-9.1-2.4c-3.4,0-6.4,0.8-9.1,2.4
		c-2.7,1.6-4.8,3.8-6.4,6.6c-1.6,2.8-2.3,6-2.3,9.7c0,3.6,0.8,6.8,2.3,9.7c1.6,2.8,3.7,5,6.4,6.6c2.7,1.6,5.7,2.4,9.1,2.4
		C646.3,93.5,649.4,92.8,652,91.2z"/>
	<path class="st6" d="M723.1,91.1c-4.5,3.9-10.9,6-19.2,6.3v16h-4.2v-16c-8.3-0.3-14.6-2.4-19.2-6.3c-4.5-3.9-6.8-9.4-6.8-16.3
		c0-6.8,2.3-12.2,6.8-16.1c4.5-3.9,10.9-6,19.1-6.3V34.1h4.2v18.3c8.2,0.3,14.6,2.4,19.2,6.3c4.5,3.9,6.8,9.3,6.8,16.1
		C729.9,81.8,727.6,87.2,723.1,91.1z M683.7,88.3c3.7,3.3,9.1,5.1,16.1,5.3V56.2c-7,0.3-12.4,2-16.1,5.3c-3.7,3.2-5.6,7.7-5.6,13.3
		C678.1,80.5,679.9,85,683.7,88.3z M720.1,88.3c3.8-3.2,5.6-7.8,5.6-13.5c0-5.6-1.9-10.1-5.6-13.3c-3.8-3.2-9.1-5-16.1-5.3v37.4
		C710.9,93.3,716.3,91.6,720.1,88.3z"/>
	<path class="st6" d="M742.2,52.8h4.2v37.7l31.5-37.7h3.7V97h-4.2V59.3L745.9,97h-3.7V52.8z"/>
	<path class="st6" d="M842.7,93.3v15.3h-4.1V97h-41.1V52.8h4.2v40.5H831V52.8h4.2v40.5H842.7z"/>
	<path class="st6" d="M853.2,52.8h4.2v37.7l31.5-37.7h3.7V97h-4.2V59.3L856.9,97h-3.7V52.8z"/>
	<path class="st6" d="M936.4,56.6c2.9,2.8,4.4,6.9,4.4,12.3V97h-4.1v-7.9c-1.4,2.6-3.5,4.6-6.2,6.1s-6,2.2-9.7,2.2
		c-4.9,0-8.8-1.2-11.7-3.5c-2.9-2.3-4.3-5.4-4.3-9.2c0-3.7,1.3-6.7,3.9-8.9c2.6-2.3,6.8-3.4,12.6-3.4h15.2v-3.6
		c0-4.1-1.1-7.3-3.3-9.4c-2.2-2.1-5.5-3.2-9.8-3.2c-2.9,0-5.8,0.5-8.4,1.5c-2.7,1-5,2.4-6.8,4.1l-2.1-3.1c2.2-2,4.9-3.5,8-4.6
		c3.1-1.1,6.4-1.7,9.7-1.7C929.3,52.4,933.5,53.8,936.4,56.6z M930.8,91.3c2.6-1.7,4.5-4.2,5.8-7.4v-8.3h-15.1
		c-4.4,0-7.5,0.8-9.5,2.4c-1.9,1.6-2.9,3.8-2.9,6.5c0,2.9,1.1,5.2,3.2,6.8c2.1,1.7,5.2,2.5,9.1,2.5C925.1,93.9,928.2,93,930.8,91.3z
		"/>
	<path class="st6" d="M992.7,52.8V97h-4.2V56.6h-23.1l-0.6,11.8c-0.3,6.1-0.8,11.2-1.5,15.3c-0.7,4.1-1.8,7.5-3.5,10
		c-1.6,2.5-3.9,3.8-6.8,3.8c-0.8,0-2.1-0.2-3.6-0.6l0.4-3.6c0.9,0.2,1.6,0.3,2,0.3c2.4,0,4.2-1.2,5.4-3.5c1.2-2.3,2.1-5.2,2.5-8.6
		c0.5-3.4,0.8-7.9,1.1-13.5l0.8-15.3H992.7z"/>
	<path class="st6" d="M1038.8,72.5c2.9,2.3,4.3,5.8,4.3,10.3c0,4.7-1.5,8.3-4.6,10.8c-3.1,2.5-7.5,3.7-13.3,3.6l-16.7-0.2V52.8h4.2
		v15.9l13.5,0.2C1031.7,68.9,1035.9,70.1,1038.8,72.5z M1035.3,91.1c2.3-1.9,3.5-4.6,3.5-8.3c0-3.6-1.1-6.2-3.4-7.9
		c-2.3-1.7-5.7-2.6-10.3-2.8l-12.4-0.1v21.6l12.4,0.2C1029.6,93.9,1033,93,1035.3,91.1z"/>
	<path class="st6" d="M1053.6,52.8h4.2v20.2h30V52.8h4.2V97h-4.2V76.7h-30V97h-4.2V52.8z"/>
	<path class="st6" d="M1137.9,72.5c2.9,2.3,4.3,5.8,4.3,10.3c0,4.7-1.5,8.3-4.6,10.8c-3.1,2.5-7.5,3.7-13.2,3.6l-16.5-0.2V52.8h4.2
		v15.9l13.2,0.2C1130.9,68.9,1135.1,70.1,1137.9,72.5z M1134.6,91.1c2.3-1.9,3.5-4.6,3.5-8.3c0-3.6-1.1-6.2-3.4-7.9
		c-2.3-1.7-5.7-2.6-10.3-2.8l-12.1-0.1v21.6l12.1,0.2C1128.8,93.9,1132.2,93,1134.6,91.1z M1150.4,52.8h4.2V97h-4.2V52.8z"/>
	<path class="st6" d="M1170.5,52.8h4.2v37.7l31.5-37.7h3.7V97h-4.2V59.3L1174.2,97h-3.7V52.8z M1181.4,43.2
		c-2.2-1.8-3.3-4.4-3.4-7.7h3.1c0.1,2.3,0.9,4.2,2.6,5.5c1.7,1.4,3.8,2,6.3,2c2.5,0,4.6-0.7,6.3-2c1.6-1.4,2.5-3.2,2.5-5.5h3.2
		c-0.1,3.3-1.2,5.8-3.4,7.7c-2.2,1.8-5.1,2.8-8.6,2.8C1186.5,46,1183.6,45.1,1181.4,43.2z"/>
	<path class="st6" d="M1294.4,93.3V108h-4V97h-41.9v11h-4.1V93.3h2.6c3-0.2,5-2.5,6.1-7c1.1-4.5,1.9-10.8,2.3-18.9l0.6-14.6h31.1
		v40.5H1294.4z M1257.8,84.4c-0.8,4.5-2.4,7.4-4.6,8.9h29.8V56.6H1260l-0.5,11C1259.2,74.3,1258.6,79.9,1257.8,84.4z"/>
	<path class="st6" d="M1305,52.8h4.2v37.7l31.5-37.7h3.7V97h-4.2V59.3L1308.7,97h-3.7V52.8z"/>
	<path class="st6" d="M1367.8,94.5c-3.4-1.9-6-4.6-8-8c-1.9-3.4-2.9-7.3-2.9-11.6c0-4.4,1-8.2,2.9-11.7c1.9-3.4,4.6-6.1,8-8
		c3.4-1.9,7.2-2.8,11.5-2.8c3.6,0,6.8,0.7,9.7,2.1c2.9,1.4,5.3,3.4,7.1,6.1l-3.1,2.3c-1.6-2.2-3.5-3.9-5.9-5
		c-2.3-1.1-4.9-1.7-7.8-1.7c-3.4,0-6.5,0.8-9.3,2.3c-2.7,1.6-4.9,3.7-6.4,6.6c-1.6,2.8-2.3,6.1-2.3,9.7c0,3.7,0.8,6.9,2.3,9.7
		c1.6,2.8,3.7,5,6.4,6.6c2.7,1.6,5.8,2.3,9.3,2.3c2.8,0,5.4-0.6,7.8-1.7c2.3-1.1,4.3-2.8,5.9-5l3.1,2.3c-1.8,2.7-4.2,4.7-7.1,6.1
		c-2.9,1.4-6.1,2.1-9.7,2.1C1375,97.4,1371.2,96.4,1367.8,94.5z"/>
	<path class="st6" d="M1439.9,56.6h-17.3V97h-4.2V56.6h-17.3v-3.8h38.8V56.6z"/>
	<path class="st6" d="M1482.2,55.3c3.3,1.9,5.9,4.6,7.8,8c1.9,3.4,2.8,7.3,2.8,11.6c0,4.4-0.9,8.2-2.8,11.7c-1.9,3.4-4.5,6.1-7.8,8
		c-3.3,1.9-7.1,2.8-11.2,2.8c-3.9,0-7.4-0.9-10.6-2.8c-3.2-1.8-5.6-4.4-7.4-7.7v26.5h-4.2V52.8h4.1v10.4c1.8-3.4,4.2-6,7.4-7.9
		c3.2-1.9,6.8-2.8,10.7-2.8C1475.1,52.4,1478.8,53.4,1482.2,55.3z M1479.9,91.2c2.7-1.6,4.8-3.8,6.4-6.6c1.6-2.8,2.3-6,2.3-9.7
		c0-3.6-0.8-6.8-2.3-9.7c-1.6-2.8-3.7-5-6.4-6.6c-2.7-1.6-5.8-2.4-9.2-2.4s-6.4,0.8-9.1,2.4c-2.7,1.6-4.8,3.8-6.4,6.6
		c-1.6,2.8-2.3,6-2.3,9.7c0,3.6,0.8,6.8,2.3,9.7c1.6,2.8,3.7,5,6.4,6.6c2.7,1.6,5.7,2.4,9.1,2.4S1477.2,92.8,1479.9,91.2z"/>
	<path class="st6" d="M1505.3,52.8h4.2v37.7l31.5-37.7h3.7V97h-4.2V59.3L1509,97h-3.7V52.8z"/>
	<path class="st6" d="M1593,56.2c3.2,1.8,5.7,4.4,7.5,7.7c1.8,3.3,2.7,7.1,2.7,11.4c0,4.3-0.9,8.1-2.8,11.5c-1.8,3.4-4.4,6-7.7,7.9
		c-3.3,1.9-7.1,2.8-11.3,2.8c-4.9,0-9-1.2-12.4-3.6c-3.4-2.4-6-5.7-7.8-10.1c-1.8-4.4-2.7-9.4-2.7-15.3c0-6.6,0.8-12.1,2.4-16.4
		c1.6-4.4,4-7.8,7.3-10.3c3.2-2.5,7.4-4.4,12.5-5.6l19.6-4.7l0.7,4l-18.6,4.4c-4.6,1.1-8.3,2.6-11.1,4.7c-2.9,2.1-5,4.9-6.4,8.4
		c-1.4,3.6-2.1,8.1-2.2,13.6c1.5-4.1,3.9-7.3,7.4-9.6c3.4-2.3,7.5-3.5,12-3.5C1586.1,53.5,1589.8,54.4,1593,56.2z M1590.5,91.4
		c2.7-1.6,4.7-3.8,6.2-6.6c1.5-2.8,2.2-6,2.2-9.5s-0.7-6.7-2.2-9.5c-1.5-2.7-3.5-4.9-6.1-6.4c-2.6-1.5-5.6-2.2-9-2.2
		c-3.4,0-6.4,0.8-9.1,2.2c-2.7,1.5-4.7,3.6-6.2,6.4c-1.5,2.7-2.2,5.9-2.2,9.5s0.7,6.7,2.2,9.5c1.5,2.8,3.5,5,6.2,6.6
		c2.7,1.6,5.7,2.4,9.1,2.4C1584.8,93.8,1587.8,93,1590.5,91.4z"/>
	<path class="st6" d="M1645.8,72.5c2.9,2.3,4.3,5.8,4.3,10.3c0,4.7-1.5,8.3-4.6,10.8c-3.1,2.5-7.5,3.7-13.3,3.6l-16.7-0.2V52.8h4.2
		v15.9l13.5,0.2C1638.7,68.9,1642.9,70.1,1645.8,72.5z M1642.3,91.1c2.3-1.9,3.5-4.6,3.5-8.3c0-3.6-1.1-6.2-3.4-7.9
		c-2.3-1.7-5.7-2.6-10.3-2.8l-12.4-0.1v21.6l12.4,0.2C1636.6,93.9,1640,93,1642.3,91.1z"/>
	<path class="st6" d="M1708.7,55.3c3.3,1.9,5.8,4.5,7.7,8c1.9,3.4,2.8,7.3,2.8,11.7c0,4.3-0.9,8.2-2.8,11.6c-1.9,3.4-4.4,6.1-7.7,8
		c-3.3,1.9-7,2.9-11.1,2.9c-4,0-7.5-0.9-10.7-2.6c-3.2-1.8-5.7-4.2-7.6-7.4c-1.9-3.2-3-6.8-3.2-10.8h-11.3V97h-4.2V52.8h4.2v19.8
		h11.3c0.3-4,1.5-7.5,3.4-10.5c1.9-3.1,4.5-5.4,7.6-7.1c3.2-1.7,6.7-2.5,10.5-2.5C1701.7,52.4,1705.4,53.4,1708.7,55.3z
		 M1706.5,91.3c2.7-1.6,4.7-3.8,6.2-6.7c1.5-2.9,2.2-6.1,2.2-9.7c0-3.7-0.8-6.9-2.2-9.7c-1.5-2.8-3.6-5-6.2-6.6
		c-2.7-1.6-5.6-2.3-8.9-2.3c-3.3,0-6.2,0.8-8.9,2.3c-2.7,1.6-4.7,3.7-6.2,6.6c-1.5,2.8-2.2,6.1-2.2,9.7c0,3.6,0.7,6.9,2.2,9.7
		c1.5,2.9,3.6,5.1,6.2,6.7c2.7,1.6,5.6,2.4,8.9,2.4C1700.9,93.6,1703.8,92.8,1706.5,91.3z"/>
	<path class="st6" d="M1761.1,56.6h-17.3V97h-4.2V56.6h-17.3v-3.8h38.8V56.6z"/>
	<path class="st6" d="M1774.9,94.5c-3.4-1.9-6-4.6-7.9-8c-1.9-3.4-2.9-7.3-2.9-11.6c0-4.3,1-8.2,2.9-11.6c1.9-3.4,4.6-6.1,7.9-8
		c3.4-1.9,7.1-2.9,11.3-2.9c4.2,0,8,1,11.3,2.9c3.4,1.9,6,4.6,7.9,8c1.9,3.4,2.9,7.3,2.9,11.6c0,4.3-1,8.2-2.9,11.6
		c-1.9,3.4-4.6,6.1-7.9,8c-3.4,1.9-7.1,2.9-11.3,2.9C1782.1,97.4,1778.3,96.4,1774.9,94.5z M1795.3,91.2c2.7-1.6,4.8-3.8,6.4-6.6
		c1.6-2.8,2.3-6,2.3-9.7c0-3.6-0.8-6.8-2.3-9.7c-1.6-2.8-3.7-5-6.4-6.6c-2.7-1.6-5.7-2.4-9.1-2.4s-6.4,0.8-9.1,2.4
		c-2.7,1.6-4.8,3.8-6.4,6.6c-1.6,2.8-2.3,6-2.3,9.7c0,3.6,0.8,6.8,2.3,9.7c1.6,2.8,3.7,5,6.4,6.6c2.7,1.6,5.7,2.4,9.1,2.4
		S1792.7,92.8,1795.3,91.2z"/>
	<path class="st6" d="M1854.1,55.3c3.3,1.9,5.9,4.6,7.8,8c1.9,3.4,2.8,7.3,2.8,11.6c0,4.4-0.9,8.2-2.8,11.7c-1.9,3.4-4.5,6.1-7.8,8
		c-3.3,1.9-7.1,2.8-11.2,2.8c-3.9,0-7.4-0.9-10.6-2.8c-3.2-1.8-5.6-4.4-7.4-7.7v26.5h-4.2V52.8h4.1v10.4c1.8-3.4,4.2-6,7.4-7.9
		c3.2-1.9,6.8-2.8,10.7-2.8C1847,52.4,1850.7,53.4,1854.1,55.3z M1851.8,91.2c2.7-1.6,4.8-3.8,6.4-6.6c1.6-2.8,2.3-6,2.3-9.7
		c0-3.6-0.8-6.8-2.3-9.7c-1.6-2.8-3.7-5-6.4-6.6c-2.7-1.6-5.8-2.4-9.2-2.4s-6.4,0.8-9.1,2.4c-2.7,1.6-4.8,3.8-6.4,6.6
		c-1.6,2.8-2.3,6-2.3,9.7c0,3.6,0.8,6.8,2.3,9.7c1.6,2.8,3.7,5,6.4,6.6c2.7,1.6,5.7,2.4,9.1,2.4S1849.1,92.8,1851.8,91.2z"/>
</g>
</svg>
