<?xml version="1.0" encoding="utf-8"?>
<!-- Generator: Adobe Illustrator 25.2.3, SVG Export Plug-In . SVG Version: 6.00 Build 0)  -->
<svg version="1.1" id="РЎР»РѕР№_1" xmlns="http://www.w3.org/2000/svg" xmlns:xlink="http://www.w3.org/1999/xlink" x="0px" y="0px"
	 viewBox="0 0 150 41.7" style="enable-background:new 0 0 150 41.7;" xml:space="preserve">
<style type="text/css">
	.st0{fill-rule:evenodd;clip-rule:evenodd;fill:#00AD61;}
</style>
<g>
	<g>
		<path d="M7.1,11.6c0.7,0.3,1.3,0.8,1.6,1.4c0.4,0.6,0.6,1.3,0.6,2.1c0,0.8-0.2,1.5-0.6,2.1c-0.4,0.6-0.9,1-1.6,1.4
			s-1.5,0.5-2.5,0.5H2.1v3.2H0v-11h4.5C5.5,11.1,6.4,11.3,7.1,11.6z M6.5,16.6C7,16.3,7.2,15.7,7.2,15c0-0.7-0.2-1.2-0.7-1.6
			c-0.5-0.4-1.1-0.6-2-0.6H2.1v4.4h2.4C5.4,17.2,6,17,6.5,16.6z"/>
		<path d="M146.8,19.6h-5.5l-1.1,2.6h-2.1l5-11h2l5,11h-2.1L146.8,19.6z M146.1,18l-2.1-4.8l-2.1,4.8H146.1z"/>
		<path d="M20.1,11.1L15.3,20c-0.4,0.8-0.9,1.4-1.5,1.8c-0.6,0.4-1.2,0.6-1.9,0.6c-0.5,0-1.1-0.1-1.6-0.3l0.5-1.6
			c0.4,0.1,0.8,0.2,1.1,0.2c0.7,0,1.2-0.3,1.6-1l0.2-0.3l-4.4-8.2h2.2l3.3,6.5l3.4-6.5H20.1z"/>
		<path d="M22.8,21.6c-0.9-0.5-1.6-1.2-2.1-2c-0.5-0.9-0.8-1.8-0.8-2.9c0-1.1,0.3-2.1,0.8-2.9c0.5-0.9,1.2-1.5,2.1-2
			c0.9-0.5,1.9-0.7,3-0.7c0.9,0,1.7,0.2,2.5,0.5c0.7,0.3,1.4,0.8,1.9,1.4L28.8,14c-0.8-0.9-1.8-1.3-2.9-1.3c-0.8,0-1.4,0.2-2,0.5
			c-0.6,0.3-1.1,0.8-1.4,1.4c-0.3,0.6-0.5,1.3-0.5,2c0,0.7,0.2,1.4,0.5,2c0.3,0.6,0.8,1,1.4,1.4c0.6,0.3,1.3,0.5,2,0.5
			c1.2,0,2.1-0.4,2.9-1.3l1.3,1.3c-0.5,0.6-1.1,1.1-1.9,1.4c-0.8,0.3-1.6,0.5-2.5,0.5C24.7,22.3,23.7,22,22.8,21.6z"/>
		<path d="M57,17.4c0.4,0.5,0.6,1,0.6,1.7c0,1-0.4,1.7-1.1,2.3c-0.7,0.5-1.7,0.8-3.1,0.8h-5.2v-11h4.9c1.2,0,2.2,0.2,2.9,0.7
			c0.7,0.5,1,1.2,1,2.1c0,0.6-0.1,1.1-0.4,1.5c-0.3,0.4-0.7,0.7-1.2,1C56.1,16.6,56.6,16.9,57,17.4z M50.2,15.8h2.7
			c0.7,0,1.2-0.1,1.5-0.4c0.3-0.3,0.5-0.7,0.5-1.2c0-0.5-0.2-0.9-0.5-1.2c-0.3-0.3-0.9-0.4-1.5-0.4h-2.7V15.8z M55.5,18.9
			c0-1.1-0.7-1.6-2.2-1.6h-3.1v3.2h3.1C54.8,20.6,55.5,20,55.5,18.9z"/>
		<path d="M67.4,12.8h-3.7v9.3h-2v-9.3h-3.6v-1.7h9.3V12.8z"/>
		<path d="M70.5,21.6c-0.9-0.5-1.6-1.2-2.1-2c-0.5-0.9-0.8-1.8-0.8-2.9c0-1.1,0.3-2,0.8-2.9c0.5-0.9,1.2-1.5,2.1-2
			c0.9-0.5,1.9-0.7,3-0.7c1.1,0,2.1,0.2,3,0.7c0.9,0.5,1.6,1.2,2.1,2c0.5,0.9,0.8,1.8,0.8,2.9c0,1.1-0.3,2.1-0.8,2.9
			c-0.5,0.9-1.2,1.5-2.1,2c-0.9,0.5-1.9,0.7-3,0.7C72.4,22.3,71.4,22,70.5,21.6z M75.5,20c0.6-0.3,1-0.8,1.4-1.4
			c0.3-0.6,0.5-1.3,0.5-2c0-0.7-0.2-1.4-0.5-2c-0.3-0.6-0.8-1.1-1.4-1.4c-0.6-0.3-1.2-0.5-2-0.5c-0.7,0-1.4,0.2-2,0.5
			c-0.6,0.3-1,0.8-1.4,1.4c-0.3,0.6-0.5,1.3-0.5,2c0,0.7,0.2,1.4,0.5,2c0.3,0.6,0.8,1.1,1.4,1.4c0.6,0.3,1.2,0.5,2,0.5
			C74.3,20.5,74.9,20.3,75.5,20z"/>
		<path d="M91.3,22.1l0-7.3l-3.6,6h-0.9l-3.6-6v7.2h-1.9v-11h1.7l4.4,7.3l4.3-7.3h1.7l0,11H91.3z"/>
		<path d="M102.9,19.6h-5.5l-1.1,2.6h-2.1l5-11h2l5,11H104L102.9,19.6z M102.2,18l-2.1-4.8L98.1,18H102.2z"/>
		<path d="M114.3,12.8h-3.7v9.3h-2v-9.3H105v-1.7h9.3V12.8z"/>
		<path d="M115.8,11.1h2v7.8l5.9-7.8h1.9v11h-2v-7.8l-5.9,7.8h-1.9V11.1z"/>
		<path d="M132.1,17.5h-2v4.6h-2v-11h2v4.6h2.1l3.2-4.6h2.2l-3.8,5.3l3.9,5.7h-2.3L132.1,17.5z"/>
		<path id="РњРЅРѕРіРѕСѓРіРѕР»СЊРЅРёРє_1_5_" class="st0" d="M46.5,25.2l103.4,0v2.7l-106.1,0l-1.7-6.4l-6.9,0l-1.9,6.4L0,27.9v-2.7
			l30.8,0.1l8.2-24.9L46.5,25.2z M41,18.2l-4.5,0l2.3-8.1L41,18.2z"/>
	</g>
	<g>
		<path d="M1.5,38c-0.5-0.3-0.8-0.6-1.1-1.1C0.1,36.5,0,36,0,35.4c0-0.6,0.1-1.1,0.4-1.5c0.3-0.4,0.6-0.8,1.1-1.1
			c0.5-0.3,1-0.4,1.6-0.4c0.6,0,1.1,0.1,1.6,0.4c0.5,0.3,0.8,0.6,1.1,1.1c0.3,0.4,0.4,1,0.4,1.5S6,36.5,5.7,37
			c-0.3,0.4-0.6,0.8-1.1,1.1c-0.5,0.3-1,0.4-1.6,0.4C2.5,38.4,2,38.3,1.5,38z M4.2,37.4c0.3-0.2,0.6-0.5,0.8-0.8
			c0.2-0.3,0.3-0.7,0.3-1.1c0-0.4-0.1-0.8-0.3-1.1c-0.2-0.3-0.5-0.6-0.8-0.8c-0.3-0.2-0.7-0.3-1.1-0.3c-0.4,0-0.8,0.1-1.1,0.3
			c-0.3,0.2-0.6,0.5-0.8,0.8c-0.2,0.3-0.3,0.7-0.3,1.1c0,0.4,0.1,0.8,0.3,1.1c0.2,0.3,0.5,0.6,0.8,0.8c0.3,0.2,0.7,0.3,1.1,0.3
			C3.5,37.7,3.9,37.6,4.2,37.4z"/>
		<path d="M13,37.2c-0.5,0.4-1.3,0.7-2.3,0.7v0.6H10v-0.6c-1,0-1.7-0.3-2.3-0.7c-0.5-0.4-0.8-1-0.8-1.8c0-0.8,0.3-1.4,0.8-1.8
			c0.5-0.4,1.3-0.7,2.3-0.7v-0.6h0.8v0.6c1,0,1.7,0.3,2.3,0.7c0.5,0.4,0.8,1,0.8,1.8C13.8,36.2,13.6,36.8,13,37.2z M8.4,36.7
			c0.4,0.3,1,0.5,1.7,0.5v-3.7c-0.7,0-1.3,0.2-1.7,0.5c-0.4,0.3-0.6,0.8-0.6,1.3C7.8,36,8,36.4,8.4,36.7z M12.5,36.7
			c0.4-0.3,0.6-0.8,0.6-1.3c0-0.6-0.2-1-0.6-1.3c-0.4-0.3-1-0.5-1.7-0.5v3.7C11.5,37.2,12.1,37.1,12.5,36.7z"/>
		<path d="M14.9,32.6h0.8V37l3.4-4.4h0.8v5.8h-0.8v-4.4l-3.4,4.4h-0.8V32.6z"/>
		<path d="M27.2,37.6v2h-0.8v-1.3h-5v-5.8h0.8v5h3.2v-5h0.8v5H27.2z"/>
		<path d="M28.2,32.6H29V37l3.4-4.4h0.8v5.8h-0.8v-4.4l-3.4,4.4h-0.8V32.6z"/>
		<path d="M38.6,36.9h-3.1l-0.6,1.4h-0.8l2.6-5.8h0.8l2.6,5.8h-0.9L38.6,36.9z M38.3,36.2l-1.2-2.8l-1.2,2.8H38.3z"/>
		<path d="M46.2,32.6v5.8h-0.8v-5h-2.6L42.8,35c0,0.8-0.1,1.4-0.2,1.9c-0.1,0.5-0.3,0.9-0.5,1.1c-0.2,0.2-0.5,0.4-0.9,0.4
			c-0.2,0-0.3,0-0.5-0.1l0.1-0.7c0.1,0,0.2,0,0.3,0c0.2,0,0.4-0.1,0.6-0.3c0.1-0.2,0.2-0.5,0.3-0.9c0.1-0.4,0.1-0.9,0.1-1.5l0.1-2.4
			H46.2z"/>
		<path d="M51.9,35c0.4,0.3,0.5,0.8,0.5,1.4c0,0.6-0.2,1.1-0.6,1.4c-0.4,0.3-1,0.5-1.7,0.5h-2.4v-5.8h0.8v2h1.7
			C51,34.6,51.5,34.7,51.9,35z M51.2,37.3c0.3-0.2,0.4-0.5,0.4-0.9c0-0.8-0.5-1.2-1.5-1.2h-1.5v2.5h1.5C50.6,37.7,51,37.6,51.2,37.3
			z"/>
		<path d="M58.4,32.6v5.8h-0.8v-2.6h-3.3v2.6h-0.8v-5.8h0.8V35h3.3v-2.5H58.4z"/>
		<path d="M64.1,35c0.4,0.3,0.5,0.8,0.5,1.4c0,0.6-0.2,1.1-0.6,1.4c-0.4,0.3-1,0.5-1.7,0.5H60v-5.8h0.8v2h1.7
			C63.2,34.6,63.7,34.7,64.1,35z M63.4,37.3c0.3-0.2,0.4-0.5,0.4-0.9c0-0.8-0.5-1.2-1.5-1.2h-1.5v2.5h1.5
			C62.8,37.7,63.2,37.6,63.4,37.3z M65.5,32.6h0.8v5.8h-0.8V32.6z"/>
		<path d="M67.9,32.6h0.8V37l3.4-4.4h0.8v5.8h-0.8v-4.4l-3.4,4.4h-0.8V32.6z M69.3,31.9C69.1,31.7,69,31.4,69,31h0.6
			c0,0.2,0.1,0.4,0.2,0.5c0.1,0.1,0.3,0.2,0.6,0.2c0.2,0,0.4-0.1,0.6-0.2c0.2-0.1,0.2-0.3,0.2-0.5h0.6c0,0.4-0.1,0.6-0.4,0.8
			c-0.2,0.2-0.6,0.3-1,0.3C69.9,32.2,69.6,32.1,69.3,31.9z"/>
		<path d="M82.8,37.6v2H82v-1.3h-4.7l0,1.3h-0.8l0-2h0.3c0.4,0,0.6-0.3,0.8-0.9c0.1-0.6,0.2-1.3,0.3-2.3l0.1-1.9h4v5H82.8z
			 M78.4,36.5c-0.1,0.5-0.3,0.9-0.5,1.1h3.3v-4.3h-2.5l0,1.2C78.5,35.3,78.5,36,78.4,36.5z"/>
		<path d="M83.8,32.6h0.8V37l3.4-4.4h0.8v5.8h-0.8v-4.4l-3.4,4.4h-0.8V32.6z"/>
		<path d="M91.4,38c-0.5-0.3-0.8-0.6-1.1-1.1c-0.3-0.4-0.4-1-0.4-1.5s0.1-1.1,0.4-1.5c0.3-0.4,0.6-0.8,1.1-1.1
			c0.5-0.3,1-0.4,1.6-0.4c0.4,0,0.9,0.1,1.2,0.2c0.4,0.2,0.7,0.4,1,0.7l-0.5,0.5c-0.4-0.5-1-0.7-1.6-0.7c-0.4,0-0.8,0.1-1.2,0.3
			c-0.3,0.2-0.6,0.5-0.8,0.8c-0.2,0.3-0.3,0.7-0.3,1.1c0,0.4,0.1,0.8,0.3,1.1c0.2,0.3,0.5,0.6,0.8,0.8c0.3,0.2,0.7,0.3,1.2,0.3
			c0.6,0,1.2-0.2,1.6-0.7l0.5,0.5c-0.3,0.3-0.6,0.5-1,0.7c-0.4,0.2-0.8,0.2-1.2,0.2C92.4,38.4,91.9,38.3,91.4,38z"/>
		<path d="M100.6,33.3h-2v5h-0.8v-5h-2v-0.7h4.7V33.3z"/>
		<path d="M105.5,33.1c0.4,0.4,0.6,0.8,0.6,1.5s-0.2,1.1-0.6,1.5c-0.4,0.4-1,0.5-1.8,0.5h-1.4v1.7h-0.8v-5.8h2.2
			C104.5,32.6,105.1,32.7,105.5,33.1z M104.9,35.5c0.3-0.2,0.4-0.5,0.4-1c0-0.4-0.1-0.7-0.4-1c-0.3-0.2-0.7-0.3-1.2-0.3h-1.4v2.6
			h1.4C104.2,35.9,104.6,35.8,104.9,35.5z"/>
		<path d="M107.2,32.6h0.8V37l3.4-4.4h0.8v5.8h-0.8v-4.4l-3.4,4.4h-0.8V32.6z"/>
		<path d="M113.7,32.6h4.3v0.7h-3.5v1.6h1.8c0.7,0,1.2,0.1,1.6,0.4c0.4,0.3,0.5,0.7,0.5,1.2c0,0.6-0.2,1-0.6,1.3
			c-0.4,0.3-0.9,0.5-1.7,0.5h-2.5V32.6z M116.1,37.7c0.5,0,0.8-0.1,1.1-0.3c0.2-0.2,0.4-0.4,0.4-0.8c0-0.7-0.5-1-1.4-1h-1.6v2.1
			H116.1z"/>
		<path d="M123.6,35c0.4,0.3,0.5,0.8,0.5,1.4c0,0.6-0.2,1.1-0.6,1.4c-0.4,0.3-1,0.5-1.7,0.5h-2.4v-5.8h0.8v2h1.7
			C122.7,34.6,123.3,34.7,123.6,35z M123,37.3c0.3-0.2,0.4-0.5,0.4-0.9c0-0.8-0.5-1.2-1.5-1.2h-1.5v2.5h1.5
			C122.4,37.7,122.7,37.6,123,37.3z"/>
		<path d="M131.5,32.9c0.4,0.3,0.8,0.6,1,1.1c0.3,0.4,0.4,1,0.4,1.5s-0.1,1.1-0.4,1.5c-0.3,0.4-0.6,0.8-1,1.1
			c-0.4,0.3-0.9,0.4-1.5,0.4c-0.5,0-1-0.1-1.4-0.3c-0.4-0.2-0.8-0.5-1-0.9c-0.3-0.4-0.4-0.8-0.5-1.3H126v2.6h-0.8v-5.8h0.8V35h1.1
			c0.1-0.5,0.2-0.9,0.5-1.3c0.3-0.4,0.6-0.7,1-0.9c0.4-0.2,0.9-0.3,1.4-0.3C130.5,32.5,131,32.6,131.5,32.9z M131,37.4
			c0.3-0.2,0.6-0.5,0.8-0.8c0.2-0.3,0.3-0.7,0.3-1.1c0-0.4-0.1-0.8-0.3-1.1c-0.2-0.3-0.4-0.6-0.8-0.8c-0.3-0.2-0.7-0.3-1.1-0.3
			c-0.4,0-0.7,0.1-1.1,0.3c-0.3,0.2-0.6,0.5-0.8,0.8c-0.2,0.3-0.3,0.7-0.3,1.1c0,0.4,0.1,0.8,0.3,1.1c0.2,0.3,0.4,0.6,0.8,0.8
			c0.3,0.2,0.7,0.3,1.1,0.3C130.4,37.6,130.7,37.6,131,37.4z"/>
		<path d="M137.9,33.3h-2v5h-0.8v-5h-2v-0.7h4.7V33.3z"/>
		<path d="M139.5,38c-0.5-0.3-0.8-0.6-1.1-1.1c-0.3-0.4-0.4-1-0.4-1.5c0-0.6,0.1-1.1,0.4-1.5c0.3-0.4,0.6-0.8,1.1-1.1
			c0.5-0.3,1-0.4,1.6-0.4c0.6,0,1.1,0.1,1.6,0.4c0.5,0.3,0.8,0.6,1.1,1.1c0.3,0.4,0.4,1,0.4,1.5s-0.1,1.1-0.4,1.5
			c-0.3,0.4-0.6,0.8-1.1,1.1c-0.5,0.3-1,0.4-1.6,0.4C140.5,38.4,139.9,38.3,139.5,38z M142.2,37.4c0.3-0.2,0.6-0.5,0.8-0.8
			c0.2-0.3,0.3-0.7,0.3-1.1c0-0.4-0.1-0.8-0.3-1.1c-0.2-0.3-0.5-0.6-0.8-0.8c-0.3-0.2-0.7-0.3-1.1-0.3c-0.4,0-0.8,0.1-1.1,0.3
			c-0.3,0.2-0.6,0.5-0.8,0.8c-0.2,0.3-0.3,0.7-0.3,1.1c0,0.4,0.1,0.8,0.3,1.1c0.2,0.3,0.5,0.6,0.8,0.8c0.3,0.2,0.7,0.3,1.1,0.3
			C141.5,37.7,141.8,37.6,142.2,37.4z"/>
		<path d="M149.3,33.1c0.4,0.4,0.6,0.8,0.6,1.5s-0.2,1.1-0.6,1.5c-0.4,0.4-1,0.5-1.8,0.5h-1.4v1.7h-0.8v-5.8h2.2
			C148.3,32.6,148.8,32.7,149.3,33.1z M148.7,35.5c0.3-0.2,0.4-0.5,0.4-1c0-0.4-0.1-0.7-0.4-1c-0.3-0.2-0.7-0.3-1.2-0.3h-1.4v2.6
			h1.4C148,35.9,148.4,35.8,148.7,35.5z"/>
	</g>
</g>
</svg>
