<?xml version="1.0" encoding="utf-8"?>
<!-- Generator: Adobe Illustrator 25.2.3, SVG Export Plug-In . SVG Version: 6.00 Build 0)  -->
<svg version="1.1" id="РЎР»РѕР№_1" xmlns="http://www.w3.org/2000/svg" xmlns:xlink="http://www.w3.org/1999/xlink" x="0px" y="0px"
	 viewBox="0 0 850 650" style="enable-background:new 0 0 850 650;" xml:space="preserve">
<style type="text/css">
	.st0{display:none;}
	.st1{display:inline;fill:#206F4B;}
	.st2{fill:#206F4B;}
</style>
<g class="st0">
	<path class="st1" d="M850,617.6c-2.6,9.7-7.3,18.2-16.2,24.2c-7.1,4.8-15,7.4-23.8,7.4c-62,0-124,0-186,0c-95.1,0-190.1,0-285.2,0
		c-81.7,0-163.4,0-245,0c-17.6,0-35.3,0-52.9,0C17.4,649.2,0,632.9,0,610.9C0,420.2,0,229.6,0,39C0,16.9,17.3,0.7,41,0.7
		c113.2,0,226.3,0,339.5,0c109.5,0,219.1,0,328.6,0c32.4,0,64.8,0,97.3,0c23,0,36.3,9.3,43,30c0.2,0.6,0.5,1.1,0.7,1.6
		C850,227.4,850,422.5,850,617.6z M425.3,25.7c-23.8,0-47.5,0-71.3,0c-103.6,0-207.1,0-310.7,0c-12.2,0-16.7,4.3-16.7,15.8
		c0,59.3,0,118.5,0,177.8c0,130,0,260.1,0,390.1c0,10,4.9,14.7,15.5,14.7c22.5,0.1,45,0.1,67.5,0.1c119.6,0,239.2,0,358.8-0.1
		c112.7,0,225.4,0,338.1,0c12.5,0,17-4.2,17-16c0-105.4,0-210.7,0-316.1c0-83.8,0-167.6,0-251.4c0-10.4-4.8-14.9-15.7-15
		c-12.3,0-24.6,0-36.8,0C655.7,25.7,540.5,25.7,425.3,25.7z"/>
	<path class="st1" d="M235.8,275.2c-32.5,0-65,0-97.5,0c-24.3,0-40.5-16.9-39.6-41.2c2.5-67.3,51.1-122.1,117.3-132.1
		c78.5-11.9,151.4,46.5,156.7,125.7c0.3,4.7,0.7,9.5,0.2,14.1c-2.3,19.6-17.8,33.3-37.8,33.4C301.9,275.2,268.9,275.1,235.8,275.2
		C235.8,275.1,235.8,275.2,235.8,275.2z M250.4,250.1c7.7,0,14.5,0,21.2,0c21,0,42,0,62.9,0c8.5,0,13.6-5.2,13.5-13.6
		c-0.1-4.9-0.3-9.8-1.1-14.6c-9.5-63.3-68.3-105.6-131.4-94.7c-51.9,9-91.5,55.7-91.9,108.2c-0.1,9.2,4.7,14.6,13.4,14.7
		c27,0.1,54.1,0,81.1,0.1c2.5,0,3.9-0.8,5.2-3c12.8-21.8,25.8-43.4,38.8-65.1c4.1-6.8,11.2-8.7,17.4-5.1c6.3,3.7,7.9,11.2,3.8,18.2
		c-2.8,4.9-5.8,9.6-8.7,14.4C266.8,222.8,259,236,250.4,250.1z"/>
	<path class="st1" d="M597.6,381.7c0,26.4,0.1,52.9,0,79.3c0,10.8-10.2,17.1-18.9,11.8c-4.5-2.7-6-6.9-6-12c0.1-30.4,0-60.9,0-91.3
		c0-22-0.1-44,0.1-66c0-3.6-0.9-5.3-4.5-6.6c-26.5-9.5-39.9-39-29.7-64.6c10.7-26.8,40.2-39.2,66.5-27.9c18.7,8,30.5,26.8,29.9,47.7
		c-0.5,20-13.4,37.9-32.7,44.8c-3.8,1.4-4.7,3.1-4.7,6.9C597.7,329.7,597.6,355.7,597.6,381.7C597.6,381.7,597.6,381.7,597.6,381.7z
		 M560.2,250.3c0.1,13.6,11.4,24.9,24.9,24.8c13.5,0,24.8-11.4,24.9-24.9c0.1-13.8-11.3-25.1-25.1-24.9
		C571.1,225.4,560.2,236.5,560.2,250.3z"/>
	<path class="st1" d="M447.8,431.8c0-9.9-0.1-19.8,0.1-29.7c0-2.7-0.7-4.1-3.5-5.1c-24-8.4-37.5-31.6-33-56.4
		c4.4-24.1,25.3-41,50.3-40.7c23.5,0.3,43.9,18,47.9,41.5c4,23.7-9.3,46.8-32,55.1c-3.6,1.3-4.9,2.8-4.9,6.8
		c0.3,18.5,0.1,36.9,0.1,55.4c0,1.9,0.1,3.9-0.2,5.7c-1.1,5.9-6.9,10.4-12.8,10c-6.5-0.4-11.8-5.8-11.8-12.6
		C447.7,451.9,447.8,441.9,447.8,431.8z M485.2,349.7c0-13.6-11.2-24.8-24.9-24.8c-13.5,0-24.9,11.3-24.9,24.8
		c0,13.8,11.3,25,25.2,24.9C474.3,374.6,485.2,363.5,485.2,349.7z"/>
	<path class="st1" d="M697.2,443.9c0-5.3-0.2-10.6,0.1-15.9c0.2-3.5-0.9-5.1-4.3-6.3c-24.9-9.2-38.2-34.9-31.4-59.9
		c6.3-22.8,27.2-37.8,51.3-36.7c22.5,1.1,42.2,18.5,46.1,40.9c4.1,23.3-8.2,46-30.2,54.7c-5.2,2-6.8,4.4-6.6,9.8
		c0.5,9.9,0.2,19.8,0.1,29.7c0,8.7-5.2,14.6-12.7,14.5c-7.2-0.1-12.4-6.1-12.4-14.4c0-2.8,0-5.6,0-8.4
		C697.2,449.2,697.2,446.5,697.2,443.9C697.2,443.9,697.2,443.9,697.2,443.9z M710,399.7c13.6-0.1,24.8-11.4,24.7-25
		c-0.1-13.7-11.3-24.8-24.9-24.8c-13.7,0-25.2,11.6-25,25.2C685,388.7,696.3,399.8,710,399.7z"/>
	<path class="st1" d="M697.2,199.9c0-28.4,0-56.7,0-85.1c0-7.6,3.9-13,10.2-14.1c7.9-1.5,14.8,4.3,14.9,12.9
		c0.2,14.2,0.1,28.4,0,42.5c0,41.5,0,83,0,124.5c0,2.2,0.1,4.4,0,6.6c-0.3,7.4-5.6,12.8-12.5,12.8c-6.8,0-12.4-5.6-12.5-12.9
		c-0.1-13,0-26-0.1-39C697.2,232.1,697.2,216,697.2,199.9z"/>
	<path class="st1" d="M223.3,449.8c-28.4,0-56.7,0.1-85.1-0.1c-3.4,0-7.3-1.3-10.2-3.2c-4.4-3-5.4-8-3.8-13.1
		c1.4-4.9,5.9-8.3,11.3-8.5c5.2-0.2,10.3-0.1,15.5-0.1c50.9,0,101.9,0,152.8,0c2.1,0,4.1,0,6.2,0.1c7.8,0.3,13.1,5.4,13,12.7
		c-0.1,7.2-5.5,12.3-13.4,12.3c-11.5,0.1-23,0-34.6,0C257.9,449.8,240.6,449.8,223.3,449.8z"/>
	<path class="st1" d="M472.8,188c0,23.2,0,46.4,0,69.6c0,1.5,0,3,0,4.4c-0.2,7.5-5.4,13-12.3,13.1c-7.1,0.1-12.6-5.4-12.7-13.2
		c-0.1-11.5,0-23.1,0-34.6c0-37.7,0-75.4,0-113c0-5.9,2.2-10.4,7.7-12.8c4.8-2.1,9.3-1.2,13.2,2.1c3.3,2.8,4.2,6.6,4.2,10.8
		C472.8,139,472.8,163.5,472.8,188z"/>
	<path class="st1" d="M210.5,399.7c-24.7,0-49.3,0-74,0c-6.6,0-11.3-3.8-12.6-9.7c-1.2-5.5,1.4-11.2,6.6-13.7
		c1.9-0.9,4.2-1.5,6.4-1.5c49.3-0.1,98.7-0.1,148,0c7.9,0,13.4,5.5,13.3,13c-0.1,7-5.4,11.9-13.2,12
		C260.2,399.7,235.4,399.7,210.5,399.7z"/>
	<path class="st1" d="M185.7,349.9c-16,0-31.9,0-47.9,0c-8.5,0-14.1-5-14.1-12.5c0-7.5,5.5-12.5,14.1-12.5c32.2,0,64.4-0.1,96.6,0
		c9.8,0,16.1,7.7,13.4,16.2c-1.7,5.5-6.2,8.7-12.5,8.7C218.8,349.9,202.2,349.8,185.7,349.9C185.7,349.9,185.7,349.9,185.7,349.9z"
		/>
	<path class="st1" d="M310.8,324.9c8,0,16-0.1,23.9,0c7.7,0.1,13.4,5.4,13.5,12.3c0.1,7.3-5.5,12.5-13.6,12.6
		c-16,0.1-31.9,0.1-47.9,0c-7.8,0-13.4-5.2-13.5-12.3c-0.1-7.2,5.6-12.6,13.6-12.6C294.8,324.9,302.8,324.9,310.8,324.9
		C310.8,324.9,310.8,324.9,310.8,324.9z"/>
	<path class="st1" d="M572.7,137.4c0-8-0.1-15.9,0-23.9c0.1-7.7,5.1-12.9,12.2-12.9c7.1-0.1,12.5,5.2,12.6,12.6
		c0.1,16.5,0.2,33.1,0,49.6c-0.1,7.4-5.7,12.6-12.8,12.5c-6.8-0.1-12-5.4-12.1-12.6C572.5,154.2,572.6,145.8,572.7,137.4
		C572.6,137.4,572.7,137.4,572.7,137.4z"/>
	<path class="st1" d="M123.6,549.6c0,4.3,0.2,8.6,0,12.8c-0.4,6.8-5.4,11.7-11.9,11.9c-6.8,0.2-12.6-4.5-12.9-11.4
		c-0.4-9-0.4-18,0-27c0.3-6.7,5.9-11.5,12.3-11.5c6.6,0,12.1,5,12.5,11.9C123.9,540.7,123.7,545.2,123.6,549.6
		C123.6,549.6,123.6,549.6,123.6,549.6z"/>
	<path class="st1" d="M722.2,549.4c0-4.1-0.1-8.3,0-12.4c0.3-7.2,5.5-12.4,12.3-12.5c6.8-0.2,12.4,4.9,12.6,12.1
		c0.3,8.4,0.3,16.8,0.1,25.2c-0.2,7.4-5.7,12.5-12.8,12.5c-6.9-0.1-11.9-5.1-12.2-12.5C722.2,557.6,722.3,553.5,722.2,549.4
		C722.2,549.4,722.2,549.4,722.2,549.4z"/>
	<path class="st1" d="M161.1,549.4c0-4.3-0.1-8.6,0-12.8c0.2-6.9,5.5-12,12.1-12.1c6.7-0.1,12.4,4.8,12.7,11.6c0.3,9,0.3,18-0.1,27
		c-0.3,6.7-6.2,11.5-13,11.2c-6.6-0.3-11.5-5.2-11.7-12C161,558,161.2,553.7,161.1,549.4C161.1,549.4,161.1,549.4,161.1,549.4z"/>
	<path class="st1" d="M310.7,549.3c0,4.3,0.2,8.6,0,12.8c-0.3,7-5.4,12-12.1,12.2c-6.8,0.1-12.5-4.9-12.8-12
		c-0.3-8.7-0.3-17.4,0.1-26.1c0.3-6.9,5.9-11.8,12.5-11.7c6.7,0.1,11.9,5.1,12.2,12C310.8,540.8,310.6,545.1,310.7,549.3
		C310.6,549.3,310.7,549.3,310.7,549.3z"/>
	<path class="st1" d="M373.1,549.7c0,4.1,0.2,8.3,0,12.4c-0.3,7.2-5.7,12.3-12.5,12.2c-7-0.1-12.2-5.2-12.4-12.3
		c-0.2-8.4-0.1-16.8,0-25.2c0.2-7,5.3-12.2,12-12.3c6.8-0.1,12.5,5,12.9,12C373.3,540.8,373.1,545.3,373.1,549.7
		C373.1,549.7,373.1,549.7,373.1,549.7z"/>
	<path class="st1" d="M684.7,549.5c0,4.3,0.1,8.6,0,12.8c-0.2,6.8-5.2,11.7-11.8,12c-6.7,0.2-12.6-4.6-12.9-11.3
		c-0.4-9-0.4-18-0.1-27c0.2-6.7,6.1-11.7,12.7-11.6c6.6,0.1,11.8,5.3,12.1,12.2C684.9,540.9,684.8,545.2,684.7,549.5
		C684.8,549.5,684.7,549.5,684.7,549.5z"/>
	<path class="st1" d="M223.4,549.6c0-4.1-0.1-8.3,0-12.4c0.2-7.3,5.5-12.6,12.5-12.7c6.8,0,12.2,5.2,12.3,12.4
		c0.2,8.2,0.2,16.5,0,24.7c-0.1,7.4-5.4,12.6-12.5,12.7c-7,0-12.2-5.3-12.3-12.8C223.3,557.5,223.4,553.5,223.4,549.6
		C223.4,549.6,223.4,549.6,223.4,549.6z"/>
	<path class="st1" d="M497.7,549.7c0,4.1,0.1,8.3,0,12.4c-0.3,7.1-5.6,12.2-12.6,12.2c-6.6,0-12.1-5.1-12.3-12
		c-0.2-8.5-0.3-17.1,0-25.6c0.2-7,5.8-12.2,12.6-12.2c6.8,0,12,5.2,12.2,12.5C497.8,541.2,497.7,545.5,497.7,549.7
		C497.7,549.7,497.7,549.7,497.7,549.7z"/>
	<path class="st1" d="M535.2,549.3c0-4.1-0.1-8.3,0-12.4c0.3-7.2,5.5-12.4,12.3-12.4c6.8,0,12.3,5.1,12.6,12.2
		c0.3,8.4,0.3,16.8,0,25.2c-0.2,7.3-5.9,12.6-12.9,12.4c-6.9-0.2-11.9-5.3-12.1-12.6C535.1,557.6,535.2,553.4,535.2,549.3
		C535.2,549.3,535.2,549.3,535.2,549.3z"/>
	<path class="st1" d="M435.4,549.5c0,4.1,0.1,8.3,0,12.4c-0.2,7.2-5.4,12.3-12.3,12.4c-7,0-12.3-5.1-12.5-12.2
		c-0.2-8.4-0.2-16.8,0-25.2c0.1-7.1,5.5-12.4,12.3-12.4c6.8,0,12.3,5.2,12.5,12.2C435.5,541,435.4,545.2,435.4,549.5
		C435.4,549.5,435.4,549.5,435.4,549.5z"/>
	<path class="st1" d="M622.5,549.7c0,4.1,0.1,8.3,0,12.4c-0.2,7.1-5.6,12.4-12.4,12.3c-6.9-0.1-12.3-5.2-12.4-12.3
		c-0.2-8.4-0.1-16.8,0-25.2c0.2-7.2,5.6-12.4,12.4-12.3c6.9,0.1,12.2,5.3,12.4,12.3C622.6,541.1,622.5,545.4,622.5,549.7
		C622.5,549.7,622.5,549.7,622.5,549.7z"/>
</g>
<image style="display:none;overflow:visible;" width="512" height="512" xlink:href="../../../../../download/РїР°РЅРµР»СЊРЅС‹Р№-РєРѕРјРїРїСЊСЋС‚РµСЂ.png"  transform="matrix(1.6738 0 0 1.6738 -4 -57)">
</image>
<g class="st0">
	<path class="st1" d="M823.4,487v121.1c0,11.8-4.5,16-17,16c-112.7,0-225.4,0-338,0c-119.6,0-239.2,0-358.8,0c-22.5,0-45,0-67.5-0.1
		c-10.6,0-15.5-4.7-15.5-14.8c0-40.8,0-81.6,0-122.4H0c0,41.3,0,82.6,0,123.9c0,22,17.4,38.3,40.9,38.4c17.6,0.1,35.2,0,52.9,0
		c81.7,0,163.4,0,245,0c95.1,0,190.1,0,285.2,0c62,0,124,0,186,0c8.8,0,16.7-2.6,23.8-7.4c8.9-6.1,13.5-14.5,16.2-24.2V487H823.4z"
		/>
</g>
<g>
	<path class="st2" d="M849.3,30.7c-6.7-20.7-20-30-43-30c-32.4,0-64.8,0-97.3,0c-109.5,0-219.1,0-328.6,0c-113.2,0-226.3,0-339.5,0
		C17.3,0.7,0,16.9,0,39c0,116,0,232,0,348v105h0v18.9c0,22,17.4,38.3,40.9,38.4c17.6,0.1,35.2,0,52.9,0c81.7,0,163.4,0,245,0
		c95.1,0,190.1,0,285.2,0c62,0,124,0,186,0c8.8,0,16.7-2.6,23.8-7.4c8.9-6.1,13.5-14.5,16.2-24.2V32.3
		C849.8,31.8,849.5,31.2,849.3,30.7z M823.4,292v216.1c0,11.8-4.5,16-17,16c-112.7,0-225.4,0-338,0c-119.6,0-239.2,0-358.8,0
		c-22.5,0-45,0-67.5-0.1c-10.6,0-15.5-4.7-15.5-14.8c0-40.8,0-81.6,0-122.4c0-55.9,0-111.8,0-167.7V41.5c0-11.5,4.5-15.8,16.7-15.8
		c103.6,0,207.1,0,310.7,0h416.9c12.3,0,24.5,0,36.8,0c10.9,0,15.7,4.6,15.8,15C823.5,124.5,823.4,208.3,823.4,292z"/>
	<path class="st2" d="M605,204.3c-26.3-11.2-55.8,1.1-66.5,27.9c-10.2,25.6,3.2,55.1,29.7,64.6c3.6,1.3,4.6,3,4.5,6.6
		c-0.2,22-0.1,44-0.1,66c0,30.4,0.1,60.9,0,91.3c0,5.1,1.5,9.3,6,12c8.7,5.3,18.9-1,18.9-11.8c0.1-26.4,0-52.9,0-79.3h0
		c0-26,0.1-52-0.1-78c0-3.8,0.9-5.6,4.7-6.9c19.3-6.9,32.1-24.8,32.7-44.8C635.5,231.1,623.7,212.3,605,204.3z M585.1,275.1
		c-13.5,0-24.8-11.3-24.9-24.9c-0.1-13.8,10.8-24.8,24.6-25c13.8-0.2,25.2,11.1,25.1,24.9C609.9,263.8,598.6,275.1,585.1,275.1z"/>
	<path class="st2" d="M509.5,341.6c-4-23.6-24.3-41.2-47.8-41.6c-25-0.3-45.9,16.6-50.3,40.7c-4.5,24.7,9,47.9,33,56.4
		c2.8,1,3.5,2.3,3.5,5.1c-0.2,9.9-0.1,19.8-0.1,29.7c0,10.1-0.1,20.1,0,30.2c0.1,6.8,5.3,12.2,11.9,12.6c6,0.4,11.8-4.1,12.8-10
		c0.3-1.9,0.2-3.8,0.2-5.7c0-18.5,0.2-37-0.1-55.4c0-4,1.2-5.5,4.9-6.8C500.3,388.4,513.6,365.3,509.5,341.6z M460.6,374.7
		c-13.9,0.1-25.2-11.1-25.2-24.9c0-13.5,11.4-24.8,24.9-24.8c13.6,0,24.8,11.2,24.8,24.8C485.2,363.5,474.3,374.6,460.6,374.7z"/>
	<path class="st2" d="M758.9,365.9c-3.9-22.4-23.6-39.9-46.1-40.9c-24-1.2-45,13.9-51.2,36.7c-6.8,25,6.5,50.7,31.4,59.9
		c3.4,1.3,4.5,2.8,4.3,6.3c-0.3,5.3-0.1,10.6-0.1,16h0c0,2.6,0,5.3,0,8c0,2.8,0,5.6,0,8.4c0,8.3,5.2,14.3,12.4,14.4
		c7.5,0.1,12.7-5.8,12.7-14.5c0-9.9,0.3-19.8-0.1-29.7c-0.3-5.4,1.4-7.8,6.6-9.8C750.8,412,763,389.2,758.9,365.9z M710,399.7
		c-13.6,0.1-25-11-25.2-24.5c-0.2-13.7,11.3-25.2,25-25.2c13.6,0,24.8,11.1,24.9,24.8C734.7,388.3,723.6,399.6,710,399.7z"/>
	<path class="st2" d="M722.3,280.6c0,2.2,0.1,4.4,0,6.6c-0.3,7.4-5.6,12.8-12.5,12.8c-6.8,0-12.4-5.6-12.5-12.9c-0.1-13,0-26,0-39
		c0-16.1,0-32.2,0-48.3c0-28.4,0-56.7,0-85.1c0-7.6,3.9-13,10.2-14.1c7.9-1.5,14.8,4.3,14.9,12.9c0.2,14.2,0,28.4,0,42.5
		C722.3,197.6,722.3,239.1,722.3,280.6z"/>
	<path class="st2" d="M472.8,257.6c0,1.5,0,3,0,4.4c-0.2,7.5-5.4,13-12.3,13.1c-7,0.1-12.6-5.4-12.7-13.2c-0.1-11.5,0-23,0-34.6
		c0-37.7,0-75.4,0-113c0-5.9,2.2-10.4,7.7-12.8c4.8-2.1,9.3-1.2,13.2,2.1c3.3,2.8,4.2,6.6,4.2,10.8c-0.1,24.5,0,49.1,0,73.6V257.6z"
		/>
	<path class="st2" d="M597.5,162.8c-0.1,7.4-5.7,12.6-12.8,12.5c-6.8-0.1-12-5.4-12.1-12.6c-0.1-8.4,0-16.8,0-25.2h0
		c0-8-0.1-16,0-23.9c0.1-7.7,5.1-12.9,12.2-12.9c7.1-0.1,12.5,5.2,12.6,12.6C597.7,129.7,597.7,146.2,597.5,162.8z"/>
</g>
<path class="st2" d="M472.8,257.6c0,1.5,0,3,0,4.4c-0.2,7.5-5.4,13-12.3,13.1c-7,0.1-12.6-5.4-12.7-13.2c-0.1-11.5,0-23,0-34.6
	c0-37.7,0-75.4,0-113c0-5.9,2.2-10.4,7.7-12.8c4.8-2.1,9.3-1.2,13.2,2.1c3.3,2.8,4.2,6.6,4.2,10.8c-0.1,24.5,0,49.1,0,73.6V257.6z"
	/>
<path class="st2" d="M597.5,162.8c-0.1,7.4-5.7,12.6-12.8,12.5c-6.8-0.1-12-5.4-12.1-12.6c-0.1-8.4,0-16.8,0-25.2h0
	c0-8-0.1-16,0-23.9c0.1-7.7,5.1-12.9,12.2-12.9c7.1-0.1,12.5,5.2,12.6,12.6C597.7,129.7,597.7,146.2,597.5,162.8z"/>
<path class="st2" d="M722.3,280.6c0,2.2,0.1,4.4,0,6.6c-0.3,7.4-5.6,12.8-12.5,12.8c-6.8,0-12.4-5.6-12.5-12.9c-0.1-13,0-26,0-39
	c0-16.1,0-32.2,0-48.3c0-28.4,0-56.7,0-85.1c0-7.6,3.9-13,10.2-14.1c7.9-1.5,14.8,4.3,14.9,12.9c0.2,14.2,0,28.4,0,42.5
	C722.3,197.6,722.3,239.1,722.3,280.6z"/>
<g>
	<path class="st2" d="M358,423.5c0-6-4.3-11.1-10-12.2V411H76v0c-0.2,0-0.3,0-0.5,0c-6.9,0-12.5,5.6-12.5,12.5S68.6,436,75.5,436
		c0.2,0,0.3,0,0.5,0v0h272v-0.3C353.7,434.6,358,429.5,358,423.5z"/>
	<path class="st2" d="M362,340.5c0-6-4.3-11.1-10-12.2V328H80v0c-0.2,0-0.3,0-0.5,0c-6.9,0-12.5,5.6-12.5,12.5S72.6,353,79.5,353
		c0.2,0,0.3,0,0.5,0v0h272v-0.3C357.7,351.6,362,346.5,362,340.5z"/>
	<path class="st2" d="M362,257.5c0-6-4.3-11.1-10-12.2V245H80v0c-0.2,0-0.3,0-0.5,0c-6.9,0-12.5,5.6-12.5,12.5S72.6,270,79.5,270
		c0.2,0,0.3,0,0.5,0v0h272v-0.3C357.7,268.6,362,263.5,362,257.5z"/>
	<path class="st2" d="M362,178.5c0-6-4.3-11.1-10-12.2V166H80v0c-0.2,0-0.3,0-0.5,0c-6.9,0-12.5,5.6-12.5,12.5S72.6,191,79.5,191
		c0.2,0,0.3,0,0.5,0v0h272v-0.3C357.7,189.6,362,184.5,362,178.5z"/>
</g>
<rect x="290" y="384" class="st2" width="80" height="80"/>
<rect x="134" y="301" class="st2" width="80" height="80"/>
<rect x="244" y="226" class="st2" width="80" height="80"/>
<rect x="89" y="138" class="st2" width="80" height="80"/>
<rect x="284" y="68" class="st2" width="80" height="80"/>
<rect x="184" y="68" class="st2" width="80" height="80"/>
<rect x="272" y="524" class="st2" width="25" height="126"/>
<rect x="553" y="524" class="st2" width="25" height="126"/>
<path class="st2" d="M802,648.5c0,0.5,0,1,0,1.5H67c0-0.5,0-1,0-1.5c0-9.2,3.8-17.6,9.8-23.7c6.1-6.1,14.4-9.8,23.7-9.8h668
	C787,615,802,630,802,648.5z"/>
</svg>
