<?xml version="1.0" encoding="utf-8"?>
<!-- Generator: Adobe Illustrator 25.2.3, SVG Export Plug-In . SVG Version: 6.00 Build 0)  -->
<svg version="1.1" xmlns="http://www.w3.org/2000/svg" xmlns:xlink="http://www.w3.org/1999/xlink" x="0px" y="0px"
	 viewBox="0 0 142.9 142.9" style="enable-background:new 0 0 142.9 142.9;" xml:space="preserve">
<style type="text/css">
	.st0{display:none;}
	.st1{display:inline;fill:#484848;}
	.st2{display:inline;}
	.st3{fill:#484848;}
</style>
<g id="РЎР»РѕР№_1" class="st0">
	<path class="st1" d="M102,102.3c5,0,9.9,2,13.4,5.6c3.6,3.6,5.6,8.4,5.6,13.4c0,5-2,9.9-5.6,13.4c-3.6,3.6-8.4,5.6-13.4,5.6
		s-9.9-2-13.4-5.6c-3.6-3.6-5.6-8.4-5.6-13.4c0-5,2-9.9,5.6-13.4C92.1,104.3,96.9,102.3,102,102.3z M102,114.2c-1.9,0-3.7,0.7-5,2.1
		c-1.3,1.3-2.1,3.1-2.1,5c0,1.9,0.7,3.7,2.1,5c1.3,1.3,3.1,2.1,5,2.1s3.7-0.7,5-2.1s2.1-3.1,2.1-5c0-1.9-0.7-3.7-2.1-5
		C105.7,114.9,103.9,114.2,102,114.2z M30,102.3c5,0,9.9,2,13.4,5.6c3.6,3.6,5.6,8.4,5.6,13.4c0,5-2,9.9-5.6,13.4
		c-3.6,3.6-8.4,5.6-13.4,5.6s-9.9-2-13.4-5.6c-3.6-3.6-5.6-8.4-5.6-13.4c0-5,2-9.9,5.6-13.4C20.1,104.3,24.9,102.3,30,102.3z
		 M30,114.2c-1.9,0-3.7,0.7-5,2.1c-1.3,1.3-2.1,3.1-2.1,5c0,1.9,0.7,3.7,2.1,5c1.3,1.3,3.1,2.1,5,2.1c1.9,0,3.7-0.7,5-2.1
		c1.3-1.3,2.1-3.1,2.1-5c0-1.9-0.7-3.7-2.1-5C33.7,114.9,31.9,114.2,30,114.2z M31.4,31.2l14.9,50.9l57.1-10.8
		c4.6-0.9,8.7-3.3,11.6-6.9c3-3.6,4.6-8.1,4.6-12.7V31.2H31.4z M27.8,18.9h104.1v32.8c0,7.5-2.6,14.8-7.4,20.6
		c-4.8,5.8-11.4,9.7-18.8,11.1L37.6,96.3L11.5,6.9l11.8-3.5L27.8,18.9z"/>
</g>
<g id="РЎР»РѕР№_2" class="st0">
	<path class="st1" d="M116.3,18.1c0-7.7-4.6-12.3-12.3-12.3c-22,0-44,0-65.9,0c-7.6,0-12.3,4.7-12.3,12.4v123.4
		C41,128.2,56,115.2,71,102c15.1,13.2,30.1,26.3,45.3,39.6v-2C116.3,99.1,116.3,58.6,116.3,18.1z M106.3,119.7
		C94.4,109.3,82.8,99.1,71,88.8C59.3,99,47.6,109.2,35.7,119.7V118c0-31.5,0-63,0-94.5c0-6,3.6-9.6,9.6-9.6h51.4
		c6,0,9.6,3.6,9.6,9.6V119.7z"/>
</g>
<g id="РЎР»РѕР№_4" class="st0">
	<g class="st2">
		<path class="st3" d="M36.6,37.6v105.2H1V37.6c0-4.7,3.8-8.5,8.5-8.5h18.6C32.8,29.1,36.6,32.9,36.6,37.6z"/>
		<path class="st3" d="M89.3,62.9v79.9H53.6V62.9c0-4.7,3.8-8.5,8.5-8.5h18.6C85.5,54.4,89.3,58.2,89.3,62.9z"/>
		<path class="st3" d="M141.9,11.6v131.2h-35.6V11.6c0-4.7,3.8-8.5,8.5-8.5h18.6C138.1,3.1,141.9,6.9,141.9,11.6z"/>
	</g>
</g>
<g id="РЎР»РѕР№_5">
	<path class="st3" d="M71.5,37.8c23.2,0,43.9,13,54,33.7c-10.1,20.6-30.8,33.7-54,33.7s-43.9-13-54-33.7
		C27.5,50.8,48.2,37.8,71.5,37.8 M71.5,25.5c-30.6,0-56.8,19-67.4,45.9c10.6,26.9,36.7,45.9,67.4,45.9s56.8-19,67.4-45.9
		C128.2,44.6,102.1,25.5,71.5,25.5z M71.5,56.1c8.5,0,15.3,6.9,15.3,15.3s-6.9,15.3-15.3,15.3s-15.3-6.9-15.3-15.3
		S63,56.1,71.5,56.1 M71.5,43.9c-15.2,0-27.6,12.4-27.6,27.6S56.3,99,71.5,99S99,86.6,99,71.5S86.6,43.9,71.5,43.9z"/>
</g>
</svg>
