<?xml version="1.0" encoding="utf-8"?>
<!-- Generator: Adobe Illustrator 25.2.3, SVG Export Plug-In . SVG Version: 6.00 Build 0)  -->
<svg version="1.1" id="Layer_1" xmlns="http://www.w3.org/2000/svg" xmlns:xlink="http://www.w3.org/1999/xlink" x="0px" y="0px"
	 viewBox="0 0 786.6 161.7" style="enable-background:new 0 0 786.6 161.7;" xml:space="preserve">
<style type="text/css">
	.st0{fill:#484848;}
</style>
<g>
	<g>
		<path class="st0" d="M7,0h130c1.7,0,3.3,0.6,4.5,1.8s2,2.7,2,4.4c0.8,6.3,0.8,67.3,0.5,67.4l-12.5,5V16.4c0,0-0.7-4.4-3.6-4.4
			L16.7,11.8c-1.1,0.4-2.1,1.1-2.8,2c-0.7,1-1.1,2.1-1.1,3.3c0,4.3,0,105,0,105c0,1.2,0.4,2.4,1.3,3.3c0.8,0.9,2,1.4,3.2,1.5
			c4.7,0.8,62.6,0,62.6,0l5.2,11.7H6.8c-1.7,0-3.3-0.6-4.6-1.7c-1.3-1.1-2-2.7-2.2-4.4c0-6,0-125.2,0-125.2c0-0.9,0.1-1.9,0.5-2.8
			C0.8,3.7,1.3,2.9,2,2.2C2.6,1.5,3.4,1,4.3,0.6C5.1,0.2,6.1,0,7,0z"/>
		<path class="st0" d="M62.3,59.4l16.4-7.8l16.6,36.9l20.7-8.2l5.5,12.1l22.3-9.8l5.1,10.9l19.3-8.6l16.9,38.5l-78.7,33.8L62.3,59.4
			z"/>
		<path class="st0" d="M207.3,63.3h19.2l18.4,54.5L262,63.3h19.2l17.1,52.4l15.3-52.4l20.3,0.3L311.3,137h-24.8l-15.3-46.1l-15,46.1
			h-24.4L207.3,63.3z"/>
		<path class="st0" d="M406.5,63.3h-58.4c0,0-9.8,3.9-9.8,9.8c0,5.8,0.5,55.5,0.5,55.5s3.4,8.3,8.3,8.3h59v-5h-46.3v-30.3l40.5-0.7
			V97h-40.5l0.6-28.2h46.3L406.5,63.3z"/>
		<path class="st0" d="M418.6,121.7l4.2-1.6l3.4,9.5l5.3-1.8l1,3.2l5.8-2.1l1,2.8l5-1.8l3.7,9.8l-20.3,7.3L418.6,121.7z"/>
		<path class="st0" d="M441,63.5h-19.2v49.7H441V63.5z"/>
		<path class="st0" d="M463.1,136.9V63.3h22.4l41,56.1V63.3H546l0.5,73.7l-22.9-0.3l-40.8-55.5v55.7H463.1z"/>
		<path class="st0" d="M555.2,63.2h69.1v13.3l-24.6,0.4l-0.3,60.2l-19.7-0.2l0.2-60.4l-24.8,0.4L555.2,63.2L555.2,63.2z"/>
		<path class="st0" d="M634.6,63.2h61.1v13.6h-43.3l0.2,15.2l40.3,0.1v12.6l-40.4-0.1v17.3l44.3,0.1v14.9h-62.1L634.6,63.2
			L634.6,63.2z"/>
		<path class="st0" d="M709.1,63.2l18.8,0.3l-0.1,30.7l27.9-31h20.2l-22,25l32.8,49.2l-18.9-0.4L743,100.5l-15.1,16.9V137h-18.8
			L709.1,63.2L709.1,63.2z"/>
	</g>
</g>
</svg>
