<?xml version="1.0" encoding="utf-8"?>
<!-- Generator: Adobe Illustrator 25.2.3, SVG Export Plug-In . SVG Version: 6.00 Build 0)  -->
<svg version="1.1" xmlns="http://www.w3.org/2000/svg" xmlns:xlink="http://www.w3.org/1999/xlink" x="0px" y="0px"
	 viewBox="0 0 142.9 142.9" style="enable-background:new 0 0 142.9 142.9;" xml:space="preserve">
<style type="text/css">
	.st0{display:none;}
	.st1{display:inline;fill:#484848;}
	.st2{display:inline;}
	.st3{fill:#484848;}
	.st4{fill:#FFFFFF;}
</style>
<g id="РЎР»РѕР№_1" class="st0">
	<path class="st1" d="M102,102.3c5,0,9.9,2,13.4,5.6c3.6,3.6,5.6,8.4,5.6,13.4c0,5-2,9.9-5.6,13.4c-3.6,3.6-8.4,5.6-13.4,5.6
		s-9.9-2-13.4-5.6c-3.6-3.6-5.6-8.4-5.6-13.4c0-5,2-9.9,5.6-13.4C92.1,104.3,96.9,102.3,102,102.3z M102,114.2c-1.9,0-3.7,0.7-5,2.1
		c-1.3,1.3-2.1,3.1-2.1,5c0,1.9,0.7,3.7,2.1,5c1.3,1.3,3.1,2.1,5,2.1s3.7-0.7,5-2.1s2.1-3.1,2.1-5c0-1.9-0.7-3.7-2.1-5
		C105.7,114.9,103.9,114.2,102,114.2z M30,102.3c5,0,9.9,2,13.4,5.6c3.6,3.6,5.6,8.4,5.6,13.4c0,5-2,9.9-5.6,13.4
		c-3.6,3.6-8.4,5.6-13.4,5.6s-9.9-2-13.4-5.6c-3.6-3.6-5.6-8.4-5.6-13.4c0-5,2-9.9,5.6-13.4C20.1,104.3,24.9,102.3,30,102.3z
		 M30,114.2c-1.9,0-3.7,0.7-5,2.1c-1.3,1.3-2.1,3.1-2.1,5c0,1.9,0.7,3.7,2.1,5c1.3,1.3,3.1,2.1,5,2.1c1.9,0,3.7-0.7,5-2.1
		c1.3-1.3,2.1-3.1,2.1-5c0-1.9-0.7-3.7-2.1-5C33.7,114.9,31.9,114.2,30,114.2z M31.4,31.2l14.9,50.9l57.1-10.8
		c4.6-0.9,8.7-3.3,11.6-6.9c3-3.6,4.6-8.1,4.6-12.7V31.2H31.4z M27.8,18.9h104.1v32.8c0,7.5-2.6,14.8-7.4,20.6
		c-4.8,5.8-11.4,9.7-18.8,11.1L37.6,96.3L11.5,6.9l11.8-3.5L27.8,18.9z"/>
</g>
<g id="РЎР»РѕР№_2" class="st0">
	<path class="st1" d="M116.3,18.1c0-7.7-4.6-12.3-12.3-12.3c-22,0-44,0-65.9,0c-7.6,0-12.3,4.7-12.3,12.4v123.4
		C41,128.2,56,115.2,71,102c15.1,13.2,30.1,26.3,45.3,39.6v-2C116.3,99.1,116.3,58.6,116.3,18.1z M106.3,119.7
		C94.4,109.3,82.8,99.1,71,88.8C59.3,99,47.6,109.2,35.7,119.7V118c0-31.5,0-63,0-94.5c0-6,3.6-9.6,9.6-9.6h51.4
		c6,0,9.6,3.6,9.6,9.6V119.7z"/>
</g>
<g id="РЎР»РѕР№_4" class="st0">
	<g class="st2">
		<path class="st3" d="M36.6,37.6v105.2H1V37.6c0-4.7,3.8-8.5,8.5-8.5h18.6C32.8,29.1,36.6,32.9,36.6,37.6z"/>
		<path class="st3" d="M89.3,62.9v79.9H53.6V62.9c0-4.7,3.8-8.5,8.5-8.5h18.6C85.5,54.4,89.3,58.2,89.3,62.9z"/>
		<path class="st3" d="M141.9,11.6v131.2h-35.6V11.6c0-4.7,3.8-8.5,8.5-8.5h18.6C138.1,3.1,141.9,6.9,141.9,11.6z"/>
	</g>
	<g class="st2">
		<path class="st3" d="M36.6,37.6v105.2H1V37.6c0-4.7,3.8-8.5,8.5-8.5h18.6C32.8,29.1,36.6,32.9,36.6,37.6z"/>
		<path class="st3" d="M89.3,62.9v79.9H53.6V62.9c0-4.7,3.8-8.5,8.5-8.5h18.6C85.5,54.4,89.3,58.2,89.3,62.9z"/>
		<path class="st3" d="M141.9,11.6v131.2h-35.6V11.6c0-4.7,3.8-8.5,8.5-8.5h18.6C138.1,3.1,141.9,6.9,141.9,11.6z"/>
	</g>
</g>
<g id="РЎР»РѕР№_7" class="st0">
	<path class="st1" d="M34.4,37.6v105.2H3.2V37.6c0-4.7,3.3-8.5,7.4-8.5H27C31.1,29.1,34.4,32.9,34.4,37.6z"/>
	<path class="st1" d="M139.7,11.6v131.2h-31.2V11.6c0-4.7,3.3-8.5,7.4-8.5h16.3C136.4,3.1,139.7,6.9,139.7,11.6z"/>
	<path class="st1" d="M87.1,62.9v79.9H55.9V62.9c0-4.7,3.3-8.5,7.4-8.5h16.3C83.7,54.4,87.1,58.2,87.1,62.9z"/>
</g>
<g id="РЎР»РѕР№_9" class="st0">
	<path d="M30.9,136.4h16.2V6.5H30.9V136.4z M95.8,136.4h16.2V6.5H95.8V136.4z M63.3,136.4h16.2V6.5H63.3V136.4z"/>
	<path class="st2" d="M108.8,4.1v139.3h16.2V4.1H108.8z"/>
	<path class="st2" d="M63.3,55.8v87.6h16.2V55.8H63.3z"/>
	<path class="st2" d="M18.9,30.5v112.9h16.2V30.5H18.9z"/>
</g>
<g id="РЎР»РѕР№_8" class="st0">
	<g class="st2">
		<path class="st3" d="M28.1,29.1H9.5c-4.7,0-8.5,3.8-8.5,8.5v105.2h35.6V37.6C36.6,32.9,32.8,29.1,28.1,29.1z M27.3,134.6h-17V45.1
			c0-4,1.8-7.2,4-7.2h8.9c2.2,0,4,3.2,4,7.2V134.6z"/>
		<path class="st3" d="M80.8,54.4H62.1c-4.7,0-8.5,3.8-8.5,8.5v79.9h35.6V62.9C89.3,58.2,85.5,54.4,80.8,54.4z M80,134.6H63v-66
			c0-3,1.8-5.3,4-5.3h8.9c2.2,0,4.1,2.4,4.1,5.3V134.6z"/>
		<path class="st3" d="M133.4,3.1h-18.6c-4.7,0-8.5,3.8-8.5,8.5v131.2h35.6V11.6C141.9,6.9,138.1,3.1,133.4,3.1z M132.6,134.6h-17
			V20.9c0-5.1,1.8-9.2,4-9.2h8.9c2.2,0,4,4.1,4,9.2V134.6z"/>
		<path class="st3" d="M28.1,29.1H9.5c-4.7,0-8.5,3.8-8.5,8.5v105.2h35.6V37.6C36.6,32.9,32.8,29.1,28.1,29.1z M27.3,134.6h-17V45.1
			c0-4,1.8-7.2,4-7.2h8.9c2.2,0,4,3.2,4,7.2V134.6z"/>
		<path class="st3" d="M80.8,54.4H62.1c-4.7,0-8.5,3.8-8.5,8.5v79.9h35.6V62.9C89.3,58.2,85.5,54.4,80.8,54.4z M80,134.6H63v-66
			c0-3,1.8-5.3,4-5.3h8.9c2.2,0,4.1,2.4,4.1,5.3V134.6z"/>
		<path class="st3" d="M133.4,3.1h-18.6c-4.7,0-8.5,3.8-8.5,8.5v131.2h35.6V11.6C141.9,6.9,138.1,3.1,133.4,3.1z M132.6,134.6h-17
			V20.9c0-5.1,1.8-9.2,4-9.2h8.9c2.2,0,4,4.1,4,9.2V134.6z"/>
		<path class="st3" d="M80.8,54.4H62.1c-4.7,0-8.5,3.8-8.5,8.5v79.9h35.6V62.9C89.3,58.2,85.5,54.4,80.8,54.4z M80,134.6H63v-66
			c0-3,1.8-5.3,4-5.3h8.9c2.2,0,4.1,2.4,4.1,5.3V134.6z"/>
		<path class="st3" d="M133.4,3.1h-18.6c-4.7,0-8.5,3.8-8.5,8.5v131.2h35.6V11.6C141.9,6.9,138.1,3.1,133.4,3.1z M132.6,134.6h-17
			V20.9c0-5.1,1.8-9.2,4-9.2h8.9c2.2,0,4,4.1,4,9.2V134.6z"/>
	</g>
</g>
<g id="РЎР»РѕР№_5" class="st0">
	<path class="st1" d="M71.5,37.8c23.2,0,43.9,13,54,33.7c-10.1,20.6-30.8,33.7-54,33.7s-43.9-13-54-33.7
		C27.5,50.8,48.2,37.8,71.5,37.8 M71.5,25.5c-30.6,0-56.8,19-67.4,45.9c10.6,26.9,36.7,45.9,67.4,45.9s56.8-19,67.4-45.9
		C128.2,44.6,102.1,25.5,71.5,25.5z M71.5,56.1c8.5,0,15.3,6.9,15.3,15.3s-6.9,15.3-15.3,15.3s-15.3-6.9-15.3-15.3
		S63,56.1,71.5,56.1 M71.5,43.9c-15.2,0-27.6,12.4-27.6,27.6S56.3,99,71.5,99S99,86.6,99,71.5S86.6,43.9,71.5,43.9z"/>
</g>
<g id="РЎР»РѕР№_6" class="st0">
	<path class="st2" d="M6.5,30.9v16.2h129.9V30.9H6.5z M6.5,95.8v16.2h129.9V95.8H6.5z M6.5,63.3v16.2h129.9V63.3H6.5z"/>
</g>
<g id="РЎР»РѕР№_10" class="st0">
	<g class="st2">
		<path d="M31.3,19.8L19.8,31.3l91.8,91.8l11.5-11.5L31.3,19.8z"/>
		<path d="M19.8,111.6l11.5,11.5l91.8-91.8l-11.5-11.5L19.8,111.6z"/>
	</g>
</g>
<g id="РЎР»РѕР№_11" class="st0">
	<path class="st1" d="M140.1,56.2L90.9,52L71.6,6.7L52.4,52.1L3.2,56.2l37.4,32.4l-11.2,48.1l42.3-25.5l42.3,25.5l-11.2-48.1
		L140.1,56.2z M71.6,98.4l-25.7,15.5l6.8-29.3L30,64.9l30-2.6l11.6-27.6l11.7,27.6l30,2.6L90.6,84.7l6.8,29.3L71.6,98.4z"/>
</g>
<g id="РЎР»РѕР№_12" class="st0">
	<path class="st1" d="M64.3,51h14.3v14.3H64.3V51z M93,51h14.3v14.3H93V51z M128.8,97.6c-9,0-17.6-1.4-25.6-4.1
		c-0.7-0.2-1.5-0.4-2.2-0.4c-1.9,0-3.7,0.7-5.1,2.1L80.1,111c-20.3-10.3-36.9-26.9-47.2-47.2L48.7,48c2-1.9,2.6-4.7,1.8-7.2
		c-2.7-8-4.1-16.6-4.1-25.6c0-3.9-3.2-7.2-7.2-7.2H14.1c-3.9,0-7.2,3.2-7.2,7.2C6.9,82.5,61.5,137,128.8,137c3.9,0,7.2-3.2,7.2-7.2
		v-25.1C136,100.8,132.7,97.6,128.8,97.6z M21.5,22.4h10.8c0.5,6.3,1.6,12.5,3.3,18.6l-8.6,8.7C24,40.9,22.1,31.8,21.5,22.4z
		 M121.6,122.5c-9.5-0.6-18.6-2.5-27.2-5.4l8.6-8.6c6.1,1.7,12.3,2.8,18.6,3.2V122.5z M121.6,51H136v14.3h-14.3V51z"/>
</g>
<g id="РЎР»РѕР№_13" class="st0">
	<path class="st1" d="M71.5,8.1c-35,0-63.4,28.4-63.4,63.4S36.5,135,71.5,135h31.7v-12.7H71.5c-27.5,0-50.8-23.2-50.8-50.8
		S44,20.8,71.5,20.8s50.8,23.2,50.8,50.8v9.1c0,5-4.5,10-9.5,10c-5,0-9.5-4.9-9.5-10v-9.1c0-17.5-14.2-31.7-31.7-31.7
		S39.8,54,39.8,71.5s14.2,31.7,31.7,31.7c8.8,0,16.7-3.6,22.5-9.3c4.1,5.6,11.2,9.3,18.8,9.3c12.5,0,22.2-10.2,22.2-22.7v-9.1
		C135,36.5,106.5,8.1,71.5,8.1z M71.5,90.6c-10.5,0-19-8.5-19-19s8.5-19,19-19s19,8.5,19,19S82,90.6,71.5,90.6z"/>
</g>
<g id="РЎР»РѕР№_14" class="st0">
	<path class="st2" d="M98.7,87.9H93l-2-2c7.1-8.3,11.4-19,11.4-30.7c0-26-21.1-47.2-47.2-47.2S8.1,29.2,8.1,55.2
		s21.1,47.2,47.2,47.2c11.7,0,22.4-4.3,30.7-11.4l2,2v5.7l36.3,36.2l10.8-10.8L98.7,87.9z M55.2,87.9c-18.1,0-32.6-14.6-32.6-32.6
		s14.6-32.6,32.6-32.6s32.6,14.6,32.6,32.6S73.3,87.9,55.2,87.9z"/>
</g>
<g id="РЎР»РѕР№_15" class="st0">
	
		<image style="display:inline;overflow:visible;" width="100" height="100" xlink:href="../../../download/icons8-filter-100.png"  transform="matrix(1 0 0 1 31.5842 29.286)">
	</image>
</g>
<g id="РЎР»РѕР№_16">
	<g>
		<polygon class="st4" points="6.5,2.7 136.7,2.7 136.7,15.5 87.6,67.9 55.8,67.9 6.5,16 		"/>
		<polygon class="st4" points="53.9,74.2 89,74.2 89,139.1 84.7,139.1 53.9,119.8 		"/>
	</g>
</g>
</svg>
