<?xml version="1.0" encoding="utf-8"?>
<!-- Generator: Adobe Illustrator 25.2.3, SVG Export Plug-In . SVG Version: 6.00 Build 0)  -->
<svg version="1.1" id="Layer_1" xmlns="http://www.w3.org/2000/svg" xmlns:xlink="http://www.w3.org/1999/xlink" x="0px" y="0px"
	 viewBox="0 0 438.8 121.2" style="enable-background:new 0 0 438.8 121.2;" xml:space="preserve">
<style type="text/css">
	.st0{fill-rule:evenodd;clip-rule:evenodd;fill:#484848;}
	.st1{fill:#484848;}
</style>
<g>
	<path class="st0" d="M58.9,0.9C26.8,0.9,0.8,26.9,0.8,59s26,58.1,58.1,58.1c32.1,0,58.1-26,58.1-58.1S91,0.8,58.9,0.9z M17.2,82.6
		c-3,1.3-5.9,2.8-8.8,4.5L57.9,1L61,6.6L17.2,82.6z M20.4,81.2L62.1,8.6l2.8,4.8L27.4,78.6C25,79.4,22.7,80.3,20.4,81.2z M30.5,77.7
		l35.7-62l2.8,4.8L37,76.1C34.8,76.5,32.6,77.1,30.5,77.7z M70.3,23l2.8,4.8L46.3,74.6c-2.1,0.2-4.1,0.5-6.1,0.9L70.3,23z
		 M67.6,108.7c-5.4,3.1-12,3.1-17.3,0c-5.3-3.1-8.6-8.8-8.6-15s3.3-11.9,8.6-15c5.4-3.1,11.9-3.1,17.3,0c5.3,3.1,8.6,8.8,8.6,15
		S72.9,105.6,67.6,108.7z M70.6,74.7L60,55.8l14.7-25.4l32.6,56.8C96,80.6,83.5,76.4,70.6,74.7z"/>
	<path class="st0" d="M209.7,29c0-1.3-0.5-2.5-1.4-3.4s-2.1-1.4-3.4-1.4h-10.8c-1.3,0-2.5,0.5-3.4,1.4l-57.6,57.6h17.8L166.6,68
		h12.8v-9.2h-3.5L198.3,37v46.5h11.4V29z"/>
	<rect x="188" y="58.8" class="st0" width="3.4" height="9.2"/>
	<rect x="182.2" y="58.8" class="st0" width="3.4" height="9.2"/>
	<path class="st0" d="M293.3,24.2h-12.5v39.4c0,5,2,9.9,5.6,13.5c3.6,3.6,8.4,5.6,13.5,5.6h20.9v-9.5h-18c-2.5,0-4.9-1-6.7-2.8
		c-1.8-1.8-2.8-4.2-2.8-6.7V24.2z"/>
	<path class="st0" d="M372.4,24.2h-23.3c-6.6,0-12.9,2.6-17.5,7.2s-7.2,10.9-7.2,17.5v9.2c0,6.6,2.6,12.9,7.2,17.5
		c4.6,4.6,10.9,7.2,17.5,7.2h23.3V72.6h-22.2c-3.6,0.1-7.1-1.4-9.5-4.2c-2.3-2.8-3.2-6.5-2.5-10.1h34.1V48h-34.2
		c-0.6-3.3,0.3-6.7,2.5-9.3c2.1-2.6,5.3-4.2,8.6-4.3h23.1V24.2H372.4z"/>
	<polygon class="st0" points="410.3,53.1 403.5,63.6 416.4,82.9 431,82.9 	"/>
	<polygon class="st0" points="403.5,63.6 396.3,52.9 376.5,82.9 390.9,82.9 	"/>
	<polygon class="st0" points="428.9,24.5 415.1,24.5 403.1,42.6 410.3,53.1 	"/>
	<polygon class="st0" points="390.5,24.5 377.4,24.5 396.3,52.9 403.1,42.6 	"/>
	<path class="st1" d="M274.9,38.3l-0.1-0.8l-0.1-0.8l-0.2-0.8l-0.2-0.8l-0.3-0.8l-0.3-0.7l-0.4-0.7l-0.4-0.7l-0.5-0.7l-0.5-0.7
		l-0.6-0.7l-0.6-0.6l-0.7-0.6l-0.7-0.6l-0.7-0.6l-0.8-0.5l-0.8-0.5l-0.9-0.5l-0.9-0.4l-0.9-0.4l-0.9-0.4l-1-0.3l-1-0.3l-1-0.3
		l-1-0.2l-1-0.2l-1-0.1l-1.1-0.1l-1-0.1h-1.1h-32.1v59.8h13V62.5H254h1.1l1-0.1l1.1-0.1l1-0.1l1-0.2l1-0.2l1-0.3l1-0.3l1-0.3
		l0.9-0.4l0.9-0.4l0.9-0.4l0.9-0.5l0.8-0.5l0.8-0.5l0.7-0.6l0.7-0.6l0.7-0.6l0.6-0.6l0.6-0.7l0.5-0.7l0.5-0.7l0.4-0.7l0.4-0.7
		l0.3-0.8l0.3-0.8l0.2-0.8l0.2-0.8l0.1-0.8l0.1-0.8v-0.8v-7.8L274.9,38.3z M261.3,43.6v0.5l-0.1,0.5l-0.1,0.5l-0.1,0.5l-0.1,0.5
		l-0.2,0.5l-0.2,0.4l-0.2,0.4l-0.2,0.4l-0.3,0.4l-0.3,0.4l-0.3,0.4l-0.3,0.4l-0.3,0.3l-0.4,0.3l-0.4,0.3l-0.4,0.3l-0.4,0.3l-0.4,0.2
		l-0.4,0.2l-0.4,0.2l-0.4,0.2l-0.5,0.1l-0.5,0.1l-0.5,0.1l-0.5,0.1h-0.5h-0.5h-17.8V34.2h17.8h0.5h0.5l0.5,0.1l0.5,0.1l0.5,0.1
		l0.5,0.1l0.4,0.2l0.4,0.2l0.4,0.2l0.4,0.2l0.4,0.3l0.4,0.3l0.4,0.3l0.4,0.3l0.3,0.3l0.3,0.4l0.3,0.4l0.3,0.4l0.3,0.4l0.2,0.4
		l0.2,0.4l0.2,0.4l0.2,0.5l0.1,0.5l0.1,0.5l0.1,0.5l0.1,0.5v0.5v0.5V43.6z"/>
	<polygon class="st1" points="147.1,112 147.1,95.4 133.1,95.4 133.1,93.2 166.6,93.2 166.6,95.4 152.7,95.4 152.7,112 	"/>
	<path class="st1" d="M186.2,107.7l5.4,0.3c-0.9,1.4-2.4,2.5-4.7,3.2c-2.3,0.8-5.2,1.1-8.8,1.1c-4.5,0-8-0.6-10.7-1.8
		c-2.6-1.2-3.9-2.9-3.9-5.2c0-2.3,1.3-4.1,4-5.3c2.7-1.3,6.1-1.9,10.3-1.9c4.1,0,7.4,0.6,10,1.9c2.6,1.2,3.9,3,3.9,5.2
		c0,0.1,0,0.3,0,0.6h-22.9c0.2,1.5,1.1,2.7,2.9,3.5c1.7,0.8,3.9,1.2,6.4,1.2c1.9,0,3.6-0.2,4.9-0.7
		C184.4,109.4,185.4,108.6,186.2,107.7L186.2,107.7z M169.1,103.9h17.2c-0.2-1.2-0.9-2-2-2.6c-1.7-0.9-3.8-1.4-6.5-1.4
		c-2.4,0-4.4,0.4-6,1.1S169.3,102.7,169.1,103.9L169.1,103.9z"/>
	<path class="st1" d="M218.2,107l5.1,0.3c-0.6,1.6-2,2.8-4.3,3.7c-2.3,0.9-5.1,1.3-8.5,1.3c-4.2,0-7.6-0.6-10.1-1.8
		c-2.5-1.2-3.8-3-3.8-5.3c0-1.5,0.6-2.8,1.6-3.9c1.1-1.1,2.8-1.9,5-2.5s4.7-0.8,7.3-0.8c3.3,0,6.1,0.4,8.2,1.1
		c2.1,0.8,3.5,1.8,4.1,3.2l-5.1,0.3c-0.5-0.9-1.3-1.6-2.5-2.1s-2.7-0.7-4.4-0.7c-2.6,0-4.7,0.4-6.4,1.3c-1.6,0.8-2.4,2.2-2.4,4
		s0.8,3.2,2.4,4c1.6,0.8,3.6,1.2,6.2,1.2c2,0,3.7-0.3,5.1-0.8C217,109.1,217.8,108.2,218.2,107"/>
	<path class="st1" d="M227.8,112V93.2h5.2v6.7c2.4-1.2,5.5-1.8,9.1-1.8c2.3,0,4.2,0.2,5.9,0.6s2.8,1,3.6,1.7
		c0.7,0.7,1.1,1.7,1.1,3.1v8.6h-5.2v-8.7c0-1.2-0.6-2-1.7-2.5c-1.1-0.5-2.7-0.8-4.7-0.8c-1.5,0-3,0.2-4.3,0.5
		c-1.3,0.4-2.3,0.8-2.9,1.5c-0.6,0.6-0.9,1.4-0.9,2.5v7.5L227.8,112L227.8,112z"/>
	<path class="st1" d="M260.7,112V98.4h4.7v1.9c2.2-1.5,5.5-2.2,9.7-2.2c1.8,0,3.5,0.1,5.1,0.4c1.5,0.3,2.7,0.7,3.5,1.2
		s1.3,1.1,1.6,1.7c0.2,0.4,0.3,1.2,0.3,2.2v8.4h-5.2v-8.3c0-0.9-0.2-1.6-0.6-2.1s-1.1-0.8-2.1-1.1c-1-0.3-2.2-0.4-3.6-0.4
		c-2.2,0-4.1,0.3-5.7,0.9s-2.4,1.8-2.4,3.5v7.4L260.7,112L260.7,112z"/>
	<path class="st1" d="M291.6,105.2c0-2.5,1.6-4.4,4.7-5.6c2.6-1,5.8-1.5,9.6-1.5c4.2,0,7.6,0.6,10.3,1.8c2.7,1.2,4,2.9,4,5.1
		c0,1.8-0.6,3.1-1.8,4.1c-1.2,1-2.9,1.8-5.2,2.3c-2.3,0.6-4.7,0.8-7.4,0.8c-4.3,0-7.7-0.6-10.4-1.8
		C293,109.3,291.6,107.5,291.6,105.2 M297,105.2c0,1.8,0.9,3.1,2.6,4s3.9,1.3,6.5,1.3s4.7-0.4,6.4-1.3c1.7-0.9,2.6-2.2,2.6-4
		c0-1.7-0.9-3-2.6-3.9s-3.9-1.3-6.4-1.3c-2.6,0-4.8,0.4-6.5,1.3C297.8,102.1,297,103.4,297,105.2"/>
	<rect x="326.3" y="93.2" class="st1" width="5.2" height="18.8"/>
	<path class="st1" d="M337.7,105.2c0-2.5,1.6-4.4,4.7-5.6c2.6-1,5.8-1.5,9.6-1.5c4.2,0,7.6,0.6,10.3,1.8c2.7,1.2,4,2.9,4,5.1
		c0,1.8-0.6,3.1-1.8,4.1c-1.2,1-2.9,1.8-5.2,2.3c-2.3,0.6-4.7,0.8-7.4,0.8c-4.3,0-7.7-0.6-10.4-1.8
		C339,109.3,337.7,107.5,337.7,105.2 M343,105.2c0,1.8,0.9,3.1,2.6,4s3.9,1.3,6.5,1.3s4.7-0.4,6.4-1.3c1.7-0.9,2.6-2.2,2.6-4
		c0-1.7-0.9-3-2.6-3.9s-3.9-1.3-6.4-1.3c-2.6,0-4.7,0.4-6.5,1.3C343.9,102.1,343,103.4,343,105.2"/>
	<path class="st1" d="M371.5,113.1l5.1,0.3c0.2,0.7,0.8,1.3,1.8,1.6c1.3,0.5,3,0.7,5.3,0.7c2.4,0,4.3-0.2,5.6-0.6
		c1.3-0.4,2.2-1,2.7-1.8c0.3-0.5,0.4-1.5,0.4-2.9c-2.3,1.1-5.1,1.7-8.5,1.7c-4.2,0-7.5-0.7-9.8-2c-2.3-1.4-3.5-3-3.5-4.9
		c0-1.3,0.5-2.5,1.6-3.6s2.6-1.9,4.6-2.6c2-0.6,4.4-0.9,7.1-0.9c3.6,0,6.6,0.6,9,1.9v-1.6h4.8v11.8c0,2.1-0.5,3.6-1.5,4.5
		s-2.5,1.6-4.6,2.1s-4.7,0.8-7.8,0.8c-3.7,0-6.6-0.4-8.9-1.1C372.5,115.7,371.4,114.6,371.5,113.1 M375.8,105c0,1.8,0.8,3.1,2.4,3.9
		s3.6,1.2,6,1.2s4.4-0.4,6.1-1.2c1.6-0.8,2.4-2.1,2.4-3.9c0-1.7-0.8-2.9-2.5-3.8s-3.7-1.3-6.1-1.3c-2.3,0-4.3,0.4-5.9,1.3
		C376.6,102,375.8,103.3,375.8,105"/>
	<path class="st1" d="M405.2,117.3l-0.6-2.1c1.1,0.1,2.1,0.2,3,0.2c1.2,0,2.1-0.1,2.8-0.3c0.7-0.2,1.3-0.4,1.7-0.7
		c0.3-0.2,0.8-0.8,1.6-1.7c0.1-0.1,0.2-0.3,0.5-0.6l-11.6-13.7h5.6l6.4,7.8c0.8,1,1.6,2,2.2,3.1c0.6-1,1.3-2,2.1-3l6.5-7.9h5.2
		L419,112.3c-1.2,1.5-2.2,2.5-2.9,3.1c-0.9,0.8-2,1.3-3.2,1.7c-1.2,0.4-2.6,0.5-4.3,0.5C407.5,117.6,406.4,117.5,405.2,117.3"/>
</g>
</svg>
