<?xml version="1.0" encoding="utf-8"?>
<!-- Generator: Adobe Illustrator 25.2.3, SVG Export Plug-In . SVG Version: 6.00 Build 0)  -->
<svg version="1.1" id="layer" xmlns="http://www.w3.org/2000/svg" xmlns:xlink="http://www.w3.org/1999/xlink" x="0px" y="0px"
	 viewBox="0 0 1296.1 495" style="enable-background:new 0 0 1296.1 495;" xml:space="preserve">
<style type="text/css">
	.st0{fill:#484848;}
</style>
<g>
	<path class="st0" d="M314.2,35.1l-8.6,49.7H124.5L113,149.9h166.8l-9,49.7H104.2l-12.3,69.9h181.4l-9,49.7H62.9
		c-11.9,0-21.7-3.8-29.4-11.5s-11.7-17.3-11.7-28.6c0-2.7,0.2-5.6,0.8-8.6l33-186.6c2.5-13.6,9.2-25,20.5-34.6
		c11.3-9.4,23.6-14.2,36.7-14.2L314.2,35.1L314.2,35.1z"/>
	<polygon class="st0" points="623.9,84.8 532.5,318.9 464.5,318.9 463.4,168.5 408.5,318.9 340.9,318.9 331.7,84.8 399.5,84.8 
		399.5,222.9 453.2,84.8 502.9,84.8 507.7,222.9 555.7,84.8 	"/>
	<path class="st0" d="M873.1,133.6l-24.4,136.9c-2.5,13.4-9.2,24.8-20.2,34.2c-11.1,9.4-23.4,14.2-36.9,14.2H653.3
		c-11.9,0-21.7-3.8-29.4-11.5s-11.5-17.3-11.5-28.6c0-2.7,0.2-5.6,0.8-8.6l24.4-136.7c2.1-13.6,8.8-25,20-34.6
		c11.3-9.4,23.6-14.2,37.1-14.2H833c11.9,0,21.7,4,29.2,11.7s11.5,17.3,11.5,28.6C873.5,127.8,873.3,130.5,873.1,133.6 M804,134.4
		h-99.1l-23.6,135h99.1L804,134.4z"/>
	<path class="st0" d="M1151.1,133.4l-33,185.5h-68.9l32.8-184.5h-98.7l-32.8,184.5h-68l33-185.3c2.1-13.6,8.8-25,20-34.6
		c11.3-9.4,23.6-14.2,37.1-14.2h138.2c11.9,0,21.7,3.8,29.2,11.5s11.5,17.3,11.5,28.6C1151.5,127.6,1151.3,130.5,1151.1,133.4"/>
	<path class="st0" d="M311.1,404.7l12.1-57.6h19.6c4.2,0,7.3,0.2,9,0.4c2.9,0.4,5.2,1.3,7.1,2.3c1.9,1.3,3.5,2.7,4.4,4.8
		c1,1.9,1.5,4.2,1.5,6.5c0,3.1-0.8,6.1-2.7,8.3c-1.9,2.3-4.6,4.2-8.3,5.2c2.9,0.8,5.2,2.3,6.9,4.4c1.7,2.1,2.5,4.4,2.5,7.1
		c0,3.5-1,6.7-2.9,9.8s-4.6,5.4-8.1,6.7c-3.5,1.5-8.1,2.1-14.2,2.1L311.1,404.7L311.1,404.7z M324.8,395.5h11.5
		c4.8,0,7.9-0.2,9.6-0.8c1.7-0.6,2.9-1.7,4-3.1c1-1.5,1.5-2.9,1.5-4.4c0-1.9-0.6-3.5-2.1-4.8s-3.8-1.9-7.1-1.9H328L324.8,395.5z
		 M330,370.5h9c4,0,6.9-0.2,8.8-0.8c1.7-0.6,3.1-1.5,4-2.9c0.8-1.3,1.3-2.7,1.3-4.2s-0.4-2.7-1.3-3.5c-0.8-0.8-2.1-1.7-3.5-1.9
		c-0.8-0.2-2.9-0.2-6.3-0.2h-9.2L330,370.5z"/>
	<path class="st0" d="M398.3,404.7h-11.9l4.6-22.3l-15.9-35.1h12.5l7.1,16.3c1.7,4,2.9,6.7,3.3,8.3c1-1.7,2.1-3.5,3.3-5.4l5.4-7.7
		l8.1-11.7h13.8l-26.1,36.3L398.3,404.7z"/>
	<polygon class="st0" points="483.4,379 461.1,379 455.7,404.7 444,404.7 455.9,347.3 467.8,347.3 463.2,369.4 485.3,369.4 
		490.1,347.3 501.8,347.3 489.9,404.7 478,404.7 	"/>
	<polygon class="st0" points="534.8,404.7 523.7,404.7 521.6,356.7 512.5,404.7 501.8,404.7 513.7,347.3 530.6,347.3 532.3,387.6 
		551.9,347.3 569,347.3 557.1,404.7 546.3,404.7 557.5,357.1 	"/>
	<path class="st0" d="M570.5,386.1l11.3-0.6c0.2,3.5,0.8,6.1,1.9,7.3c1.7,2.1,5,3.1,9.6,3.1c4,0,6.7-0.6,8.3-2.1
		c1.7-1.5,2.5-3.1,2.5-5c0-1.7-0.6-3.1-2.1-4.4c-1-0.8-3.8-2.3-8.1-4.2c-4.4-1.9-7.7-3.5-9.8-4.8s-3.8-2.9-4.8-5
		c-1.3-2.1-1.9-4.6-1.9-7.3c0-4.8,1.7-8.8,5.2-12.1c3.5-3.1,8.6-4.8,15.2-4.8s11.9,1.7,15.7,4.8c3.8,3.1,5.6,7.3,6.1,12.7l-11.3,0.4
		c-0.2-2.7-1.3-4.8-2.9-6.3c-1.7-1.5-4.2-2.3-7.5-2.3s-5.6,0.6-7.1,1.7c-1.5,1-2.1,2.5-2.1,4.4c0,1.7,0.6,2.9,1.9,4.2
		c1.3,1,4.2,2.5,8.6,4.6c6.7,2.9,10.9,5.2,12.7,6.9c2.7,2.5,4,6.1,4,10c0,5-2.1,9.4-6.1,12.9s-9.6,5.4-16.7,5.4
		c-5,0-9.2-0.8-12.9-2.5c-3.5-1.7-6.3-4-7.7-6.9C571.1,393.4,570.5,389.9,570.5,386.1"/>
	<polygon class="st0" points="690.7,404.7 679.6,404.7 664,366.1 656,404.7 645,404.7 656.9,347.3 667.9,347.3 683.6,385.7 
		691.7,347.3 702.6,347.3 	"/>
	<polygon class="st0" points="702.6,404.7 714.7,347.3 757.3,347.3 755.4,356.9 724.5,356.9 721.8,369.9 751.6,369.9 749.5,379.5 
		719.7,379.5 716.1,395.1 749.5,395.1 747.7,404.7 	"/>
	<polygon class="st0" points="781.3,404.7 769.4,404.7 779.6,356.9 762.7,356.9 764.6,347.3 809.9,347.3 808,356.9 791.3,356.9 	"/>
	<polygon class="st0" points="859.9,404.7 848,404.7 846.8,362.8 825.9,404.7 813.6,404.7 811.5,347.3 823,347.3 823.6,387.6 
		843.2,347.3 856.2,347.3 857.4,387.2 876.4,347.3 887.9,347.3 	"/>
	<path class="st0" d="M885,382.2c0-3.3,0.4-6.9,1.5-10.6c1.3-5,3.3-9.4,6.1-13.1c2.7-3.8,6.3-6.7,10.4-8.8c4.2-2.1,9-3.3,14.2-3.3
		c7.1,0,12.9,2.3,17.3,6.7c4.4,4.4,6.5,10.2,6.5,17.5c0,6.1-1.5,11.9-4.2,17.5c-2.9,5.6-6.7,10-11.7,13.1
		c-4.8,3.1-10.4,4.6-16.7,4.6c-5.4,0-9.8-1.3-13.6-3.8c-3.5-2.5-6.3-5.4-7.7-9C885.6,389.5,885,385.9,885,382.2 M896.7,382
		c0,4,1.3,7.3,3.5,10c2.5,2.7,5.6,4,9.4,4c3.1,0,6.3-1,9.2-3.1s5.4-5.2,7.3-9.6c1.9-4.4,2.9-8.3,2.9-12.5c0-4.6-1.3-8.1-3.8-10.6
		s-5.6-4-9.4-4c-5.8,0-10.4,2.7-14.2,8.1C898.3,369.6,896.7,375.5,896.7,382"/>
	<path class="st0" d="M955.7,404.7h-11.9l12.1-57.6h25.5c4.4,0,7.7,0.4,10.2,1.5c2.5,0.8,4.4,2.5,5.8,5c1.5,2.5,2.3,5.2,2.3,8.8
		c0,4.8-1.5,9-4.4,12.1s-7.3,5.2-13.4,5.8c1.5,1.5,2.9,3.1,4.2,5.4c2.7,4.6,5.6,10.9,8.8,19h-12.7c-1-3.1-2.9-8.3-6.1-15.2
		c-1.7-3.8-3.3-6.3-5.2-7.5c-1-0.8-3.1-1-5.8-1h-4.8L955.7,404.7z M962.6,372.4h6.3c6.5,0,10.6-0.4,12.7-1c2.1-0.8,3.8-1.9,4.8-3.5
		c1.3-1.7,1.7-3.3,1.7-5c0-2.1-0.8-3.8-2.5-4.8c-1-0.6-3.3-0.8-6.9-0.8h-12.9L962.6,372.4z"/>
	<polygon class="st0" points="1001.6,404.7 1013.5,347.3 1025.4,347.3 1020.4,371.7 1046.9,347.3 1062.8,347.3 1036.9,369.9 
		1055.9,404.7 1042.6,404.7 1028.4,377.4 1017.1,387.2 1013.5,404.7 	"/>
	<path class="st0" d="M1061.5,386.1l11.3-0.6c0.2,3.5,0.8,6.1,1.9,7.3c1.7,2.1,5,3.1,9.6,3.1c4,0,6.7-0.6,8.3-2.1s2.5-3.1,2.5-5
		c0-1.7-0.6-3.1-2.1-4.4c-1-0.8-3.8-2.3-8.1-4.2c-4.4-1.9-7.7-3.5-9.8-4.8c-2.1-1.3-3.8-2.9-4.8-5c-1.3-2.1-1.9-4.6-1.9-7.3
		c0-4.8,1.7-8.8,5.2-12.1c3.5-3.1,8.6-4.8,15.2-4.8s11.9,1.7,15.7,4.8c3.8,3.1,5.6,7.3,6.1,12.7l-11.3,0.4c-0.2-2.7-1.3-4.8-2.9-6.3
		c-1.7-1.5-4.2-2.3-7.5-2.3s-5.6,0.6-7.1,1.7c-1.5,1-2.1,2.5-2.1,4.4c0,1.7,0.6,2.9,1.9,4.2c1.3,1,4.2,2.5,8.6,4.6
		c6.7,2.9,10.9,5.2,12.7,6.9c2.7,2.5,4,6.1,4,10c0,5-2.1,9.4-6.1,12.9s-9.6,5.4-16.7,5.4c-5,0-9.2-0.8-12.9-2.5
		c-3.5-1.7-6.3-4-7.7-6.9C1062.2,393.4,1061.5,389.9,1061.5,386.1"/>
	<path class="st0" d="M1225.6,36.6c8.1,0,16.1,2.1,23.8,6.3s13.8,10.2,18.2,17.9c4.4,7.7,6.5,15.9,6.5,24.4c0,8.3-2.1,16.5-6.5,24.2
		c-4.2,7.7-10.2,13.8-17.9,17.9c-7.7,4.2-15.7,6.5-24.2,6.5s-16.5-2.1-24.2-6.5c-7.7-4.2-13.8-10.2-17.9-17.9
		c-4.4-7.7-6.5-15.7-6.5-24.2c0-8.3,2.1-16.5,6.5-24.4c4.4-7.7,10.4-13.8,18.2-17.9C1209.5,38.6,1217.4,36.6,1225.6,36.6
		 M1225.6,44.5c-6.9,0-13.4,1.7-19.8,5.2c-6.5,3.5-11.5,8.6-15.2,15c-3.5,6.5-5.4,13.4-5.4,20.2c0,6.9,1.9,13.8,5.4,20
		c3.5,6.5,8.6,11.5,15,15c6.5,3.5,13.1,5.4,20,5.4s13.8-1.9,20-5.4c6.5-3.5,11.5-8.6,15-15c3.5-6.5,5.4-13.1,5.4-20
		c0-7.1-1.9-13.8-5.4-20.2c-3.5-6.5-8.8-11.5-15.2-15C1238.9,46.2,1232.5,44.5,1225.6,44.5 M1204.3,111.9V59.7h17.9
		c6.1,0,10.6,0.4,13.4,1.5c2.7,1,5,2.7,6.5,5c1.7,2.3,2.5,5,2.5,7.7c0,3.8-1.5,7.1-4.2,10s-6.3,4.4-10.9,4.8
		c1.9,0.8,3.3,1.7,4.4,2.7c2.1,2.1,4.6,5.4,7.7,10.4l6.5,10.2h-10.2l-4.6-8.1c-3.5-6.5-6.7-10.4-8.8-12.1c-1.5-1.3-3.8-1.9-6.7-1.9
		h-5V112L1204.3,111.9L1204.3,111.9L1204.3,111.9z M1212.9,82.5h10.2c4.8,0,8.1-0.6,10-2.1s2.7-3.3,2.7-5.8c0-1.5-0.4-2.9-1.3-4.2
		c-0.8-1.3-2.1-2.1-3.5-2.7s-4.4-0.8-8.6-0.8h-9.6L1212.9,82.5L1212.9,82.5z"/>
</g>
</svg>
