<?xml version="1.0" encoding="utf-8"?>
<!-- Generator: Adobe Illustrator 25.2.3, SVG Export Plug-In . SVG Version: 6.00 Build 0)  -->
<svg version="1.1" id="Слой_2_1_" xmlns="http://www.w3.org/2000/svg" xmlns:xlink="http://www.w3.org/1999/xlink" x="0px"
	 y="0px" viewBox="0 0 1049.4 1178.4" style="enable-background:new 0 0 1049.4 1178.4;" xml:space="preserve">
<style type="text/css">
	.st0{fill:#484848;}
</style>
<g>
	<g>
		<path class="st0" d="M52.8,939v94.4h117.4V939h30.3v225.5h-30.9v-105.4H52.8v105.4H21.9V939H52.8z"/>
		<path class="st0" d="M382.5,1133.2c0.4,2.5,1,4.2,1.7,5.4c0.7,1.1,1.8,1.9,3.2,2.3c1.4,0.6,3.3,0.7,5.7,0.3
			c2.3-0.4,4.8-0.8,7.5-1.2v20.2c-2,0.8-4,1.4-6,1.7c-1.9,0.3-4.1,0.6-6.6,0.8c-2,0.2-4.1,0.3-6.3,0.3s-4.3-0.2-6.4-0.6
			s-4.2-1-6.1-1.8s-3.8-2-5.7-3.7c-2.3-2.2-3.8-4.9-4.7-8c-0.9-3.1-1.6-6.3-2-9.8c-2.7,2.5-5.4,5-8.3,7.7s-6,4.9-9.5,6.7
			c-4.5,2.9-9.4,5.2-14.7,7c-5.3,1.8-10.7,3.1-16.2,3.7c-5.1,0.6-10.1,0.8-15,0.6c-4.9-0.2-9.9-1.2-15-3.1c-5.5-2-10.7-5.1-15.5-9.2
			s-8.8-9-12.1-14.7c-1.8-3.3-3.1-6.8-3.7-10.6c-0.6-3.8-0.8-7.6-0.6-11.3c0.2-3.8,0.8-7.5,1.7-11.2s2.1-7.2,3.5-10.4
			c1.8-3.7,4-6.9,6.6-9.7c2.6-2.8,5.3-5.1,8.3-7s5.9-3.6,8.9-4.9s5.8-2.4,8.4-3.2c5.1-1.8,9.9-3.1,14.4-3.7s8.8-1.1,12.9-1.4
			s8.2-0.6,12.3-0.8c4.1-0.2,8.3-0.6,12.6-1.2c3.1-0.6,5.9-1.4,8.4-2.3c2.6-0.9,4.7-2.2,6.4-4c1.7-1.7,3.1-3.8,4-6.1
			c0.9-2.3,1.4-5.2,1.4-8.4c-0.2-2.9-0.7-5.5-1.5-8s-2-4.7-3.5-6.7s-3.3-3.8-5.4-5.4c-2-1.5-4.3-2.8-6.7-3.8
			c-5.1-1.4-10.5-2.5-16.1-3.1s-11.3-0.4-17,0.6c-3.7,0.8-7,2-10.1,3.7c-3.1,1.6-5.9,4-8.6,7c-2.3,2.5-3.9,5.5-4.9,9
			c-1,3.6-1.6,7.3-1.8,11.2h-25.7c0-3.9,0.5-7.8,1.4-11.6c0.9-3.9,2.1-7.7,3.5-11.3c1.6-3.5,3.7-6.7,6.1-9.7c2.5-3,5.1-5.7,8-8.1
			c2.9-2.5,5.9-4.5,9.2-6.3c3.3-1.7,6.6-3.1,10.1-4.1c4.3-1.2,8.6-2.1,13-2.8c4.4-0.6,8.8-0.9,13.2-0.8c4.4,0.1,8.7,0.4,13,0.9
			s8.4,1.2,12.3,2c5.1,1,9.9,2.6,14.2,4.6c4.4,2,8.3,4.6,11.6,7.7c3.4,3.1,6.2,6.6,8.4,10.6c2.2,4,3.6,8.5,4,13.6v102.4H382.5z
			 M354.9,1076.5c-1.2,0.8-2.7,1.6-4.3,2.3c-1.6,0.7-3.5,1.4-5.5,2s-4.1,1.1-6.3,1.5c-2.1,0.4-4.4,0.8-6.9,1.2
			c-2.9,0.6-5.8,1.2-8.9,1.7s-6.1,1.1-9.2,1.7s-6.1,1.3-9,2.1c-3,0.8-5.9,1.7-8.7,2.8c-2.5,1.4-4.8,2.7-7,3.8
			c-2.3,1.1-4.3,2.5-6.1,4c-1.8,1.5-3.4,3.4-4.7,5.7c-1.3,2.3-2.3,5.1-2.9,8.6c-0.2,4.1,0.2,7.8,1.1,11c0.9,3.3,2.3,6.1,4.3,8.4
			c1.9,2.4,4.2,4.3,6.9,5.8c2.7,1.5,5.5,2.6,8.6,3.2c4.1,0.6,8.3,0.7,12.6,0.2c4.3-0.5,8.5-1.4,12.7-2.8c4.2-1.3,8.1-2.9,11.6-4.7
			c3.6-1.8,6.7-3.7,9.3-5.5c2-1.4,3.7-2.9,5.1-4.4c1.3-1.5,2.5-3.1,3.5-4.6s1.8-3.2,2.5-5.1c0.6-1.8,1.1-3.9,1.5-6.1v-32.8H354.9z"
			/>
		<path class="st0" d="M435.3,996v164h28.5V996H435.3z"/>
		<path class="st0" d="M709.6,999.2l-47.2,163.9h-28.2L600.5,1035l-32.2,128.1h-28.5l-47.2-164.5h29.7l31.6,127.5l31.9-127.5h30.9
			l33.1,128.1l32.5-127.5L709.6,999.2L709.6,999.2z"/>
		<path class="st0" d="M761.7,1087.6c-0.2,3.3-0.2,6.2,0,8.9c0.2,2.7,0.6,5.2,1.1,7.7s1.2,4.8,2,7c0.8,2.3,1.7,4.6,2.8,7
			c1.4,3.5,3.2,6.4,5.4,8.9c2.1,2.5,4.5,4.6,7,6.4c2.6,1.8,5.3,3.4,8.3,4.6s5.9,2.3,8.7,3.1c3.1,0.6,6.2,0.9,9.5,0.9
			s6.5-0.3,9.7-0.8s6.3-1.4,9.3-2.6c3.1-1.2,5.9-2.6,8.6-4c4.3-2.9,8-6.4,11-10.7c3.1-4.3,5.2-9.3,6.4-15l27.9,0.3
			c-0.6,2.9-1.2,5.4-1.8,7.5s-1.3,4.1-2.1,6c-0.8,1.8-1.7,3.6-2.6,5.4c-0.9,1.7-2,3.5-3.2,5.4c-4.3,6.1-8.4,11.1-12.3,14.9
			c-3.9,3.8-7.8,6.7-11.6,8.7c-2.7,1.6-5.3,2.9-7.8,3.8c-2.6,0.9-5.2,1.7-7.8,2.3c-2.7,0.6-5.5,1.1-8.4,1.4c-3,0.3-6.2,0.6-9.7,0.8
			c-3.3,0.2-6.7,0.2-10.3,0s-7.2-0.6-10.7-1.2c-3.6-0.6-7.2-1.4-10.7-2.5c-3.6-1-6.9-2.3-10-4c-5.5-2.9-10.4-6.4-14.6-10.6
			c-4.2-4.2-7.7-8.6-10.6-13.3c-2.9-4.9-5.2-10-7-15.3s-3.3-10.7-4.3-16.2c-1.2-5.5-1.8-11.3-1.8-17.3s0.4-12.1,1.2-18.2
			c0.6-4.7,1.5-9.4,2.8-14.1c1.2-4.7,2.6-9.3,4-13.8c1.6-4.9,3.9-9.6,6.9-14.1s6.4-8.6,10.3-12.3c3.9-3.9,8.1-7.3,12.6-10.1
			c4.5-2.9,9.1-5.2,13.8-7c1.6-0.6,3.4-1.2,5.4-1.7c1.9-0.5,4-1,6.3-1.4c2.2-0.4,4.6-0.8,7-1.1c2.5-0.3,4.8-0.5,7-0.5
			c2.5,0,4.9,0.1,7.4,0.2c2.5,0.1,4.7,0.3,6.9,0.6c2.1,0.3,4.1,0.7,6,1.2c1.8,0.5,3.6,1.2,5.2,2c2,1.2,3.9,2.3,5.7,3.2
			c1.7,0.9,3.4,1.8,4.9,2.6s3,1.7,4.4,2.6c1.4,0.9,2.8,1.9,4.1,3.1c1.3,1.1,2.6,2.3,3.8,3.5s2.5,2.7,3.7,4.4s2.5,3.6,3.8,5.7
			c1.3,2,2.8,4.5,4.4,7.4c1,1.8,2,4,2.9,6.4c0.9,2.5,1.7,5.1,2.5,7.8c0.7,2.8,1.4,5.6,2,8.6s1.2,6.1,1.8,9.3
			c0.6,4.7,1.1,9.5,1.4,14.4c0.3,4.9,0.5,9.5,0.5,13.8L761.7,1087.6L761.7,1087.6z M762,1065.8h90.1c0.2-2.9-0.1-6.1-0.8-9.8
			c-0.7-3.7-1.8-7.5-3.2-11.3c-1.2-3.7-2.8-7.2-4.7-10.4c-1.9-3.3-4-5.8-6.3-7.7c-4.9-3.9-10.1-6.5-15.5-8
			c-5.4-1.4-10.7-1.9-15.8-1.5c-2.5,0.2-4.9,0.6-7.4,1.1s-4.7,1.2-6.9,2c-2.1,0.8-4.2,1.8-6.1,2.9c-1.9,1.1-3.6,2.3-5.1,3.5
			c-2.7,2.5-5.2,5.2-7.5,8.1c-2.3,3-4.3,6.2-6,9.7c-1.6,3.3-2.9,6.7-3.8,10.4C762.1,1058.5,761.8,1062.1,762,1065.8z"/>
		<path class="st0" d="M923.2,937.8H951v226.7h-27.9V937.8H923.2z"/>
		<path class="st0" d="M997.2,937.8h27.9v226.7h-27.9L997.2,937.8L997.2,937.8z"/>
		<rect x="432.4" y="923.1" class="st0" width="35.4" height="39.9"/>
	</g>
	<g>
		<path class="st0" d="M589.6,385.8v340.6c0-38.7-29.9-70-66.8-70s-66.8,31.3-66.8,70V385.8c0,38.7,29.9,70,66.8,70
			S589.6,424.5,589.6,385.8z"/>
		<path class="st0" d="M286.4,555.2c0,71.8,71.9,132.4,170.2,151.5l-0.6,181H21.9L458.7,19.1l-1.2,384.4
			C358.7,422.4,286.4,483.2,286.4,555.2z"/>
		<path class="st0" d="M1023.7,887.7H589.6L589,706.2c97-19.7,167.5-79.9,167.5-151c0-71.4-71-131.7-168.5-151.2l-1.2-385
			L1023.7,887.7z"/>
	</g>
</g>
</svg>
