<?xml version="1.0" encoding="utf-8"?>
<!-- Generator: Adobe Illustrator 25.2.3, SVG Export Plug-In . SVG Version: 6.00 Build 0)  -->
<svg version="1.1" id="Слой_1" xmlns="http://www.w3.org/2000/svg" xmlns:xlink="http://www.w3.org/1999/xlink" x="0px" y="0px"
	 viewBox="0 0 600 495" style="enable-background:new 0 0 600 495;" xml:space="preserve">
<style type="text/css">
	.st0{display:none;}
	.st1{display:inline;fill:#2E3E8C;}
	.st2{fill:#484848;}
</style>
<g id="Слой_8" class="st0">
	<rect y="0" class="st1" width="606" height="495"/>
</g>
<g id="ifclogo_копия_2_1_">
	<g id="Technology_xA0_Изображение_1_" class="st0">
	</g>
	<g id="Прямоугольник_3_копия_5_xA0_Изображение_1_" class="st0">
	</g>
	<g id="Прямоугольник_3_копия_2_xA0_Изображение_1_" class="st0">
	</g>
	<g id="Слой_7" class="st0">
	</g>
	<g id="Прямоугольник_3_копия_xA0_Изображение_1_" class="st0">
	</g>
	<g id="Прямоугольник_3_xA0_Изображение_1_" class="st0">
	</g>
	<g id="Слой_9">
		<rect x="6.5" y="8.4" class="st2" width="104.4" height="93"/>
		<g>
			<g>
				<rect x="6.5" y="140.7" class="st2" width="104.4" height="237.3"/>
				<polygon class="st2" points="591.8,97.5 591.8,6.7 493.1,6.7 493.1,6.7 388.6,6.7 388.6,378.3 493.1,378.3 493.1,377.9 
					591.8,377.9 591.8,287.2 493.1,287.2 493.1,97.5 				"/>
				<polygon class="st2" points="355.1,99.1 355.1,8.4 249.3,8.4 225,8.4 144.8,8.4 144.8,380 249.3,380 249.3,231.1 321.3,231.1 
					321.3,140.4 249.3,140.4 249.3,99.1 				"/>
			</g>
			<g>
				<path class="st2" d="M39.3,484.4h-19v-51.5H5.5l3.2-17.2H54l-3.2,17.2H39.3V484.4z"/>
				<path class="st2" d="M60.2,484.4v-68.7h41.3l-3.3,17.2H78.9v8.2h17.8l-3.2,16.3H78.9v9.8h22.6l-3.3,17.2L60.2,484.4L60.2,484.4z
					"/>
				<path class="st2" d="M149.4,460.6l11.2,15.8c-2.9,3.2-6.3,5.6-10.2,7.3c-3.9,1.7-8.1,2.5-12.5,2.5s-8.7-0.8-12.7-2.5
					s-7.5-4-10.6-7.2c-3-3.1-5.5-6.9-7.3-11.4s-2.7-9.5-2.7-15.1s0.9-10.6,2.7-15.1c1.8-4.5,4.3-8.2,7.3-11.4
					c3.1-3.1,6.6-5.5,10.6-7.2s8.2-2.5,12.6-2.5c4.9,0,9.3,1,13.2,3.1s7.1,5,9.5,8.8l-11.2,13.6c-1.4-1.8-3-3.3-5-4.7
					c-1.9-1.3-4.1-2-6.6-2c-1.7,0-3.4,0.4-5,1.1c-1.7,0.7-3.1,1.8-4.4,3.3c-1.3,1.5-2.3,3.3-3,5.4c-0.8,2.1-1.2,4.6-1.2,7.4
					s0.4,5.3,1.2,7.4c0.8,2.1,1.8,3.9,3,5.4c1.3,1.5,2.7,2.6,4.4,3.3c1.7,0.7,3.3,1.1,5,1.1c2.6,0,4.9-0.6,6.7-1.7
					C146.5,464.4,148.1,462.7,149.4,460.6z"/>
				<path class="st2" d="M167,484.4v-68.7h19v24.5h13.1v-24.5h19v68.7h-19v-27H186v27L167,484.4L167,484.4z"/>
				<path class="st2" d="M284.5,415.7v68.7h-18.7L249,455.3v29.1h-18.7v-68.7H249l16.7,30.2v-30.2H284.5z"/>
				<path class="st2" d="M325.5,414c4.4,0,8.7,0.8,12.7,2.5s7.5,4,10.6,7.2c3,3.1,5.5,6.9,7.3,11.4s2.7,9.5,2.7,15.1
					s-0.9,10.6-2.7,15.1c-1.8,4.5-4.3,8.2-7.3,11.4c-3,3.1-6.6,5.5-10.6,7.2s-8.2,2.5-12.7,2.5c-4.4,0-8.7-0.8-12.7-2.5
					s-7.5-4-10.6-7.2c-3-3.1-5.5-6.9-7.3-11.4s-2.7-9.5-2.7-15.1c0.1-5.6,1-10.6,2.8-15.1s4.3-8.2,7.3-11.4c3-3.1,6.6-5.5,10.5-7.2
					C316.8,414.8,321,414,325.5,414z M311.9,450.1c0,2.8,0.4,5.3,1.2,7.4c0.8,2.1,1.8,3.9,3,5.4c1.3,1.5,2.7,2.6,4.4,3.3
					c1.7,0.7,3.3,1.1,5,1.1c1.8,0,3.5-0.4,5.1-1.1s3.1-1.8,4.3-3.3c1.3-1.5,2.3-3.3,3-5.4c0.8-2.1,1.2-4.6,1.2-7.4s-0.4-5.3-1.2-7.4
					c-0.8-2.1-1.8-3.9-3-5.4c-1.3-1.5-2.7-2.6-4.3-3.3c-1.6-0.7-3.3-1.1-5.1-1.1c-1.7,0-3.4,0.4-5,1.1c-1.7,0.7-3.1,1.8-4.4,3.3
					s-2.3,3.3-3,5.4C312.3,444.8,311.9,447.3,311.9,450.1z"/>
				<path class="st2" d="M366.4,484.4v-68.7h19v51.5h22.8l-3.3,17.2L366.4,484.4L366.4,484.4z"/>
				<path class="st2" d="M444.1,414c4.4,0,8.7,0.8,12.7,2.5s7.5,4,10.6,7.2c3,3.1,5.5,6.9,7.3,11.4s2.7,9.5,2.7,15.1
					s-0.9,10.6-2.7,15.1c-1.8,4.5-4.3,8.2-7.3,11.4c-3,3.1-6.6,5.5-10.6,7.2s-8.2,2.5-12.7,2.5c-4.4,0-8.7-0.8-12.7-2.5
					s-7.5-4-10.6-7.2c-3-3.1-5.5-6.9-7.3-11.4s-2.7-9.5-2.7-15.1c0.1-5.6,1-10.6,2.8-15.1s4.3-8.2,7.3-11.4c3-3.1,6.6-5.5,10.5-7.2
					C435.4,414.8,439.6,414,444.1,414z M430.5,450.1c0,2.8,0.4,5.3,1.2,7.4c0.8,2.1,1.8,3.9,3,5.4c1.3,1.5,2.7,2.6,4.4,3.3
					c1.7,0.7,3.3,1.1,5,1.1c1.8,0,3.5-0.4,5.1-1.1s3.1-1.8,4.3-3.3c1.3-1.5,2.3-3.3,3-5.4c0.8-2.1,1.2-4.6,1.2-7.4s-0.4-5.3-1.2-7.4
					c-0.8-2.1-1.8-3.9-3-5.4c-1.3-1.5-2.7-2.6-4.3-3.3c-1.6-0.7-3.3-1.1-5.1-1.1c-1.7,0-3.4,0.4-5,1.1c-1.7,0.7-3.1,1.8-4.4,3.3
					s-2.3,3.3-3,5.4C430.9,444.8,430.5,447.3,430.5,450.1z"/>
				<path class="st2" d="M513.8,467.2c0.7,0,1.5-0.1,2.2-0.2s1.5-0.3,2.4-0.7V450h18.7v26.3c-2.9,3.2-6.4,5.6-10.5,7.3
					s-8.4,2.5-12.8,2.5c-4.4,0-8.7-0.8-12.7-2.5s-7.5-4-10.6-7.2c-3-3.1-5.5-6.9-7.3-11.4s-2.7-9.5-2.7-15.1s0.9-10.6,2.7-15.1
					c1.8-4.5,4.3-8.2,7.3-11.4c3.1-3.1,6.6-5.5,10.6-7.2s8.2-2.5,12.6-2.5c4.9,0,9.3,1,13.1,3.1s7,5,9.4,8.8l-11.2,14
					c-1.4-1.8-3-3.3-4.8-4.7c-1.9-1.3-4-2-6.4-2c-1.7,0-3.4,0.4-5,1.1c-1.7,0.7-3.1,1.8-4.4,3.3s-2.3,3.3-3,5.4
					c-0.8,2.1-1.2,4.6-1.2,7.4s0.4,5.3,1.2,7.4c0.8,2.1,1.8,3.9,3,5.4c1.3,1.5,2.7,2.6,4.4,3.3C510.4,466.9,512.1,467.2,513.8,467.2
					z"/>
				<path class="st2" d="M557.2,457.4l-19.6-41.7h19.6l9.5,24.5l9.5-24.5h19.7l-19.7,41.7v27h-19V457.4z"/>
			</g>
		</g>
		<g>
			<g>
				<path class="st2" d="M112.5,102.9H5v-96h107.4L112.5,102.9L112.5,102.9z M8,99.9h101.4v-90H8V99.9z"/>
				<path class="st2" d="M112.5,379.5H5V139.2h107.4L112.5,379.5L112.5,379.5z M8,376.5h101.4V142.2H8V376.5z"/>
				<path class="st2" d="M494.6,379.8H387.1V5.2h206.2V99h-98.7v186.7h98.7v93.8h-98.7L494.6,379.8L494.6,379.8z M390.1,376.8h101.4
					v-0.4h98.7v-87.8h-98.7V96h98.7V8.2H390v368.6H390.1z"/>
				<path class="st2" d="M250.8,381.5H143.3V6.9h213.3v93.8H250.8v38.2h72v93.8h-72L250.8,381.5L250.8,381.5z M146.3,378.5h101.4
					V229.6h72v-87.8h-72V97.6h105.9V9.9H146.3V378.5z"/>
			</g>
			<g>
				<path class="st2" d="M40.8,485.9h-22v-51.5H3.7l3.8-20.2h48.3L52,434.4H40.8V485.9z M21.8,482.9h16v-51.5h11.8l2.7-14.2H10
					l-2.7,14.2h14.5V482.9z"/>
				<path class="st2" d="M99.4,485.9H58.7v-71.7h44.7l-3.9,20.2h-19v5.2h18.1l-3.7,19.3H80.4v6.8h23L99.4,485.9z M61.7,482.9H97
					l2.7-14.2H77.4v-12.8h14.9l2.6-13.3H77.4v-11.2H97l2.7-14.2h-38C61.7,417.2,61.7,482.9,61.7,482.9z"/>
				<path class="st2" d="M137.9,487.6c-4.6,0-9.1-0.9-13.3-2.6s-7.9-4.2-11.1-7.5c-3.2-3.2-5.7-7.2-7.6-11.8
					c-1.9-4.6-2.8-9.9-2.8-15.6c0-5.8,1-11,2.8-15.6c1.9-4.6,4.5-8.6,7.7-11.8c3.2-3.2,6.9-5.8,11.1-7.5c4.2-1.7,8.6-2.6,13.2-2.6
					c5.1,0,9.8,1.1,13.9,3.3c4.1,2.2,7.5,5.3,10.1,9.3l0.6,0.9l-13.1,16l-1.2-1.5c-1.3-1.6-2.8-3.1-4.6-4.4
					c-1.7-1.2-3.6-1.7-5.7-1.7c-1.5,0-3,0.3-4.4,1c-1.4,0.6-2.7,1.6-3.8,2.9s-2.1,3-2.8,4.9c-0.7,2-1.1,4.3-1.1,6.9s0.4,4.9,1.1,6.9
					s1.6,3.6,2.8,4.9c1.1,1.3,2.4,2.3,3.8,2.9c1.5,0.6,2.9,1,4.4,1c2.3,0,4.3-0.5,6-1.5s3.1-2.5,4.3-4.5l1.2-2l13.2,18.7l-0.8,0.9
					c-3,3.3-6.6,5.9-10.7,7.6C146.9,486.8,142.5,487.6,137.9,487.6z M137.9,415.5c-4.2,0-8.2,0.8-12,2.4s-7.2,3.9-10.1,6.8
					c-2.9,3-5.3,6.6-7,10.9c-1.7,4.2-2.6,9.1-2.6,14.5s0.9,10.3,2.6,14.5c1.7,4.3,4.1,7.9,7,10.9s6.3,5.2,10.1,6.8
					c3.8,1.6,7.9,2.4,12.1,2.4c4.2,0,8.2-0.8,11.9-2.4c3.3-1.4,6.3-3.4,8.9-6l-9.2-13.1c-1.2,1.5-2.5,2.7-4,3.6
					c-2.1,1.3-4.6,1.9-7.5,1.9c-1.9,0-3.8-0.4-5.6-1.2c-1.9-0.8-3.5-2.1-4.9-3.7s-2.5-3.6-3.3-5.9s-1.2-4.9-1.2-7.9s0.4-5.6,1.2-7.9
					c0.8-2.3,1.9-4.3,3.3-5.9s3-2.9,4.9-3.7c1.8-0.8,3.7-1.2,5.6-1.2c2.7,0,5.2,0.8,7.4,2.3c1.5,1,2.9,2.2,4.1,3.6l9.3-11.4
					c-2.2-3.1-5-5.6-8.4-7.4C146.7,416.5,142.5,415.5,137.9,415.5z"/>
				<path class="st2" d="M219.5,485.9h-22v-27h-10.1v27h-22v-71.7h22v24.5h10.1v-24.5h22V485.9z M200.6,482.9h16v-65.7h-16v24.5
					h-16.1v-24.5h-16v65.7h16v-27h16.1V482.9z"/>
				<path class="st2" d="M286,485.9h-21.1l-14.4-25v25h-21.7v-71.7h21.1l14.4,25.9v-25.9H286V485.9z M266.6,482.9H283v-65.7h-15.7
					v34.6l-19.1-34.6h-16.3v65.7h15.7v-33.2L266.6,482.9z"/>
				<path class="st2" d="M325.5,487.6c-4.6,0-9.1-0.9-13.3-2.6c-4.2-1.7-7.9-4.2-11.1-7.5c-3.2-3.2-5.7-7.2-7.6-11.8
					c-1.9-4.6-2.8-9.9-2.8-15.6c0.1-5.8,1-11,2.9-15.6s4.4-8.6,7.6-11.8c3.2-3.2,6.9-5.8,11-7.5c4.2-1.7,8.6-2.6,13.2-2.6
					s9.1,0.9,13.3,2.6c4.2,1.7,7.9,4.2,11.1,7.5c3.2,3.2,5.7,7.2,7.6,11.8c1.9,4.6,2.8,9.9,2.8,15.6c0,5.8-1,11-2.8,15.6
					c-1.9,4.6-4.5,8.6-7.6,11.8c-3.2,3.3-6.9,5.8-11.1,7.5C334.5,486.8,330.1,487.6,325.5,487.6z M325.5,415.5
					c-4.2,0-8.3,0.8-12.1,2.4c-3.8,1.6-7.2,3.9-10,6.8c-2.9,3-5.2,6.6-7,10.9c-1.7,4.3-2.7,9.1-2.7,14.5s0.9,10.2,2.6,14.5
					s4.1,7.9,7,10.9s6.3,5.3,10.1,6.8c3.8,1.6,7.9,2.4,12.1,2.4s8.3-0.8,12.1-2.4c3.8-1.6,7.2-3.9,10.1-6.8c2.9-3,5.2-6.6,7-10.9
					c1.7-4.2,2.6-9.1,2.6-14.5s-0.9-10.3-2.6-14.5c-1.7-4.3-4.1-7.9-7-10.9s-6.3-5.2-10.1-6.8C333.8,416.3,329.7,415.5,325.5,415.5z
					 M325.5,468.7c-1.9,0-3.8-0.4-5.6-1.2c-1.9-0.8-3.5-2.1-4.9-3.7s-2.5-3.6-3.3-5.9s-1.2-4.9-1.2-7.9s0.4-5.6,1.2-7.9
					c0.8-2.3,1.9-4.3,3.3-5.9s3-2.9,4.9-3.7c3.7-1.7,7.8-1.6,11.3,0c1.8,0.8,3.4,2.1,4.8,3.7s2.5,3.6,3.3,5.9s1.2,4.9,1.2,7.9
					s-0.4,5.6-1.2,7.9c-0.8,2.3-1.9,4.3-3.3,5.9s-3,2.9-4.8,3.7C329.3,468.3,327.4,468.7,325.5,468.7z M325.5,434.4
					c-1.5,0-3,0.3-4.4,1c-1.4,0.6-2.7,1.6-3.8,2.9c-1.1,1.3-2.1,3-2.8,4.9c-0.7,2-1.1,4.3-1.1,6.9s0.4,4.9,1.1,6.9s1.6,3.6,2.8,4.9
					c1.1,1.3,2.4,2.3,3.8,2.9c3,1.3,6.1,1.3,8.9,0c1.4-0.6,2.7-1.6,3.8-2.9c1.1-1.3,2.1-3,2.8-4.9c0.7-2,1.1-4.3,1.1-6.9
					s-0.4-4.9-1.1-6.9c-0.7-1.9-1.6-3.6-2.8-4.9c-1.1-1.3-2.4-2.3-3.8-2.9C328.5,434.7,327,434.4,325.5,434.4z"/>
				<path class="st2" d="M406.1,485.9h-41.2v-71.7h22v51.5H410L406.1,485.9z M367.9,482.9h35.7l2.7-14.2h-22.5v-51.5h-16
					L367.9,482.9L367.9,482.9z"/>
				<path class="st2" d="M444.1,487.6c-4.6,0-9.1-0.9-13.3-2.6c-4.2-1.7-7.9-4.2-11.1-7.5c-3.2-3.2-5.7-7.2-7.6-11.8
					c-1.9-4.6-2.8-9.9-2.8-15.6c0.1-5.8,1-11,2.9-15.6s4.4-8.6,7.6-11.8c3.2-3.2,6.9-5.8,11-7.5c4.2-1.7,8.6-2.6,13.2-2.6
					s9.1,0.9,13.3,2.6c4.2,1.7,7.9,4.2,11.1,7.5c3.2,3.2,5.7,7.2,7.6,11.8c1.9,4.6,2.8,9.9,2.8,15.6c0,5.8-1,11-2.8,15.6
					c-1.9,4.6-4.5,8.6-7.6,11.8c-3.2,3.3-6.9,5.8-11.1,7.5C453.2,486.8,448.7,487.6,444.1,487.6z M444.1,415.5
					c-4.2,0-8.3,0.8-12.1,2.4c-3.8,1.6-7.2,3.9-10,6.8c-2.9,3-5.2,6.6-7,10.9c-1.7,4.3-2.7,9.1-2.7,14.5s0.9,10.2,2.6,14.5
					s4.1,7.9,7,10.9s6.3,5.3,10.1,6.8c3.8,1.6,7.9,2.4,12.1,2.4s8.3-0.8,12.1-2.4c3.8-1.6,7.2-3.9,10.1-6.8c2.9-3,5.2-6.6,7-10.9
					c1.7-4.2,2.6-9.1,2.6-14.5s-0.9-10.3-2.6-14.5c-1.7-4.3-4.1-7.9-7-10.9s-6.3-5.2-10.1-6.8C452.4,416.3,448.3,415.5,444.1,415.5z
					 M444.1,468.7c-1.9,0-3.8-0.4-5.6-1.2c-1.9-0.8-3.5-2.1-4.9-3.7s-2.5-3.6-3.3-5.9s-1.2-4.9-1.2-7.9s0.4-5.6,1.2-7.9
					c0.8-2.3,1.9-4.3,3.3-5.9s3-2.9,4.9-3.7c3.7-1.7,7.8-1.6,11.3,0c1.8,0.8,3.4,2.1,4.8,3.7s2.5,3.6,3.3,5.9s1.2,4.9,1.2,7.9
					s-0.4,5.6-1.2,7.9c-0.8,2.3-1.9,4.3-3.3,5.9s-3,2.9-4.8,3.7C448,468.3,446.1,468.7,444.1,468.7z M444.1,434.4
					c-1.5,0-3,0.3-4.4,1c-1.4,0.6-2.7,1.6-3.8,2.9c-1.1,1.3-2.1,3-2.8,4.9c-0.7,2-1.1,4.3-1.1,6.9s0.4,4.9,1.1,6.9s1.6,3.6,2.8,4.9
					c1.1,1.3,2.4,2.3,3.8,2.9c3,1.3,6.1,1.3,8.9,0c1.4-0.6,2.7-1.6,3.8-2.9c1.1-1.3,2.1-3,2.8-4.9c0.7-2,1.1-4.3,1.1-6.9
					s-0.4-4.9-1.1-6.9c-0.7-1.9-1.6-3.6-2.8-4.9c-1.1-1.3-2.4-2.3-3.8-2.9C447.1,434.7,445.6,434.4,444.1,434.4z"/>
				<path class="st2" d="M513.8,487.6c-4.6,0-9.1-0.9-13.3-2.6c-4.2-1.7-7.9-4.2-11.1-7.5c-3.2-3.2-5.7-7.2-7.6-11.8
					c-1.9-4.6-2.8-9.9-2.8-15.6c0-5.8,1-11,2.8-15.6c1.9-4.6,4.5-8.6,7.7-11.8c3.2-3.2,6.9-5.8,11.1-7.5s8.6-2.6,13.2-2.6
					c5.1,0,9.8,1.1,13.8,3.3c4,2.2,7.4,5.3,10,9.3l0.6,0.9L525,442l-1.1-1.5c-1.3-1.7-2.8-3.1-4.5-4.4c-1.6-1.2-3.4-1.7-5.6-1.7
					c-1.5,0-3,0.3-4.4,1c-1.4,0.6-2.7,1.6-3.8,2.9c-1.1,1.3-2.1,3-2.8,4.9c-0.7,2-1.1,4.3-1.1,6.9s0.4,4.9,1.1,6.9s1.6,3.6,2.8,4.9
					c1.1,1.3,2.4,2.3,3.8,2.9c2.1,0.9,4.3,1.2,6.4,0.8c0.4-0.1,0.7-0.2,1.1-0.3v-16.7h21.7V477l-0.4,0.4c-3,3.3-6.8,5.9-11.1,7.6
					C522.9,486.8,518.4,487.6,513.8,487.6z M513.8,415.5c-4.2,0-8.2,0.8-12,2.4s-7.2,3.9-10.1,6.8c-2.9,3-5.3,6.6-7,10.9
					c-1.7,4.2-2.6,9.1-2.6,14.5s0.9,10.3,2.6,14.5c1.7,4.3,4.1,7.9,7,10.9s6.3,5.3,10.1,6.8c3.8,1.6,7.9,2.4,12.1,2.4
					c4.2,0,8.3-0.8,12.2-2.4c3.7-1.5,6.9-3.7,9.6-6.5v-24.2H520v15.9l-1,0.4c-0.9,0.3-1.8,0.6-2.7,0.7c-2.7,0.5-5.5,0.2-8.1-1
					c-1.9-0.8-3.5-2.1-4.9-3.7s-2.5-3.6-3.3-5.9s-1.2-4.9-1.2-7.9s0.4-5.6,1.2-7.9c0.8-2.3,1.9-4.3,3.3-5.9s3-2.9,4.9-3.7
					c1.8-0.8,3.7-1.2,5.6-1.2c2.8,0,5.2,0.8,7.3,2.3c1.4,1,2.8,2.2,3.9,3.5l9.4-11.4c-2.2-3.1-5-5.6-8.3-7.4
					C522.6,416.5,518.4,415.5,513.8,415.5z"/>
				<path class="st2" d="M577.7,485.9h-22v-28.2l-20.5-43.5h23l8.5,21.9l8.5-21.9h23.1l-20.6,43.5V485.9z M558.7,482.9h16v-25.8
					l18.9-39.9h-16.3l-10.5,27.2l-10.5-27.2H540l18.8,39.9L558.7,482.9L558.7,482.9z"/>
			</g>
		</g>
	</g>
</g>
</svg>
