<?xml version="1.0" encoding="utf-8"?>
<!-- Generator: Adobe Illustrator 25.2.3, SVG Export Plug-In . SVG Version: 6.00 Build 0)  -->
<svg version="1.1" id="Слой_1" xmlns="http://www.w3.org/2000/svg" xmlns:xlink="http://www.w3.org/1999/xlink" x="0px" y="0px"
	 viewBox="0 0 850.4 283.5" style="enable-background:new 0 0 850.4 283.5;" xml:space="preserve">
<style type="text/css">
	.st0{fill:#484848;}
</style>
<g>
	<path class="st0" d="M262.1,211.9c-6.1,7.2-12.9,10.7-20.6,10.7c-5.8,0-9.9-1.6-12.4-4.7c-1-1.1-1.7-2.5-2.3-4.2l-1.1-4.3
		c-5.3,5.3-11.2,9.1-17.8,11.2c-2.4,0.8-4.8,1.3-7.2,1.7l-2.8,0.3l-2.1,0.1c-5.2,0-9.8-1.6-13.7-4.8c-4.6-3.7-7-8.8-7-15.3
		c0-8.7,5.1-16.1,15.2-21.9c4.2-2.4,9.5-4.7,16.1-7.1c2.7-1,5.8-2,9.4-3.1c2.3-0.8,5.6-1.8,9.8-3v-13.8c0-5.4-1-9.3-3-11.8
		c-2.6-3.1-7.1-4.7-13.5-4.7c-7.4,0-11.1,2.3-11.1,6.8c0,0.9,0.3,1.7,0.8,2.6c0.2,0.4,0.6,0.8,0.9,1.2l2.1,2.8l0.9,1.7
		c0.6,1.4,0.8,2.9,0.8,4.6c0,2.3-0.9,4.5-2.6,6.5c-2.3,2.7-5.7,4-10,4l-1.2-0.1c-0.6,0-1.1-0.1-1.7-0.2c-0.7-0.1-1.4-0.2-2-0.5
		c-0.8-0.2-1.5-0.5-2.2-0.9c-3.5-2-5.3-5.7-5.3-11.2c0-6.4,2.9-11.7,8.8-16.1c6.5-4.8,15.3-7.2,26.3-7.2c11.1,0,19.9,2.1,26.6,6.2
		c7.3,4.6,10.9,11.1,10.9,19.5l0.1,50.3c0.1,0.5,0.2,1.1,0.5,1.6c0.7,1.3,1.9,1.9,3.7,1.9c0.7,0,1.3-0.3,1.8-0.8l1.9-1.8
		L262.1,211.9z M225.5,173.9c-0.7,0.2-1.4,0.4-2.2,0.6l-3.2,1c-2.9,1.1-5.4,2.4-7.7,3.9c-2.9,2-5.2,4.3-6.9,6.9
		c-2,3.1-2.9,6.5-2.9,10.3c0,3.3,0.8,6.1,2.3,8.4c1.7,2.8,4.1,4.1,7.2,4.1c2.8,0,5.5-0.9,8.2-2.8c0.9-0.7,1.9-1.6,2.9-2.7l1.2-1.4
		c0.2-0.2,0.4-0.4,0.6-0.5c0.1-0.1,0.2-0.3,0.6-0.6v-27.2H225.5z"/>
	<path class="st0" d="M423.9,220h-44.7v-4.5c4-0.2,6.7-1.5,8.1-3.9c0.5-0.9,0.8-2,1-3.3c0.1-0.6,0.1-1.2,0.1-1.8V157
		c0-0.9,0-1.8-0.1-2.6c-0.2-2-0.6-3.7-1.2-5c-1.5-3.7-4.4-5.6-8.8-5.6c-3.5,0-7.1,1.6-10.9,4.9c-3.2,2.8-4.9,4.8-4.9,6v50.2
		c0,6.7,2.9,10.2,8.8,10.7v4.5h-44v-4.5c3.9-0.2,6.5-1.6,7.9-3.9c0.5-0.9,0.8-2,0.9-3.4c0.1-0.5,0.1-1.1,0.2-1.7v-47.2
		c0-2.1-0.1-3.8-0.2-5c-0.2-2-0.6-3.6-1.1-5c-1.5-3.7-4.6-5.5-9.1-5.5c-3.5,0-7.1,1.6-10.8,4.9c-3.2,2.8-4.8,4.7-4.8,6V205
		c0,6.5,2.9,10.1,8.7,10.7v4.5h-45.1v-4.5c3.7-0.7,6.2-1.6,7.5-2.7c1.9-1.6,2.8-4.5,2.8-8.6v-55.2c0-4.3-1-7.3-3.1-8.9
		c-0.9-0.7-2-1.2-3.3-1.6c-0.6-0.1-1.2-0.2-1.9-0.4c-0.3-0.1-0.6-0.1-1-0.1l-1-0.2v-4.5h35.9V147h0.4l1.3-1.9
		c0.6-0.9,1.2-1.7,1.8-2.4c1.6-2,3.4-3.8,5.3-5.2c5.3-4.2,11.4-6.2,18.3-6.2c7.5,0,13.4,2,17.7,6c1.6,1.5,3,3.2,4.3,5.3
		c0.5,0.8,1,1.7,1.5,2.7l1.1,2.4c8.3-10.9,17.6-16.3,27.8-16.3c6.5,0,12,1.8,16.5,5.5c5.8,4.7,8.7,11.7,8.7,21v49
		c0,0.7,0.1,1.3,0.2,1.8c0.1,1.3,0.5,2.5,1,3.4c1.3,2.3,4.1,3.5,8.2,3.7L423.9,220L423.9,220z"/>
	<path class="st0" d="M527.2,137.7c-7.3,1.3-12.8,3.4-16.4,6.4c-2.6,2.2-5.7,4.9-9.3,8.2c-4.4,4.1-7.7,7.4-9.9,10l36.5,50.4
		c1.3,1.9,2.9,2.8,4.7,2.8v4.5h-43.9v-4.5c0.8,0,1.6-0.1,2.3-0.2c1-0.1,1.9-0.2,2.7-0.5c2-0.6,2.9-1.6,2.9-2.9
		c0-0.9-0.5-2.2-1.5-3.9c-0.7-1.2-1.7-2.7-3-4.5l-17.9-25.2l-4.3,4.5v21.5c0,4.3,0.5,7,1.5,8.3c1.2,1.3,3.9,2.4,8.3,3v4.5H435v-4.5
		c3.4,0,5.8-1.3,7.3-3.9c1.1-2,1.7-4.4,1.7-7.3v-96.9c0-0.5,0-1.1-0.1-1.6c-0.2-1.3-0.5-2.5-1-3.6c-1.4-3.1-4-4.7-7.9-4.7V93h35
		v80.9l24-24c2.6-2.6,3.9-4.9,3.9-6.8c0-2.5-3.7-4.3-11.1-5.4v-4.3h40.3v4.3H527.2z"/>
	<path class="st0" d="M554.6,144.9c8-9.2,18.4-13.9,31-13.9c12.2,0,22.4,4.4,30.4,13.1c8,8.7,11.9,19.6,11.9,32.8
		c0,12.8-3.9,23.5-11.6,32.2c-8,9-18.3,13.5-30.7,13.5c-12.7,0-23-4.6-31-13.7c-7.6-8.7-11.5-19.4-11.5-32
		C543.2,164.3,547,153.7,554.6,144.9z M570.8,184.5c0.1,2.8,0.2,5.2,0.3,7.2c0.2,5.2,0.8,9.5,1.7,12.8c2,8.2,6.4,12.3,13.1,12.3
		c6,0,10-3.6,12.1-10.9c0.9-3.2,1.6-7.4,1.9-12.6c0.3-4.2,0.5-9.6,0.5-16.3c0-14.8-1-25.1-3-30.8c-2.1-6.1-6-9.2-11.7-9.2
		c-6.3,0-10.5,4-12.7,11.9c-0.9,3.4-1.5,7.6-1.8,12.8c-0.2,3.8-0.4,8.9-0.4,15.3L570.8,184.5L570.8,184.5z"/>
	<path class="st0" d="M650.2,144.9c8-9.2,18.4-13.9,31-13.9c12.2,0,22.4,4.4,30.4,13.1c8,8.7,11.9,19.6,11.9,32.8
		c0,12.8-3.9,23.5-11.6,32.2c-8,9-18.3,13.5-30.7,13.5c-12.7,0-23-4.6-31-13.7c-7.6-8.7-11.5-19.4-11.5-32
		C638.8,164.3,642.6,153.7,650.2,144.9z M666.4,184.5c0.1,2.8,0.2,5.2,0.3,7.2c0.2,5.2,0.8,9.5,1.7,12.8c2,8.2,6.4,12.3,13.1,12.3
		c6,0,10-3.6,12.1-10.9c0.9-3.2,1.6-7.4,1.9-12.6c0.3-4.2,0.5-9.6,0.5-16.3c0-14.8-1-25.1-3-30.8c-2.1-6.1-6-9.2-11.7-9.2
		c-6.3,0-10.5,4-12.7,11.9c-0.9,3.4-1.5,7.6-1.8,12.8c-0.2,3.8-0.4,8.9-0.4,15.3L666.4,184.5L666.4,184.5z"/>
	<path class="st0" d="M832.7,220h-44.1v-4.5c5.9-0.6,8.8-4.1,8.8-10.7v-47.6c-0.1-0.9-0.1-1.7-0.2-2.5c-0.2-2-0.6-3.7-1.2-5.1
		c-1.6-3.9-4.6-5.8-9-5.8c-3.3,0-6.9,1.6-10.6,4.8c-3.3,2.8-5,4.8-5,6.1v50.2c0,2.9,0.5,5.1,1.4,6.6c1.4,2.3,4,3.7,7.9,4.1v4.5
		h-45.3v-4.5c3.9-0.8,6.4-1.7,7.5-2.7c1.7-1.5,2.5-4.4,2.5-8.6v-55.2c0-6.4-3.3-10.1-10-11.1v-4.5h35.9V147h0.4l1.3-1.9
		c0.6-0.9,1.1-1.7,1.7-2.4c1.7-2,3.4-3.8,5.3-5.2c5.3-4.2,11.4-6.2,18.4-6.2c6.4,0,11.9,1.8,16.5,5.5c5.8,4.7,8.7,11.7,8.7,21v48.9
		c0,0.7,0,1.3,0.1,1.8c0.2,1.3,0.5,2.4,1,3.3c1.3,2.4,4,3.7,8.1,3.9v4.3H832.7z"/>
	<g>
		<path class="st0" d="M131.2,123.6c3.3-2.6,6.4-4.7,8.8-7c1.8-1.6,3.6-3.1,3.1-6c-1.5-1.4-2.1-1.7-4.9-1.7c-15.8,0.1-31,3-46.8,9
			c-5.8,2.2-11.5,4.5-16.9,9.3c-2.1,1.9-5,4.7-4.7,7.6c0.4,4,4.2,5.6,7.1,6.5c12.6,4.2,25.7,7,38.1,11.7c13.9,5.2,28.4,10.8,37,24
			c3.1,4.7,2.6,17.1-0.2,22.3c-6.1,11-14.5,18.8-25.9,24.6c-6.4,2.8-12.9,5.6-19.7,7.2c-15.5,3.7-31.1,5.3-47.3,5.7
			c-5.8,0.1-10.7,0.3-16-0.2c-9.6-0.8-18.3-3.7-26-9.4c-3.6-2.7-2.9-6-1.6-9.5c2-5.5,7.4-12.2,11-15.5c3.7-3.4,10.8-6.2,15.1-4.9
			c0.7,0.2,1.7,0.8,1.9,1.4c1.5,4.7,5.1,4.8,9.3,5.1c20.2,1.6,39.5-1.3,59.3-6.4c6.3-1.6,13-4.9,19.1-9.4c4.3-3.2,3.5-8.4-1.2-11
			c-16.6-8.8-34.9-11.7-52.7-16.6c-6.5-1.8-13.2-3.9-19.1-7.3c-6.9-4-8.4-8.9-9.7-15.7c-1.7-9.7,0.6-19.7,6.5-28
			c3-4.2,7.1-8.1,11.5-10.8c13.5-8.4,28.4-12.8,43.8-16.9c16.1-4.3,32.2-4.4,48.4-3.3c6.2,0.4,11.8,1.8,16.5,5.1
			c4.6,3.2,4.8,11.6,1.7,17.4c-4.5,8.4-12.5,11.6-20.3,15.5c-5.8,2.9-11.5,5.9-17.1,9C136,127.2,136.2,127.4,131.2,123.6z"/>
	</g>
</g>
</svg>
