<?xml version="1.0" encoding="utf-8"?>
<!-- Generator: Adobe Illustrator 25.2.3, SVG Export Plug-In . SVG Version: 6.00 Build 0)  -->
<svg version="1.1" id="Слой_1" xmlns="http://www.w3.org/2000/svg" xmlns:xlink="http://www.w3.org/1999/xlink" x="0px" y="0px"
	 viewBox="0 0 24 24" style="enable-background:new 0 0 24 24;" xml:space="preserve">
<style type="text/css">
	.st0{display:none;fill:none;}
	.st1{fill:#484848;}
	.st2{display:none;}
	.st3{display:inline;fill:#99DEC0;}
</style>
<path class="st0" d="M0,0h24v24H0V0z"/>
<path class="st1" d="M13.9,13h-0.5l-0.2-0.2c0.6-0.7,0.9-1.5,0.9-2.4c0-2.1-1.7-3.7-3.7-3.7s-3.7,1.7-3.7,3.7s1.7,3.7,3.7,3.7
	c0.9,0,1.8-0.3,2.4-0.9l0.2,0.2v0.5l2.9,2.9l0.9-0.9L13.9,13z M10.5,13c-1.4,0-2.6-1.1-2.6-2.6S9,7.9,10.5,7.9S13,9,13,10.5
	S11.9,13,10.5,13z"/>
<g class="st2">
	<path class="st3" d="M8.9,9.2v7.5H6.6V9.2c0-0.3,0.2-0.6,0.5-0.6h1.2C8.6,8.6,8.9,8.9,8.9,9.2z"/>
	<path class="st3" d="M16.4,7.4v9.4h-2.2V7.4c0-0.3,0.2-0.6,0.5-0.6h1.2C16.1,6.8,16.4,7.1,16.4,7.4z"/>
	<path class="st3" d="M12.6,11v5.7h-2.2V11c0-0.3,0.2-0.6,0.5-0.6h1.2C12.4,10.4,12.6,10.7,12.6,11z"/>
</g>
</svg>
