<?xml version="1.0" encoding="utf-8"?>
<!-- Generator: Adobe Illustrator 25.2.3, SVG Export Plug-In . SVG Version: 6.00 Build 0)  -->
<svg version="1.1" id="Слой_1" xmlns="http://www.w3.org/2000/svg" xmlns:xlink="http://www.w3.org/1999/xlink" x="0px" y="0px"
	 viewBox="0 0 24 24" style="enable-background:new 0 0 24 24;" xml:space="preserve">
<style type="text/css">
	.st0{fill:none;}
	.st1{fill:#99DEC0;}
</style>
<path class="st0" d="M0,0h24v24H0V0z"/>
<path class="st1" d="M13.9,13h-0.5l-0.2-0.2c0.6-0.7,0.9-1.5,0.9-2.4c0-2.1-1.7-3.7-3.7-3.7s-3.7,1.7-3.7,3.7s1.7,3.7,3.7,3.7
	c0.9,0,1.8-0.3,2.4-0.9l0.2,0.2v0.5l2.9,2.9l0.9-0.9L13.9,13z M10.5,13c-1.4,0-2.6-1.1-2.6-2.6S9,7.9,10.5,7.9S13,9,13,10.5
	S11.9,13,10.5,13z"/>
</svg>
