<?xml version="1.0" encoding="utf-8"?>
<!-- Generator: Adobe Illustrator 25.2.3, SVG Export Plug-In . SVG Version: 6.00 Build 0)  -->
<svg version="1.1" id="Слой_1" xmlns="http://www.w3.org/2000/svg" xmlns:xlink="http://www.w3.org/1999/xlink" x="0px" y="0px"
	 viewBox="0 0 566 359" style="enable-background:new 0 0 566 359;" xml:space="preserve">
<path d="M545,34.8c3.7-12.5,0-21.7-17.8-21.7h-58.9c-15,0-21.9,7.9-25.6,16.7c0,0-30,73.1-72.4,120.5c-13.7,13.7-20,18.1-27.5,18.1
	c-3.7,0-9.4-4.4-9.4-16.9V34.8c0-15-4.2-21.7-16.6-21.7h-92.6c-9.4,0-15,7-15,13.5c0,14.2,21.2,17.5,23.4,57.5v86.8
	c0,19-3.4,22.5-10.9,22.5c-20,0-68.6-73.4-97.4-157.4c-5.8-16.3-11.5-22.9-26.6-22.9H38.8C22,13.1,18.6,21,18.6,29.8
	c0,15.6,20,93.1,93.1,195.5c48.7,69.9,117.3,107.8,179.7,107.8c37.5,0,42.1-8.4,42.1-22.9c0-66.8-3.4-73.1,15.4-73.1
	c8.7,0,23.7,4.4,58.7,38.1c40,40,46.6,57.9,69,57.9h58.9c16.8,0,25.3-8.4,20.4-25c-11.2-34.9-86.9-106.7-90.3-111.5
	c-8.7-11.2-6.2-16.2,0-26.2C465.7,170.3,537.6,69.1,545,34.8L545,34.8z"/>
</svg>
