<?xml version="1.0" encoding="utf-8"?>
<!-- Generator: Adobe Illustrator 25.2.3, SVG Export Plug-In . SVG Version: 6.00 Build 0)  -->
<svg version="1.1" id="Слой_1" xmlns="http://www.w3.org/2000/svg" xmlns:xlink="http://www.w3.org/1999/xlink" x="0px" y="0px"
	 viewBox="0 0 283.5 283.5" style="enable-background:new 0 0 283.5 283.5;" xml:space="preserve">
<style type="text/css">
	.st0{display:none;fill:#FFFFFF;stroke:#000000;stroke-miterlimit:10;}
	.st1{display:none;}
	.st2{display:inline;}
	.st3{fill:#E30613;}
</style>
<rect x="28.3" y="28.3" class="st0" width="226.8" height="226.8"/>
<g class="st1">
	<rect x="28.4" y="28.3" class="st2" width="226.8" height="34"/>
	<rect x="28.4" y="221.1" class="st2" width="226.8" height="34"/>
	<rect x="28.4" y="124.7" class="st2" width="226.8" height="34"/>
</g>
<g class="st1">
	<path class="st2" d="M225.5,274.8L139.8,228l-87.1,44l18-95.9L2,107l96.8-12.5l44.6-86.8l41.8,88.2l96.3,15.6l-70.9,67L225.5,274.8
		z M140.1,209.8l64.3,35.1l-11.2-72.4l53.3-50.3l-72.3-11.7l-31.4-66.2l-33.5,65.2l-72.7,9.4l51.7,52l-13.5,72L140.1,209.8z"/>
</g>
<g class="st1">
	<path class="st2" d="M208.9,210.6c-15.6,1-31.1,1.8-46.7,2.9c-13.1,0.9-26.1,2-39.2,3c-2.8,0.2-5.6,0.6-8.4,0.7
		c-6.9,0.3-13.6-0.4-19.9-3.5c-7.8-3.9-11.9-11.6-11.1-20.2c0.5-5.9,2.5-11.3,5.2-16.5c0.4-0.7,0.4-1.3,0.2-2
		C76,131.4,63,87.6,50,43.9c-0.3-0.9-0.7-1.1-1.5-1.1c-7.8,0-15.5,0-23.3,0c-4.6,0-8.6-2.9-10-7.1c-1.5-4.2-0.2-8.9,3.4-11.8
		c1.9-1.5,4.1-2.3,6.5-2.3c10.9,0,21.7-0.1,32.6,0c5.1,0,8.8,3,10.3,8c2.7,9.1,5.4,18.2,8.1,27.3c0.3,1.1,0.8,1.5,2,1.5
		c59.5,0,119.1,0,178.6,0c1.5,0,3,0.1,4.4,0.6c4.9,1.5,8,6.5,7.1,11.6c-1.5,8.5-3.2,16.9-4.8,25.4c-4.3,22.4-8.6,44.7-12.9,67.1
		c-1.1,5.5-4.5,8.7-10,9.4c-14,1.7-28.1,3.4-42.1,5.1c-15,1.8-30,3.6-45.1,5.4c-13.8,1.7-27.6,3.4-41.5,5c-3.1,0.4-6.1,0.8-9.2,1.1
		c-0.6,0.1-0.9,0.2-1,0.8c-0.4,1.8-0.9,3.7-1.2,5.5c-0.2,1.6,0.6,2.7,2,3.4c2.2,1.1,4.6,1.6,7,1.6c3.4,0,6.8-0.2,10.1-0.4
		c15.4-1.2,30.8-2.5,46.2-3.6c17.5-1.3,35-2.3,52.5-2.6c6.7-0.1,13.5,0,20.2,0.1c4.9,0.1,8.5,4,8.3,8.7c-0.2,4.7-4.1,8.2-8.9,8.1
		c-4.8-0.1-9.7-0.2-14.5-0.2c-4.8,0-9.6,0.2-14.4,0.3C208.9,210.7,208.9,210.7,208.9,210.6z M82.9,79.7c0.1,0.4,0.2,0.7,0.3,1
		c3.2,10.6,6.4,21.3,9.5,31.9c0.3,0.9,0.6,1.1,1.5,1.1c13.3,0,26.6,0,39.9,0c0.4,0,0.8,0,1.1,0c0-11.5,0-22.7,0-34.1
		C117.7,79.7,100.4,79.7,82.9,79.7z M188.9,123.9c-0.4,0-0.8,0-1.2,0c-13.7,0-27.4,0-41.1,0c-1,0-1.3,0.2-1.3,1.2
		c0,12.1,0,24.2,0,36.3c0,0.3,0,0.7,0,1.2c14.6-1.8,29.1-3.5,43.6-5.3C188.9,146.1,188.9,135.1,188.9,123.9z M145.4,113.8
		c14.6,0,29,0,43.5,0c0-11.4,0-22.7,0-34c-14.5,0-29,0-43.5,0C145.4,91.1,145.4,102.4,145.4,113.8z M199,113.8
		c0.3,0,0.5,0.1,0.7,0.1c12.5,0,25.1,0,37.6,0c0.7,0,0.9-0.3,1.1-1c1.7-9.2,3.5-18.3,5.3-27.5c0.4-1.9,0.7-3.7,1.1-5.7
		c-15.3,0-30.5,0-45.8,0C199,91.1,199,102.4,199,113.8z M96,124c0.9,3.1,1.8,6.1,2.7,9.1c3.3,11,6.6,22,9.8,33.1
		c0.2,0.6,0.3,1,1.1,0.9c8.3-1,16.5-2,24.8-3c0.3,0,0.5-0.1,0.7-0.2c0-13.3,0-26.5,0-39.8C122.1,124,109.1,124,96,124z M199.1,156
		c0.2,0,0.3,0,0.5,0c10.1-1.2,20.3-2.5,30.4-3.7c0.7-0.1,0.9-0.4,1.1-1c1.4-7.3,2.8-14.5,4.2-21.8c0.4-1.8,0.7-3.7,1.1-5.6
		c-12.5,0-24.8,0-37.2,0C199.1,134.7,199.1,145.3,199.1,156z"/>
	<path class="st2" d="M100.2,225.6c11.8,0.1,21.2,9.8,21.1,21.6c-0.2,11.7-9.8,21-21.7,20.9c-11.6-0.2-21-9.9-20.8-21.5
		C79,234.9,88.6,225.5,100.2,225.6z"/>
	<path class="st2" d="M220.8,268.1c-11.7,0-21.2-9.5-21.3-21.2c0-11.7,9.5-21.3,21.3-21.3c11.7,0,21.2,9.5,21.2,21.2
		C242,258.5,232.5,268,220.8,268.1z"/>
</g>
<path class="st1" d="M116.1,247.4c0-2.4,0-4.5,0-6.5c0-8,3.8-12.3,12-13.6c0-0.7,0-1.5,0-2.3c0-53.7,0-107.4,0-161.1
	c0-3.6-1.2-4.6-4.7-3.6c-17.7,5-35.4,10.1-53.1,15c-1.7,0.5-2.3,1.2-2.8,2.9c-0.7,2-1.8,3.9-3.1,5.6c-0.8,1-0.9,1.6-0.5,2.8
	c11.6,28.3,23.1,56.7,34.9,84.9c2,4.9,1.1,9.5,0,14.2c-4.7,19.9-22.2,33.7-42.6,33.9c-20,0.2-37.7-13.4-42.8-33
	c-0.6-2.3-1.3-4.7-1.3-7.1c0-2.6,0.2-5.4,1.1-7.7c11.3-28.1,22.7-56.1,34.1-84.2c0.7-1.7,0.9-2.9-0.6-4.6c-4.3-4.7-3.6-12,1.2-16.4
	c4.6-4.2,11.8-4.1,16.4,0.2c0.7,0.7,2,1.3,2.8,1.1c18.9-5.3,37.8-10.7,56.8-16.1c0.4-5.9,2.6-10.8,7.8-14c6.9-4.3,16-2.7,20.9,3.7
	c1.1,1.5,2.1,1.7,3.7,1.2c17.9-5.1,35.8-10.2,53.8-15.2c1.4-0.4,2.1-1,2.5-2.5c1.1-5.2,5.3-8.8,10.4-9.4c4.9-0.6,9.8,2.1,12,6.5
	c2.4,4.7,1.6,9.8-2.2,13.8c-0.9,1-1,1.6-0.5,2.8c11.6,28.2,23,56.4,34.7,84.5c2.5,5.9,1.1,11.5-0.5,17
	c-5.7,19.5-23.9,32.2-44.5,31.4c-19.4-0.8-36.6-15.4-40.7-34.7c-1.2-5.4-1-10.4,1.2-15.8c11.4-27.3,22.4-54.8,33.5-82.3
	c0.3-0.8,0.3-2,0-2.8c-0.5-1.2-1.6-1.3-2.9-1c-18.4,5.3-36.8,10.5-55.2,15.7c-0.5,0.1-0.9,0.3-0.7,0.9c-1.4,3.2-2.8,6.4-4.2,9.6
	c-0.3,0.7-0.6,1.4-0.6,2.1c0,54.5,0,108.9,0,163.4c0,0.2,0.1,0.5,0.1,0.6c1.9,0.6,3.8,1,5.4,1.8c4.1,2.1,6.2,5.7,6.4,10.3
	c0.1,2.7,0,5.3,0,8.3c2.6,0,5,0,7.3,0c4.2,0,8.3-0.1,12.5,0c7,0.1,12.1,5.2,12.2,12.2c0,2.3,0,4.5,0,6.8c0,3.5-1.5,5-5,5
	c-10.7,0-21.4,0-32.1,0c-23.1,0-46.2,0-69.4,0c-4.6,0-5.8-1.2-5.8-5.8c0-2,0-4,0-6c0.1-7,5.2-12.2,12.2-12.2
	C102.7,247.4,109.2,247.4,116.1,247.4z M90,171.3c-11.4-27.8-22.7-55.4-34.2-83.5c-11.4,28.2-22.6,55.7-33.9,83.6
	c13.9,0,27.4,0,40.8,0c3.1,0,6.2-0.1,9.3,0.1c2.4,0.1,4,1.8,4,3.9c0,2.2-1.6,3.8-4,4c-0.4,0-0.8,0-1.3,0c-8.7,0-17.4,0-26,0
	c-8.1,0-16.2,0-24.3,0c0.6,14.5,14.5,32.1,35.6,32c22.6-0.1,35.1-19.1,35.3-31.9c-3.1-0.2-7,0.6-7.3-4.2
	C83.9,172.8,85.8,171.6,90,171.3z M258.3,123.2c-11.4-27.8-22.7-55.4-34.2-83.4c-11.4,28.1-22.6,55.7-33.9,83.6c5.7,0,11,0,16.3,0
	c11,0,22,0,33.1,0c2.9,0,4.8,1.6,4.7,4c0,2.4-1.8,3.9-4.8,4c-0.2,0-0.3,0-0.5,0c-14.7,0-29.4,0-44.1,0c-2.1,0-4.1,0-6.2,0
	c1.1,16.4,16.6,33,37.5,32c17.4-0.9,34.8-17.4,33.4-31.7c-5.7-0.6-7.2-1.5-7.3-4.1C252.3,124.8,254,123.6,258.3,123.2z M136.3,67.1
	c0,53.4,0,106.8,0,160.2c2.7,0,5.1,0,7.7,0c0-53.5,0-106.9,0-160.2C141.4,67.1,138.9,67.1,136.3,67.1z M124.1,247.1
	c0.5,0.2,0.6,0.3,0.8,0.3c5.8,0,11.5,0,17.3,0c4.1,0,6,1.3,6,4.1c0,2.7-1.9,4-6.1,4c-14.9,0-29.9,0-44.8,0c-3.7,0-5.1,1.5-5.2,5.2
	c0,0.9,0,1.8,0,2.6c32.2,0,64.1,0,96,0c0.4-6.8-0.6-7.8-7.1-7.8c-6.7,0-13.4,0-20,0c-3.3,0-4.8-1.5-4.8-4.7c0-3.6,0.1-7.2,0-10.8
	c-0.1-2.8-1.5-4.5-4.3-4.5c-7.8-0.1-15.7-0.1-23.5,0c-2.6,0-4.1,1.7-4.2,4.3C124,242.2,124.1,244.7,124.1,247.1z M140.1,59.3
	c4.3,0,8-3.6,8.1-7.9c0.1-4.3-3.7-8.1-8.1-8.1c-4.3,0-7.9,3.7-7.9,8C132.1,55.6,135.8,59.2,140.1,59.3z M228.2,27.2c0-2-2-4-4.1-3.9
	c-2.1,0-3.9,2-3.9,4.1c0.1,2,1.9,3.8,3.9,3.8C226.3,31.2,228.3,29.3,228.2,27.2z M60,75.3c0-2.1-1.9-4-4-4c-2,0-3.9,1.8-3.9,3.8
	c-0.1,2,1.8,4.1,3.9,4.1C58,79.3,60,77.4,60,75.3z"/>
<path class="st1" d="M201.8,173.5c6.7,6.7,13.3,13.3,19.9,20c13.3,13.4,26.6,26.8,39.8,40.2c2.8,2.8,5.7,5.6,7.8,8.9
	c8.1,12.8,0.2,30.2-14.8,32.7c-7.1,1.2-13.5-0.7-18.7-5.8c-6.9-6.8-13.6-13.7-20.4-20.5c-9-9.1-18.1-18.2-27.1-27.3
	c-5.1-5.1-10.1-10.2-15.2-15.3c-0.6-0.6-1.2-1.4-1.8-2.1c-24.6,15.6-51.3,20.5-79.7,13.9c-25.3-5.9-45.6-19.9-60.6-41.1
	c-29-41-24.7-98.5,12.6-134.8c35.9-34.8,91-38.6,130.9-10c22.5,16.2,36.4,38,41.8,65.3C220.5,118.3,218.5,148.2,201.8,173.5z
	 M44.7,117.2c0,39.2,31.7,71,70.6,71c39.1,0,70.4-32.3,70.4-71c0-38.4-31-71-70.4-71C76.3,46.1,44.7,78,44.7,117.2z"/>
<g class="st1">
	<path class="st2" d="M141.5,48.9c22,0.3,44,0.5,66,0.8c12.3,0.2,24.6,0.3,37,0.5c8.5,0.1,15.4,5.6,17.3,13.8c0.3,1.2,0.2,2-1,2.8
		c-30.2,20.7-60.4,41.4-90.6,62.1c-3.8,2.6-7.8,5.1-11.7,7.6c-6.2,4-13.2,5-20.4,4.3c-6.3-0.6-12-2.7-17.1-6.4
		c-16.5-11.8-33.1-23.4-49.6-35.2C55.1,87.4,38.9,75.4,22.6,63.6c-1-0.7-1.2-1.4-0.9-2.5c1.9-8,9.1-13.7,17.4-13.6
		c18.9,0.2,37.8,0.5,56.7,0.8C111,48.5,126.3,48.7,141.5,48.9C141.5,48.9,141.5,48.9,141.5,48.9z"/>
	<path class="st2" d="M139.5,215.5c-19.5-0.2-39-0.5-58.5-0.7c-14.7-0.2-29.5-0.4-44.2-0.6c-8.3-0.1-15.3-6.1-16.9-14.1
		c-0.2-1,0-1.6,0.9-2.2c29.2-20,58.3-40,87.4-60.1c1-0.7,1.6-0.7,2.6,0c4.3,3,8.5,6.3,13.4,8.3c12,4.7,24,5.2,35.8-0.6
		c3.9-1.9,7.5-4.5,11.1-6.9c0.8-0.5,1.3-0.5,2,0.1c28.8,20.9,57.5,41.7,86.3,62.5c0.6,0.5,0.9,0.8,0.7,1.7
		c-1.6,8.3-9.1,14.3-17.6,14.1c-13.1-0.2-26.3-0.3-39.4-0.5c-20.5-0.3-41-0.5-61.5-0.8C141,215.6,140.3,215.6,139.5,215.5
		C139.5,215.5,139.5,215.5,139.5,215.5z"/>
	<path class="st2" d="M180,132.8c27.3-18.8,54.6-37.6,82.1-56.5c-0.5,38.3-1,76.5-1.5,114.9C233.7,171.6,206.9,152.2,180,132.8z"/>
	<path class="st2" d="M19.7,188.1c0.5-38.4,1-76.6,1.5-114.9c27,19.5,53.8,39,80.6,58.4C74.5,150.4,47.2,169.2,19.7,188.1z"/>
</g>
<path class="st1" d="M196.9,141.4c-1.1,0-2,0-2.9,0c-11.2,0-22.3,0-33.5,0c-2.2,0-2.2,0-2.2,2.2c0,40.2,0,80.4,0,120.6
	c0,3.9,0,7.7,0,11.6c0,1.1-0.4,1.5-1.5,1.5c-18.2,0-36.4,0-54.6,0c-1.5,0-1.3-0.8-1.3-1.8c0-16.3,0-32.7,0-49c0-27.6,0-55.2,0-82.8
	c0-2.4,0-2.4-2.4-2.4c-8.3,0-16.6,0-24.9,0c-2,0-2,0-2-2c0-14.1,0-28.1,0-42.2c0-1.6,0.5-1.9,2-1.9c8.4,0.1,16.9,0,25.3,0
	c2,0,2,0,2-2c0-10.2-0.2-20.3,0.1-30.5c0.3-11,1.8-21.9,7.3-31.7c4.6-8.2,11.2-14.4,19.9-18.4c5.4-2.5,11.1-4.3,17-5.1
	c6.8-0.8,13.6-1.2,20.4-1.4c11.4-0.2,22.7-0.1,34.1-0.1c2.2,0,2.2,0,2.2,2.1c0,14,0,28,0,42.1c0,2,0,2-2,2c-7,0-14-0.1-21,0
	c-4.4,0.1-8.8,0.1-13.1,1.7c-4,1.5-6.1,4.3-6.8,8.3c-0.4,2.2-0.6,4.5-0.6,6.7c-0.1,8.1,0,16.2-0.1,24.3c0,1.5,0.5,1.9,1.9,1.9
	c13.3,0,26.5,0,39.8,0c2.2,0,2.1,0,1.9,2.2c-1.2,10-2.3,20-3.4,30C198,132.1,197.5,136.6,196.9,141.4z"/>
<g class="st1">
	<path class="st2" d="M219.4,265.5c-50.4,0-100.8,0-151.2,0c-0.3-0.1-0.6-0.1-0.8-0.2c-4.4-0.3-8.7-1.2-12.8-2.8
		c-17.8-6.9-28.7-19.7-32.5-38.5c-0.4-1.7-0.5-3.5-0.8-5.3c0-50.5,0-101.1,0-151.6c0.1-0.3,0.1-0.6,0.2-0.8c0.5-2.7,0.7-5.5,1.4-8.2
		C28.3,36.3,48.5,20.5,71,20.5c48.6,0,97.1,0,145.7,0c3.3,0,6.6,0.4,9.8,1c23.5,5,39.9,25.3,39.9,49.3c0,48.1,0,96.2,0,144.3
		c0,3.7-0.4,7.3-1.2,10.9c-4.1,19.3-19.9,34.8-39.3,38.5C223.7,265,221.6,265.2,219.4,265.5z M143.8,39.6
		C143.8,39.5,143.8,39.5,143.8,39.6c-23.8,0-47.7,0-71.5,0c-3.3,0-6.6,0.3-9.8,1.3c-13.4,4-22.1,16-22.1,30.2c0,48,0,96,0,144
		c0,1.6,0.1,3.1,0.3,4.7c2,15.3,15.2,26.8,30.6,26.8c48.3,0,96.7,0,145,0c2.2,0,4.4-0.2,6.5-0.7c14.2-3.1,24.5-15.8,24.4-30.8
		c-0.1-48,0-95.9,0-143.9c0-1.6-0.1-3.3-0.3-4.9c-2.4-15.5-15-26.5-30.7-26.6C192.1,39.5,168,39.6,143.8,39.6z"/>
	<path class="st2" d="M73.1,143c0-39.1,31.6-70.7,70.7-70.7c39.1,0,70.7,31.7,70.7,70.7c0,39-31.6,70.6-70.7,70.7
		C104.8,213.7,73.1,182.1,73.1,143z M143.8,91.3c-28.5,0-51.6,23.1-51.7,51.6c0,28.4,23.1,51.6,51.6,51.7
		c28.5,0,51.7-23.2,51.7-51.7C195.4,114.5,172.3,91.3,143.8,91.3z"/>
	<path class="st2" d="M227.3,73.7c0,7.7-6.3,13.9-13.9,13.9c-7.7,0-13.9-6.3-13.9-14c0-7.6,6.3-13.8,14-13.8
		C221.1,59.8,227.3,66,227.3,73.7z"/>
</g>
<path id="telega" class="st1" d="M212.5,31.8L29.1,119.7c0,0-25.9,10.4-5.6,22c20,11.4,51.5,22.6,51.5,22.6s11.4,46.4,17.6,71.8
	c6.8,27.6,7.1,24.8,27.3,4.5c20.1-20.3,21-25.7,34.8-12.7c13.7,13,17.4,16.5,37.2,34.8c16,14.8,19.6,25.5,26.7-23.7
	c5.4-37.1,29.2-177.7,33.5-202.1C256.5,12.5,260.4,5,212.5,31.8z M194.1,82.2c-10.3,12.3-69.3,80.4-78.2,90.3
	c-8.9,10-8.7,27.3-10.2,40.8c-1.4,13.5-5.2,8.4-7.3-1.1c-2.1-9.5-7.7-33.3-10-43.8c-2.3-10.5,0.4-13.9,8-20.3
	c7.7-6.4,77.6-59.9,97.7-75C206.8,63.6,204.5,69.9,194.1,82.2z"/>
<path class="st1" d="M268.1,105.7c0,23.5,0,46.9,0,70.4c-0.1,0.7-0.1,1.5-0.2,2.2c-0.2,12-0.5,24.1-2.2,36
	c-0.9,6.4-2.2,12.7-4.4,18.9c-3.1,8.6-8,15.9-15.1,21.6c-5.9,4.7-12.6,7.7-19.9,9.7c-8.2,2.3-16.6,3.3-25,3.9
	c-7.8,0.5-15.7,0.6-23.5,1c-1.1,0-2.1,0.1-3.2,0.2c-23.5,0-46.9,0-70.4,0c-0.3,0-0.6-0.1-0.9-0.1c-2.9-0.1-5.8-0.1-8.8-0.2
	c-10.4-0.3-20.8-0.8-31.1-2.4c-5.5-0.9-11-2.1-16.2-4c-9-3.2-16.6-8.4-22.5-16c-4.3-5.7-7.1-12.1-9-18.9c-2.3-8.2-3.4-16.6-3.9-25
	c-0.5-7.8-0.6-15.7-1-23.5c0-1.1-0.1-2.1-0.2-3.2c0-23.5,0-46.9,0-70.4c0-0.3,0.1-0.6,0.1-0.9C10.9,102,11,99,11,96.1
	c0.2-9.6,0.7-19.1,2-28.6c0.9-6.4,2.2-12.6,4.3-18.7C21,38.7,27,30.4,36,24.5c7.3-4.9,15.6-7.3,24.1-8.9c7.4-1.4,14.9-2.1,22.4-2.4
	c8-0.4,16.1-0.7,24.1-0.7c17.2-0.1,34.4-0.1,51.6-0.1c8.6,0,17.3,0.1,25.9,0.3c10.4,0.2,20.8,0.8,31.1,2.4c5.5,0.9,11,2.1,16.2,4
	c9,3.2,16.6,8.4,22.5,16c4.3,5.7,7.1,12.1,9,18.9c2.3,8.2,3.3,16.6,3.9,25c0.5,7.8,0.6,15.7,1,23.5
	C267.9,103.6,268,104.7,268.1,105.7z M181.9,143.8c24.6-15.1,35.8-40.1,37.3-53.3c-0.1,0-0.2,0-0.4,0c-8.8,0-17.6,0-26.4,0
	c-0.6,0-0.8,0.3-0.9,0.8c-3.5,11.5-9.6,21.5-18.3,29.9c-4.4,4.3-9.4,7.8-15.3,10c-2.2,0.8-4.5,1.4-7,1.7c0-14.1,0-28.2,0-42.3
	c-9.3,0-18.4,0-27.7,0c0,24.7,0,49.4,0,74.1c-0.2,0-0.4-0.1-0.5-0.1c-7.8-2.2-14.2-6.7-19.6-12.6c-6.1-6.6-10.2-14.4-13.2-22.8
	c-4.1-11.5-5.8-23.4-6.3-35.5c0-1,0-2.1,0-3.1c-10,0-19.7,0-29.5,0c0,0.5,0,0.9,0,1.4c0.3,9.1,1.1,18.2,2.8,27.1
	c2.3,12,5.9,23.5,11.7,34.3c4.8,8.9,10.8,16.8,18.4,23.5c7.9,7,17,12.1,26.9,15.5c10.5,3.6,21.4,5.1,32.5,5.2c1.4,0,2.9,0,4.4,0
	c0-12.8,0-25.5,0-38.3c1.2,0.2,2.3,0.3,3.5,0.5c9.8,1.7,18.3,6.1,25.5,12.9c7.1,6.7,12,14.8,15.1,24.1c0.2,0.7,0.5,0.8,1.2,0.8
	c9.5,0,19.1,0,28.6,0c0.3,0,0.6,0,1-0.1C218.7,173.4,204.2,155.5,181.9,143.8z"/>
<g>
	<path class="st3" d="M146,62.8c15.2,0.3,30.4,0.4,45.6,0.9c11.6,0.4,23.2,1.1,34.7,1.9c6.7,0.5,13.3,1.7,19.3,4.9
		c2.3,1.2,4.3,2.9,6.2,4.7c2.6,2.3,4.4,5.3,5.5,8.6c0.7,1.9,1.4,3.9,2,5.8c2.1,7.1,2.5,14.4,3,21.6c0.6,8.2,1.2,16.4,1.4,24.7
		c0.2,6.5-0.3,13-0.5,19.5c-0.1,2.2-0.2,4.4-0.4,6.6c-0.8,7.2-1.5,14.3-2.5,21.5c-0.4,2.9-1.2,5.7-2.2,8.4
		c-1.6,4.3-3.8,8.3-7.3,11.4c-3.6,3.2-8,5.1-12.6,6.4c-7.1,1.9-14.4,2.3-21.7,2.8c-20.6,1.3-41.1,1.4-61.7,1.8
		c-21.6,0.4-43.2-0.2-64.8-0.8c-11-0.3-22-1.1-33-1.8c-6.2-0.4-12.3-1.7-17.9-4.4c-3.4-1.6-6.4-3.9-8.8-7c-2.5-3.2-4-6.9-5.3-10.8
		c-1.4-4.3-1.7-8.8-2.5-13.2c-1.9-11.5-1.7-23.1-2.4-34.6c-0.4-7.1,0.4-14.3,0.7-21.4c0.2-5.5,0.6-11.1,1.2-16.6
		c0.5-4.7,1.3-9.5,2.4-14.1c0.9-3.9,2.4-7.7,4.7-11.1c3.1-4.6,7.5-7.8,12.7-9.7c7.7-2.8,15.7-3.4,23.8-3.9c23.5-1.6,47.1-1.7,70.7-2
		c3.2,0,6.5,0,9.7,0C146,62.9,146,62.8,146,62.8z M117.7,171c21.2-10.9,42.2-21.6,63.4-32.5c-21.2-10.9-42.2-21.7-63.4-32.5
		C117.7,127.7,117.7,149.2,117.7,171z"/>
</g>
<image style="display:none;overflow:visible;" width="520" height="90" xlink:href="../../../../иконки/src/Без имени-1.jpg"  transform="matrix(1.2859 0 0 1.2859 43.4851 79.9109)">
</image>
<g class="st1">
	<rect x="18.3" y="23.2" class="st2" width="44.4" height="238.5"/>
	<rect x="85.3" y="123" class="st2" width="44.4" height="138.7"/>
	<rect x="153.5" y="53.7" class="st2" width="44.4" height="208"/>
	<rect x="219.2" y="175" class="st2" width="44.4" height="86.7"/>
</g>
<g class="st1">
	<path class="st2" d="M20.3,20.5v243.3h62.4V20.5H20.3z M65.7,246.7H37.3V37.5h28.3V246.7z"/>
	<path class="st2" d="M109.3,91.2v172.5h62.4V91.2H109.3z M154.7,246.7h-28.3V108.2h28.3V246.7z"/>
	<path class="st2" d="M199.8,56.6v207.8h62.4V56.6H199.8z M245.2,247.4h-28.3V73.6h28.3V247.4z"/>
</g>
<g class="st1">
	<rect x="20.3" y="20.5" class="st2" width="62.4" height="243.3"/>
	<rect x="109.3" y="91.2" class="st2" width="62.4" height="172.5"/>
	<rect x="199.8" y="56.6" class="st2" width="62.4" height="207.8"/>
</g>
<g class="st1">
	<path class="st2" d="M233.7,0c2.2,0.7,4.3,1.5,6,3.2c2.3,2.3,3.5,5,3.5,8.3c0,46.3,0,92.6,0,138.8c0,6.2-5.1,11.4-11.3,11.4
		c-6.3,0-11.5-4.9-11.5-11.2c-0.1-10.1,0-20.2,0-30.2c0-31.8,0-63.5,0-95.3c0-0.6,0-1.2,0-2c-63.3,0-126.6,0-189.9,0
		c0,79.2,0,158.3,0,237.7c0.7,0,1.3,0,1.9,0c28.5,0,56.9,0,85.4,0c4.9,0,8.6,2.4,10.5,7c1.9,4.5,1,8.7-2.2,12.3
		c-1.7,1.9-4,2.8-6.5,3.5c-34.1,0-68.2,0-102.3,0c-1.2-0.4-2.5-0.8-3.6-1.4c-4.4-2.4-6.2-6.3-6.2-11.2c0-86.1,0-172.2,0-258.2
		c0-0.3,0-0.7,0-1c0.1-2.9,1-5.6,3-7.8c1.8-2.1,4.2-3.1,6.8-3.8C89.4,0,161.6,0,233.7,0z"/>
	<path class="st2" d="M200.5,248.6c4.8-5.4,9.6-10.6,14.3-15.9c13.4-14.9,26.8-29.9,40.3-44.8c2.8-3.1,5.5-6.2,8.3-9.2
		c3.1-3.3,7-4.2,11.3-3c4.2,1.2,7,4,8,8.3c0.9,3.7,0.1,7.1-2.4,10c-4.6,5.3-9.3,10.5-14,15.8c-15.8,17.6-31.7,35.3-47.5,52.9
		c-2.9,3.2-5.8,6.3-8.6,9.6c-4.4,5.3-12.3,5.9-17.7,0.6c-11.9-11.7-24-23.2-36-34.8c-1.4-1.3-2.8-2.5-4-4c-4-4.7-3.6-11.5,0.8-15.7
		c4.4-4.2,11.1-4.3,15.7-0.1c2.9,2.6,5.6,5.4,8.4,8.1c7.4,7.2,14.8,14.3,22.3,21.5C200,248.1,200.2,248.3,200.5,248.6z"/>
	<path class="st2" d="M127.2,89.4c-16.9,0-33.9,0-50.8,0C70.8,89.4,66.3,86,65,81c-1.9-7.1,3.3-14.1,10.7-14.4c0.4,0,0.8,0,1.2,0
		c33.7,0,67.3,0,101,0c5.8,0,10.2,3.1,11.7,8.2c2.2,7.2-3.1,14.6-10.6,14.6C161.7,89.5,144.5,89.4,127.2,89.4
		C127.2,89.4,127.2,89.4,127.2,89.4z"/>
	<path class="st2" d="M127.2,152.2c-16.9,0-33.9,0-50.8,0c-5.6,0-10.1-3.4-11.4-8.4c-1.9-7.1,3.3-14.1,10.7-14.5c0.3,0,0.7,0,1,0
		c33.8,0,67.5,0,101.3,0c5.7,0,10.1,3.1,11.6,8.3c2.1,7.1-3.2,14.5-10.6,14.5C161.7,152.2,144.5,152.2,127.2,152.2
		C127.2,152.2,127.2,152.2,127.2,152.2z"/>
	<path class="st2" d="M91.2,213.1c-5,0-10,0-15,0c-5.8-0.1-10.6-4.2-11.5-9.6c-0.9-5.6,2.4-10.9,7.8-12.6c1.3-0.4,2.6-0.6,4-0.6
		c9.8,0,19.6,0.1,29.5-0.1c6.6-0.1,11.7,5,11.9,11.2c0.1,6.4-5,11.5-11.6,11.7c-0.1,0-0.2,0-0.3,0C101,213.1,96.1,213.1,91.2,213.1z
		"/>
</g>
<g class="st1">
	<path class="st2" d="M51.4,231.2c-6.1-6.4-11.5-13.3-16.2-20.9c3.4-4.6,6.8-9.1,10.2-13.6c3.8-5,7.5-10.1,11.4-15.1
		c0.5-0.6,0.5-1.1,0.2-1.8c-0.7-1.6-1.3-3.2-1.9-4.9c-0.3-0.7-0.6-1.1-1.5-1.2c-11.4-2-22.8-4-34.2-5.9c-0.8-0.1-1.3-0.4-1.5-1.4
		c-1.4-8-2.2-16.1-2.2-24.3c0-0.9,0.4-1.1,1.1-1.4c7.7-2.8,15.3-5.7,23-8.5c3.2-1.2,6.3-2.4,9.6-3.6c0.9-0.3,1.2-0.9,1.4-1.7
		c0.3-1.6,0.5-3.2,0.9-4.7c0.3-1-0.1-1.5-0.8-2.2c-6.9-6.3-13.7-12.6-20.5-18.8c-1.9-1.8-3.8-3.5-5.7-5.3c3.1-8,7-15.5,11.6-22.6
		c0.4-0.6,0.7-0.8,1.5-0.6c7.6,1.7,15.1,3.3,22.7,5c3.9,0.8,7.7,1.7,11.6,2.5c0.5,0.1,1.2-0.2,1.5-0.5c1.3-1.2,2.4-2.5,3.7-3.8
		c0.6-0.6,0.8-1.1,0.5-2c-2.9-11.1-5.8-22.2-8.8-33.3c-0.3-1.1,0-1.7,0.9-2.3c6.9-4.7,14-8.8,21.9-12.3c2.2,2.3,4.6,4.7,6.9,7.1
		c6.1,6.2,12.3,12.4,18.5,18.5c0.3,0.3,1,0.4,1.4,0.3c1.6-0.3,3.2-0.8,4.8-1.1c1.2-0.2,1.7-0.8,2.1-1.9c2.6-8.1,5.3-16.3,7.9-24.4
		c0.9-2.7,1.8-5.4,2.6-8.1c0.3-0.9,0.7-1.2,1.7-1.3c7.8-0.2,15.6,0.1,23.4,1.2c1.3,0.2,1.9,0.6,2.2,2c2.3,11.1,4.8,22.2,7.1,33.3
		c0.2,0.9,0.5,1.4,1.4,1.7c1.6,0.5,3.1,1,4.7,1.7c0.9,0.4,1.4,0.2,2.1-0.4c8.9-7.3,17.8-14.6,26.7-21.8c0.6-0.5,1.1-0.8,2-0.3
		c6.9,4.1,13.5,8.8,19.6,14.1c0.7,0.6,0.9,1.1,0.5,2c-4.1,10.8-8.1,21.6-12.1,32.4c-0.3,0.9-0.2,1.4,0.4,2.1
		c1.1,1.3,2.1,2.5,3.1,3.9c0.5,0.8,1.1,0.9,1.9,0.8c7.1-0.8,14.1-1.6,21.2-2.4c4.3-0.5,8.6-1,12.8-1.5c1.2-0.2,1.8,0.2,2.3,1.4
		c3.5,7,6.3,14.2,8.6,21.6c0.3,1.1,0.2,1.7-0.8,2.5c-9.1,6.7-18.1,13.5-27.2,20.3c-0.9,0.7-1.2,1.4-1.1,2.5c0.2,1.3,0.4,2.5,0.4,3.8
		c0,1.6,0.7,2.4,2.1,3c7.7,3.7,15.4,7.6,23.2,11.4c2.4,1.2,4.7,2.4,7.1,3.5c0.7,0.3,1,0.7,0.9,1.5c-0.9,5.5-1.8,11.1-2.8,16.6
		c-0.5,2.5-1.3,4.9-2,7.4c-0.2,0.7-0.4,1-1.2,1c-9.9,0.6-19.7,1.3-29.6,2c-1.8,0.1-3.7,0.3-5.5,0.5c-0.5,0.1-1,0.5-1.3,1
		c-0.8,1.4-1.5,3-2.3,4.4c-0.5,0.9-0.4,1.5,0.1,2.3c6,9.9,11.9,19.9,17.9,29.8c0.4,0.7,0.3,1-0.1,1.6c-5.1,6.4-10.7,12.2-16.8,17.5
		c-0.7,0.6-1.3,0.6-2.1,0.2c-10.1-5.6-20.3-11.1-30.5-16.7c-0.7-0.4-1.1-0.3-1.8,0.1c-1.4,0.9-2.9,1.8-4.4,2.5
		c-0.8,0.4-1.1,0.8-1.1,1.7c-0.2,6.3-0.4,12.7-0.6,19c-0.2,5.3-0.3,10.5-0.5,15.8c0,0.8-0.3,1.2-1.1,1.5c-7.4,2.5-15.1,4.2-22.8,5.6
		c-1.3,0.2-2.1-0.1-2.8-1.4c-5.4-10-10.8-19.9-16.2-29.9c-0.4-0.8-0.9-1.1-1.7-1.1c-1.1,0-2.2,0.1-3.3-0.1c-2.2-0.5-3.4,0.3-4.7,2.2
		c-6.1,9.1-12.4,18.1-18.6,27.2c-0.4,0.7-0.8,0.9-1.7,0.7c-7.9-2-15.6-4.7-23-8c-0.7-0.3-1-0.7-0.9-1.5c0.4-4.5,0.7-9,1-13.5
		c0.5-7.2,1-14.5,1.5-21.7c0-0.4-0.3-1-0.6-1.2c-1.5-1.2-3-2.3-4.6-3.3c-0.5-0.3-1.4-0.2-1.9,0c-9,3.8-18,7.6-27.1,11.4
		C55.3,229.6,53.4,230.4,51.4,231.2z M142.7,182.6c23.4-0.2,41.5-18.6,40.9-42.3c-0.5-21.9-18.2-39.7-41.1-39.6
		c-22.9,0.1-41.7,19-40.7,42.9C102.8,164.9,120.2,182.6,142.7,182.6z"/>
</g>
<g class="st1">
	<rect x="40.2" y="37.6" class="st2" width="52.5" height="53.9"/>
	<rect x="122.4" y="38.5" class="st2" width="125.2" height="53.9"/>
	<rect x="40.2" y="118.3" class="st2" width="52.5" height="53.9"/>
	<rect x="122.4" y="119.2" class="st2" width="125.2" height="53.9"/>
	<rect x="38.9" y="200.8" class="st2" width="52.5" height="53.9"/>
	<rect x="121.4" y="201.7" class="st2" width="125.2" height="53.9"/>
</g>
<g class="st1">
	<g class="st2">
		<rect x="40" y="37.6" width="52.5" height="27.4"/>
		<rect x="122.2" y="38.1" width="125.2" height="27.4"/>
	</g>
	<g class="st2">
		<rect x="40" y="84.7" width="52.5" height="27.4"/>
		<rect x="122.2" y="85.2" width="125.2" height="27.4"/>
	</g>
	<g class="st2">
		<rect x="40" y="133.4" width="52.5" height="27.4"/>
		<rect x="122.2" y="133.9" width="125.2" height="27.4"/>
	</g>
	<g class="st2">
		<rect x="40" y="181.5" width="52.5" height="27.4"/>
		<rect x="122.2" y="182" width="125.2" height="27.4"/>
	</g>
	<g class="st2">
		<rect x="40" y="227.8" width="52.5" height="27.4"/>
		<rect x="122.2" y="228.2" width="125.2" height="27.4"/>
	</g>
</g>
<image style="display:none;overflow:visible;" width="139" height="140" xlink:href="../../../../иконки/src/каталог-3-точки.jpg"  transform="matrix(1.4539 0 0 1.4539 40.3069 37.2772)">
</image>
<g class="st1">
	<circle class="st2" cx="141.7" cy="47.7" r="39.2"/>
	<circle class="st2" cx="141.7" cy="141.7" r="39.2"/>
	<circle class="st2" cx="141.7" cy="235.8" r="39.2"/>
</g>
</svg>
