<svg xmlns="http://www.w3.org/2000/svg" width="128" height="128" viewBox="0 0 128 128">
  <defs>
    <style>
      .cls-1 {
        fill: #00d1b2;
      }

      .cls-2 {
        fill: #fff;
        fill-rule: evenodd;
      }
    </style>
  </defs>
  <rect id="Заливка_цветом_2" data-name="Заливка цветом 2" class="cls-1" width="128" height="128"/>
  <path id="Заливка_цветом_1" data-name="Заливка цветом 1" class="cls-2" d="M50.12,67.08a0.45,0.45,0,0,1,0,.2,3.146,3.146,0,0,1-.84.36c-0.576.252-1.2,0.644-1.8,0.84l-0.6.08a6.422,6.422,0,0,0-.8.36c0.157,0.168.412,0.266,0.56,0.44,0.861,1.009,1.84,1.9,2.64,2.96,0.209,0.277.518,0.512,0.72,0.8l0.56,1.12a50.676,50.676,0,0,1,3.96,7.52c0.135,0.3.383,0.609,0.52,0.92,0.48,1.091,1.006,2.159,1.48,3.24,1.166,2.658,2.121,5.385,3.28,8.04,0.431,0.987.928,2,1.36,3,0.519,1.2.892,2.406,1.4,3.6,0.4,0.945,1.184,1.794.92,3.24H63.4a4.64,4.64,0,0,1-1.2.08,12.51,12.51,0,0,1-2.44,0h-9.4a3.262,3.262,0,0,0-.36-0.96,20.291,20.291,0,0,0-1.32-2.68,10.443,10.443,0,0,1-.56-1.28c-0.545-1.236-1.1-2.578-1.72-3.76-0.348-.667-0.472-1.49-0.8-2.2-0.318-.688-0.768-1.412-1.08-2.12-0.723-1.641-1.354-3.268-2.08-4.92-0.314-.715-0.729-1.456-1.04-2.16a10.267,10.267,0,0,0-.56-1.24,14.224,14.224,0,0,1-1-1.76c-0.131-.313-0.109-0.65-0.24-0.96a22.116,22.116,0,0,0-1.24-2.72c-0.549-.9-1.1-1.8-1.72-2.64-0.23-.313-0.569-0.574-0.8-0.88a8.941,8.941,0,0,0-1.76-1.8,7.13,7.13,0,0,0-1.56-.44,16.96,16.96,0,0,0-5.72-.44V91.88a112.489,112.489,0,0,1-.2,12H15.68l-0.2-1.52q0.02-1.46.04-2.92V24.16H15.6A4.738,4.738,0,0,1,17.04,24a6.725,6.725,0,0,1,1,0H39.32a14.867,14.867,0,0,1,2.84.04h0.8l2.76,0.28a26.523,26.523,0,0,1,4.4,1.36,10.339,10.339,0,0,1,3.96,3.36c0.373,0.5.838,0.964,1.2,1.48a24.18,24.18,0,0,1,3.04,6.4c0.265,0.811.218,1.687,0.44,2.56,0.114,0.449.254,0.98,0.36,1.4v1a22.614,22.614,0,0,1,.28,4.96,29.57,29.57,0,0,1-.8,8.04c-0.209.688-.279,1.31-0.52,1.96A26.437,26.437,0,0,1,56,61.52c-0.525.846-1.209,1.577-1.8,2.36a6,6,0,0,1-1.12,1.04c-0.441.333-.821,0.8-1.28,1.12a5.707,5.707,0,0,0-1.4,1.04A0.355,0.355,0,0,0,50.12,67.08Zm69.36,36.84H107.44a10.063,10.063,0,0,0-.48-1.64c-0.027-.253-0.053-0.507-0.08-0.76-0.123-.427-0.272-0.95-0.4-1.4-0.109-.382-0.084-0.7-0.2-1.08-0.233-.758-0.516-1.511-0.76-2.24-0.566-1.692-.9-3.5-1.4-5.24-0.107-.374-0.094-0.666-0.2-1.04q-0.581-2.3-1.16-4.6H82.16a7.713,7.713,0,0,1-.36,1.92c-0.136.477-.13,0.9-0.28,1.36-0.341,1.041-.668,2.1-1,3.12-0.382,1.172-.412,2.41-0.76,3.64-0.317,1.123-.579,2.269-0.92,3.32-0.159.489-.141,0.967-0.28,1.48-0.162.6-.326,1.27-0.48,1.84a3.17,3.17,0,0,1-.28,1.16,3.164,3.164,0,0,1-1,.12,11.642,11.642,0,0,1-2.24,0h-8.4a1.48,1.48,0,0,1-.24-1.16c0.132-.446.343-0.953,0.48-1.44,0.267-.95.327-1.854,0.64-2.72,0.6-1.662.822-3.514,1.36-5.28,0.424-1.392.807-2.837,1.24-4.16,0.266-.812.238-1.7,0.48-2.56l0.88-3c0.224-.739.279-1.46,0.52-2.2,0.246-.757.517-1.561,0.72-2.32l0.08-.92c0.186-.7.423-1.482,0.64-2.2l0.48-2.2c0.626-1.923,1.127-3.919,1.76-5.88,0.477-1.475.706-3.049,1.12-4.52,0.456-1.621.687-3.278,1.16-4.84,0.133-.44.138-0.843,0.28-1.28,0.307-.945.479-1.954,0.8-2.92,0.25-.752.533-1.57,0.76-2.32l0.16-1.28c0.914-2.8,1.564-6.076,2.48-8.88l0.32-1.88c0.292-.887.6-1.867,0.88-2.8,0.386-1.268.514-2.55,0.88-3.84,0.474-1.672.932-3.332,1.44-4.92,0.116-.362.1-0.671,0.2-1.04,0.122-.432.284-0.943,0.4-1.36l0.08-.8,0.36-1.08a6.981,6.981,0,0,0,1.32-.12L91.08,24H98.4a0.614,0.614,0,0,1,.08.24,3.048,3.048,0,0,1,.12.68L99,26.36c0.755,1.993,1.288,4.447,1.88,6.56q0.1,0.7.2,1.4c0.254,0.889.59,1.825,0.88,2.72,0.484,1.491.711,3.079,1.16,4.56l0.24,1.12c0.236,0.724.392,1.5,0.64,2.24,0.141,0.422.351,0.895,0.48,1.32l0.12,1.12c0.25,0.914.57,1.922,0.84,2.88,0.256,0.909.312,1.8,0.6,2.68,0.577,1.77,1.1,3.563,1.68,5.36,0.122,0.378.117,0.7,0.24,1.08,0.576,1.769.834,3.671,1.36,5.52,0.394,1.382.628,2.853,1.08,4.24,0.508,1.558.987,3.158,1.48,4.68,0.233,0.718.258,1.426,0.48,2.16,0.342,1.13.643,2.226,0.96,3.36s0.372,2.238.72,3.28c0.443,1.328.794,2.821,1.24,4.2,0.271,0.838.382,1.723,0.64,2.52,0.2,0.628.237,1.219,0.44,1.84,0.332,1.019.677,2.093,1,3.08,0.227,0.694.193,1.471,0.4,2.2,0.157,0.554.36,1.152,0.52,1.72s0.183,1.064.36,1.6c0.258,0.779.588,1.484,0.8,2.36A7.535,7.535,0,0,1,119.48,103.92ZM26.8,38.2V57.32h7.72a21.393,21.393,0,0,0,4.32-.12h1.84a17.776,17.776,0,0,0,2.88-.52,5.848,5.848,0,0,0,1.24-.88c1.465-1.1,2.082-2.888,2.64-4.92a11.112,11.112,0,0,0,.32-4.12V46.24l-0.2-1.44a16.639,16.639,0,0,0-.76-2.52,6.489,6.489,0,0,0-3.52-3.6,7.378,7.378,0,0,0-1.12-.16,15.72,15.72,0,0,0-3.28-.2H37.24a19.374,19.374,0,0,0-3.76-.12H26.8Zm65.48,6.32a10.651,10.651,0,0,1-.88,3.36c-0.195.591-.191,1.176-0.36,1.8-0.185.681-.357,1.418-0.56,2.04l-0.2,1.52c-0.136.476-.326,1.008-0.48,1.48-0.271.833-.367,1.73-0.6,2.56-0.374,1.332-.423,2.682-0.84,3.96-0.305.937-.562,1.933-0.84,2.92-0.294,1.041-.316,2.084-0.64,3.08a18.845,18.845,0,0,0-1.16,4.44h13.4a3.52,3.52,0,0,0-.24-1c-0.166-.542-0.244-1.092-0.4-1.6l-0.2-1c-0.364-1.187-.6-2.492-0.96-3.68L92.4,44.52H92.28Z"/>
</svg>
